<?xml version="1.0" encoding="utf-8"?>
<!-- Generator: Adobe Illustrator 26.0.3, SVG Export Plug-In . SVG Version: 6.00 Build 0)  -->
<svg version="1.1" id="Layer_1" xmlns="http://www.w3.org/2000/svg" xmlns:xlink="http://www.w3.org/1999/xlink" x="0px" y="0px"
	 viewBox="0 0 163.2 43" style="enable-background:new 0 0 163.2 43;" xml:space="preserve">
<g>
	<polygon points="93.4,13.2 101.6,10.2 93.4,7 93.4,2.8 107.4,8.4 107.4,11.9 93.4,17.6 	"/>
	<path d="M15.9,40.2c-3,0-5.4-1.5-5.4-4.8v-0.2c0-4,3.5-5.4,7.8-5.4h2v-0.8c0-1.7-0.7-2.6-2.4-2.6c-1.6,0-2.4,0.9-2.4,2.1h-4.4
		c0.3-3.7,3.2-5.4,7.1-5.4c3.9,0,6.8,1.7,6.8,5.7v11h-4.4V38C19.6,39.2,18.1,40.2,15.9,40.2z M20.3,34.5v-1.6h-1.8
		c-2.3,0-3.4,0.6-3.4,2.1v0.2c0,1.1,0.7,1.9,2.3,1.9C18.9,37,20.3,36.1,20.3,34.5z M35.3,40.2c-4.5,0-7.8-2.8-7.8-8.4v-0.3
		c0-5.6,3.5-8.5,7.8-8.5c3.7,0,6.8,1.9,7.1,6.2h-4.4c-0.3-1.6-1.1-2.6-2.7-2.6c-1.9,0-3.3,1.6-3.3,4.8V32c0,3.3,1.2,4.8,3.3,4.8
		c1.6,0,2.7-1.1,3-3h4.2C42.2,37.6,39.7,40.2,35.3,40.2z M52.3,40.2c-4.5,0-7.8-2.8-7.8-8.4v-0.3c0-5.6,3.5-8.5,7.8-8.5
		c3.7,0,6.8,1.9,7.1,6.2h-4.4c-0.3-1.6-1.1-2.6-2.7-2.6c-1.9,0-3.3,1.6-3.3,4.8V32c0,3.3,1.2,4.8,3.3,4.8c1.6,0,2.7-1.1,3-3h4.2
		C59.3,37.6,56.8,40.2,52.3,40.2z M69.5,40.2c-4.7,0-7.9-2.8-7.9-8.3v-0.3c0-5.5,3.4-8.5,7.8-8.5c4.1,0,7.5,2.3,7.5,7.8v2H66.2
		c0.2,3,1.5,4.1,3.4,4.1c1.7,0,2.7-1,3-2.1h4.3C76.4,37.9,73.8,40.2,69.5,40.2z M66.3,29.8h6.1c-0.1-2.4-1.2-3.5-3-3.5
		C67.9,26.4,66.6,27.2,66.3,29.8z M79.7,23.5h4.6v2.4c0.8-1.6,2.4-2.8,5-2.8c3,0,5,1.8,5,5.7v11h-4.6V29.6c0-1.9-0.8-2.8-2.4-2.8
		c-1.6,0-2.9,1-2.9,3v10h-4.6L79.7,23.5L79.7,23.5z M102.7,18.5v5h3.1v3.4h-3.1v7.8c0,1.2,0.5,1.8,1.7,1.8c0.7,0,1.1-0.1,1.6-0.3
		v3.6c-0.5,0.2-1.5,0.3-2.6,0.3c-3.6,0-5.2-1.7-5.2-5v-8.3h-1.9v-3.4h1.9v-3L102.7,18.5z M123.1,39.9h-4.5v-2.4
		c-0.8,1.6-2.4,2.8-4.8,2.8c-3,0-5.1-1.8-5.1-5.7V23.5h4.6V34c0,1.9,0.8,2.8,2.4,2.8c1.6,0,2.9-1,2.9-3V23.5h4.6V39.9z M126.5,23.5
		h4.6v3c1-2.2,2.5-3.2,5-3.2v4.5c-3.1,0-5,1-5,3.7V40h-4.6V23.5z M145.4,40.2c-4.7,0-7.9-2.8-7.9-8.3v-0.3c0-5.5,3.4-8.5,7.8-8.5
		c4.1,0,7.5,2.3,7.5,7.8v2h-10.6c0.2,3,1.5,4.1,3.4,4.1c1.7,0,2.7-1,3-2.1h4.3C152.2,37.9,149.6,40.2,145.4,40.2z M142.1,29.8h6.2
		c-0.1-2.4-1.2-3.5-3-3.5C143.8,26.4,142.5,27.2,142.1,29.8z"/>
</g>
</svg>
