<?xml version="1.0" encoding="utf-8"?>
<!-- Generator: Adobe Illustrator 26.0.3, SVG Export Plug-In . SVG Version: 6.00 Build 0)  -->
<svg version="1.1" id="Layer_1" xmlns="http://www.w3.org/2000/svg" xmlns:xlink="http://www.w3.org/1999/xlink" x="0px" y="0px"
	 viewBox="0 0 300 220" style="enable-background:new 0 0 300 220;" xml:space="preserve">
<path d="M18.7,220C5.6,220,0,213.8,0,204.8c0-14.2,13.1-18.6,29.8-20.3v-3.7c0-9.6-5.6-12.3-13-12.3c-5.1,0-9.6,1.9-12.4,3.5
	L3,168.6c2.8-1.6,8.3-3.9,14.4-3.9c8.9,0,17.4,3.9,17.4,16.2v35.3C30.9,218.5,25.3,220,18.7,220 M29.8,187.7
	c-15.6,2.1-24.5,5.1-24.5,17.1c0,8.5,5.3,12,14.1,12c3.9,0,7.8-0.8,10.4-2.2V187.7z"/>
<path d="M71.5,169.4c-4.6-1.3-10.2-0.7-13.1,1.5V219H53v-50.5c4.8-2.5,8.4-3.8,20.1-3.8L71.5,169.4"/>
<polyline points="114.6,219 91.8,191.2 91.6,191.2 91.6,219 86.5,219 86.5,141.4 91.6,141.4 91.6,191 91.8,191 112.8,165.7 
	118.7,165.7 96.8,191.1 120.8,219 114.6,219 "/>
<path d="M147.1,219.3c-9,0-11.9-6.7-11.9-12.5v-38H129v-3.2h6.2V153l5.3-2v14.7h9.9v3.1h-9.9v38.4c0,4.3,2.1,8.4,7.7,8.4
	c0.6,0,1.5,0,2.2-0.2v3.5C149.6,219.1,148.5,219.3,147.1,219.3"/>
<path d="M167.8,194.7c0.8,14.1,7.3,21.2,17.9,21.2c5.9,0,10.1-1.6,12.8-3.2l1.7,3.9c-2.9,1.8-8.2,3.5-14.5,3.5
	c-12.9,0-22.8-7.8-22.8-27.8c0-18.8,9-27.5,20.2-27.5c11.5,0,19.1,7.2,19.1,24.9L167.8,194.7 M182.8,168.7
	c-8.5,0-15.1,6.5-15.1,22.7l29.1-4.4C196.7,173.6,191.4,168.7,182.8,168.7z"/>
<polyline points="246.7,219 223.9,191.2 223.7,191.2 223.7,219 218.6,219 218.6,141.4 223.7,141.4 223.7,191 223.9,191 244.9,165.7 
	250.8,165.7 228.9,191.1 252.9,219 246.7,219 "/>
<g>
	<polyline points="293.1,219 270.4,191.2 270.2,191.2 270.2,219 265,219 265,141.4 270.2,141.4 270.2,191 270.4,191 291.3,165.7 
		297.3,165.7 275.3,191.1 299.4,219 293.1,219 	"/>
	<path d="M173.7,84.7c0-7,0-17.4,0-25c0-2.3,0-4.3,0-5.9c6.1-1.3,11.9-4.1,16.8-8.1c3.3-2.7,6.2-6,8.6-9.8l-13.9-8.7
		c-2.9,4.7-7.2,8-12.1,9.7l-0.1-3.5C169.9,14.5,153.4,0,133.6,0c-5.4,0-10.6,1.1-15.3,3.1l7.4,14.7c2.5-0.9,5.2-1.4,8-1.4
		c13.1,0,23.8,10.6,23.8,23.8c0,5.7,0,10.5,0,14.5c-2.4-1.7-4.9-3.2-7.7-4.5c-0.9-0.4-1.8-0.8-2.8-1.1c-7.2-2.5-14.7-2.9-21.7-1.4
		c-10,2.1-18.9,8-24.8,16.7c-1.9,2.8-3.5,5.9-4.7,9.3C91.3,86,93.4,99,100,109.1l0,0c3.4,5.6,7.2,9.8,13.9,13.2l-0.1,0.2
		c5.7,3.2,12.3,4.9,19.3,4.9c6.1,0,11.9-1.4,17.1-3.8c3-1.4,5.7-3.2,8.3-5.2c0.5-0.4,0.9-0.7,1.3-1.1c-0.8-0.9-1.7-1.8-2.4-2.7
		c-2.7-3.4-4.9-7.2-6.4-11.3c0,0,0,0-0.1,0.1c-4.4,4.7-10.6,7.7-17.5,7.7c-2.8,0-5.4-0.5-7.9-1.4c-9.3-3.2-15.9-12.1-15.9-22.4
		c0-3.7,0.8-7.1,2.3-10.2c0-0.1,0.1-0.2,0.1-0.2c0.2-0.4,0.4-0.7,0.6-1.1c0.1-0.1,0.1-0.3,0.2-0.4c0.2-0.4,0.4-0.7,0.6-1
		c0.1-0.2,0.2-0.4,0.4-0.6c5.9-8.7,17.1-12.7,27.5-9.1c9.9,3.5,16.1,12.5,16,22.4l0,0.3c0.5,8.6,3.8,16.4,8.8,22.6
		c5.8,7.2,14.1,12.3,23.5,14.2c2.5,0.5,5.1,0.8,7.7,0.8v-16.4C184.4,108.5,173.7,97.9,173.7,84.7"/>
</g>
</svg>
