<?xml version="1.0" encoding="utf-8"?>
<!-- Generator: Adobe Illustrator 26.0.3, SVG Export Plug-In . SVG Version: 6.00 Build 0)  -->
<svg version="1.1" id="Layer_1" xmlns="http://www.w3.org/2000/svg" xmlns:xlink="http://www.w3.org/1999/xlink" x="0px" y="0px"
	 viewBox="0 0 900 400" style="enable-background:new 0 0 900 400;" xml:space="preserve">
<style type="text/css">
	.st0{fill:#1D1E1B;}
</style>
<g>
	<path class="st0" d="M293.1,258.6H184.5L165,310.2h-33.9l83.4-213.6h48.3l83.7,213.6h-34.2L293.1,258.6z M282.3,229.8l-42.9-114
		h-1.2l-42.9,114H282.3z"/>
	<path class="st0" d="M481.5,127.5l-21,63l5.1,2.1v53.7l-14.4,28.2v30.9c-13.5,6.3-23.7,8.4-33,8.4c-13.2,0-29.4-3-40.5-7.8v-16.2
		l-5.7-6c-0.6-0.3-15.3-15.6-15.3-31.5v-63.6c0-10.5,8.7-19.2,18.9-19.2h21.3l-14.1-45c-3.6-12,3.9-22.8,13.8-24.9
		s20.4,3.6,23.1,13.2l12.6,43.8l12.3-40.8c3-9.9,12.9-15.9,23.1-13.5C478.8,104.7,484.5,116.1,481.5,127.5z M366.6,213.6
		c0,2.7,2.7,5.4,5.7,5.4s5.4-2.4,5.4-5.4v-33.9h-2.1c-4.8,0-9,4.2-9,9V213.6z M455.4,199.2l-45.9-17.1c2.4,12.3,10.2,23.1,21.9,29.1
		l9,4.2l-6.9,7.5c-3,4.2-8.7,15-3.3,29.1l-9.3,3.3c-6.3-16.8-0.6-30,3.6-36.6c-6.3-3.3-11.7-8.1-15.6-13.5v18.9
		c0,8.7-6.9,15.6-15.6,15.6c-7.2,0-13.5-4.8-15.3-12c-2.1,1.2-3.9,1.5-5.7,1.5c-1.8,0-3.6-0.3-5.7-1.2v24.3
		c0,12,12.6,24.3,12.9,24.6l8.4,8.7v13.2c6.3,2.1,18,4.8,29.1,4.8c10.5,0,19.8-2.7,24.3-4.5v-26.7l14.1-28.2V199.2z M387.9,224.1
		c0,3,2.4,5.4,5.4,5.4c3.3,0,5.7-2.4,5.7-5.4v-44.4h-11.1V224.1L387.9,224.1z M408.9,171.3l19.2,6.9l-18-62.7
		c-1.5-4.5-6.3-7.2-11.1-6c-6.6,1.8-8.1,7.2-6.6,12L408.9,171.3z M465.6,112.2c-5.1-1.2-9.9,1.5-11.4,6.3l-18.6,62.7l15.6,5.7
		l20.7-63C474,119.1,470.4,113.4,465.6,112.2z"/>
	<path class="st0" d="M712.5,150.9c8.4,15.6,13.2,33.6,13.2,52.5c0,61.2-49.8,111-111,111s-111.3-49.8-111.3-111s50.1-111,111.3-111
		c18.9,0,36.9,4.8,52.2,13.2l19.5-19.5l7.5,38.1l37.8,7.5L712.5,150.9z M703.8,159.6l-11.1,11.1c4.2,10.2,6.6,21.3,6.6,32.7
		c0,46.8-38.1,84.9-84.6,84.9c-46.8,0-84.9-38.1-84.9-84.9s38.1-84.6,84.9-84.6c11.4,0,22.5,2.4,32.4,6.6l11.4-11.4
		c-13.2-6.6-28.2-10.2-43.8-10.2c-54.9,0-99.9,45-99.9,99.6c0,54.9,45,99.6,99.9,99.6c54.6,0,99.6-44.7,99.6-99.6
		C714.3,187.8,710.7,172.8,703.8,159.6z M614.7,130.2c-40.5,0-73.5,33-73.5,73.2s33,73.5,73.5,73.5c40.2,0,73.2-33.3,73.2-73.5
		c0-8.7-1.5-17.1-4.2-24.9l-18-3.6c4.8,8.4,7.5,18.3,7.5,28.5c0,32.4-26.4,58.5-58.5,58.5c-32.4,0-58.5-26.1-58.5-58.5
		c0-32.1,26.1-58.5,58.5-58.5c10.2,0,20.1,2.7,28.5,7.5l-3.6-17.7C631.8,131.7,623.4,130.2,614.7,130.2z M643.8,166.2
		c-8.1-6.3-18.3-9.9-29.1-9.9c-26.1,0-47.1,21-47.1,47.1c0,25.8,21,47.1,47.1,47.1c25.8,0,47.1-21.3,47.1-47.1
		c0-11.1-3.9-21-9.9-29.1l-15,15c2.4,4.2,3.9,9,3.9,14.1c0,14.7-11.7,26.4-26.1,26.4c-14.7,0-26.4-11.7-26.4-26.4
		c0-14.4,11.7-26.4,26.4-26.4c5.1,0,9.9,1.5,14.1,4.2L643.8,166.2z M679.2,109.8l-27.3,27.3l3.6,17.4l27-27.3L679.2,109.8z
		 M663.6,162.6l17.4,3.6l27-27.3l-17.1-3.6L663.6,162.6z"/>
</g>
</svg>
