<?xml version="1.0" encoding="utf-8"?>
<!-- Generator: Adobe Illustrator 26.0.3, SVG Export Plug-In . SVG Version: 6.00 Build 0)  -->
<svg version="1.1" id="Layer_1" xmlns="http://www.w3.org/2000/svg" xmlns:xlink="http://www.w3.org/1999/xlink" x="0px" y="0px"
	 viewBox="0 0 459.2 367.6" style="enable-background:new 0 0 459.2 367.6;" xml:space="preserve">
<g>
	<path d="M123.9,166.2H81.2v-19h-8v56c0,4.4,3.7,8,8.1,8h0h0.4h42.2c4.4,0,8.3-3.6,8.3-8v-29.2C132.2,169.5,128.3,166.2,123.9,166.2
		z M81.2,174.2h42v29h-42V174.2z"/>
	<path d="M142.2,173.9v37.3h9v-37l29,0v-8h-29.8C146,166.2,142.2,169.5,142.2,173.9z"/>
	<rect x="190.2" y="166.2" width="8" height="45"/>
	<path d="M328.3,166.2h-41.1v-19h-8v64h8v-37h41v37h8v-37.3C336.2,170.1,333.8,166.2,328.3,166.2z"/>
	<path d="M355.2,203.2v-29h30v-8h-30v-19h-8v56c0,4,3.3,7.6,7.1,8l-0.1,0.1h0.6h0.4h43v-8H355.2z"/>
	<path d="M260.5,166.2h-43.9c-4.4,0-8.4,3.3-8.4,7.7v29.2c0,4.4,4,8,8.4,8h43.6v13h-48v9h48.3c4.4,0,7.7-4,7.7-8.4v-50.9
		C268.2,169.2,265.2,166.2,260.5,166.2z M217.2,203.2v-29h43v29H217.2z"/>
</g>
</svg>
