<?xml version="1.0" encoding="utf-8"?>
<!-- Generator: Adobe Illustrator 26.0.3, SVG Export Plug-In . SVG Version: 6.00 Build 0)  -->
<svg version="1.1" id="Layer_1" xmlns="http://www.w3.org/2000/svg" xmlns:xlink="http://www.w3.org/1999/xlink" x="0px" y="0px"
	 viewBox="0 0 841.9 595.3" style="enable-background:new 0 0 841.9 595.3;" xml:space="preserve">
<g>
	<g>
		<path d="M159.9,466c-11.1,9.7-29.7,14.6-45.7,15.3c-41.3,1.7-55.7-21-56.8-44.8c-1.1-23.9,16.8-49,57-50.6
			c15.1-0.6,29.6,3.5,41.4,12.3l-13.5,11.7c-7.5-5.6-17.5-7.9-27.2-7.5c-26.9,1.1-37.8,18-37,33.3c0.8,15.2,12.1,30.5,39.5,29.4
			c9.7-0.4,20.5-4.1,27.6-10.4L159.9,466z"/>
	</g>
	<g>
		<path d="M246.9,388.4l-22.3,41.1l-27.3,50H220l9.5-17.3h58.2l9.4,17.3H320l-49.7-91.2L246.9,388.4L246.9,388.4z M238,446.2
			l20.7-39l20.7,39H238z"/>
	</g>
	<g>
		<path d="M711.5,388.4l-22.3,41.1l-27.3,50h22.7l9.5-17.3h58.2l9.4,17.3h22.9l-49.7-91.2L711.5,388.4L711.5,388.4z M702.6,446.2
			l20.7-39l20.7,39H702.6z"/>
	</g>
	<g>
		<path d="M431.3,388.4h-55.7l0.1,25.5v65.7h21v-26.9h31.5c48.1,0,53.6-50.2,17.1-62.2C440.7,389,436,388.4,431.3,388.4
			 M428.1,436.8h-31.5v-32.4h31.5C454.9,404.3,455,436.8,428.1,436.8"/>
	</g>
	<g>
		<path d="M624.7,479.6l-31.5-29.2c32.6-9.8,33-49.3,1.2-59.9c-4.5-1.5-9.3-2.1-14.1-2.1h-55.7l0,25.5v0v65.7h21v-26.9h24.2
			l28.6,26.9L624.7,479.6z M577.1,436.8h-31.5v-32.4h31.5C603.9,404.3,604,436.8,577.1,436.8"/>
	</g>
	<g>
		<path d="M412.9,268.1c-24-3.7-42.1-24.4-42.1-49.5c0-27.7,22.4-50.1,50.1-50.1c27.7,0,50.1,22.4,50.1,50.1
			c0,12.6-4.7,24.1-12.3,32.9c0.3-0.3,54.8-20.7,66.6-25.1c0.2-2.6,0.3-5.2,0.3-7.8c0-57.8-46.9-104.7-104.7-104.7
			c-57.8,0-104.7,46.9-104.7,104.7c0,57.8,46.9,104.7,104.7,104.7c51.1,0,93.6-34.9,102.8-83.3c-21.5,8.9-35.2,13.9-35.2,13.9
			s-9.1,3.5-29.4,10.4C439.9,269.9,428.3,270.1,412.9,268.1"/>
	</g>
</g>
</svg>
