<?xml version="1.0" encoding="utf-8"?>
<!-- Generator: Adobe Illustrator 26.0.3, SVG Export Plug-In . SVG Version: 6.00 Build 0)  -->
<svg version="1.1" id="Layer_1" xmlns="http://www.w3.org/2000/svg" xmlns:xlink="http://www.w3.org/1999/xlink" x="0px" y="0px"
	 viewBox="0 0 841.9 595.3" style="enable-background:new 0 0 841.9 595.3;" xml:space="preserve">
<style type="text/css">
	.st0{fill:#1E1F1C;}
</style>
<path class="st0" d="M263.3,297.3c-17.7,0-42.5-4.2-42.5-47.6c0-43,28.5-48.6,44.6-48.6c12.9,0,22.6,4.5,22.6,4.5v21
	c0,0-12.9-3.8-19.8-3.8c-9.1,0-17.8,3.3-17.8,26.9c0,21.3,6.3,25.4,16.4,25.4c8.4,0,21.2-3.8,21.2-3.8V293
	C287.9,292.9,276.4,297.3,263.3,297.3z"/>
<path class="st0" d="M374.5,258.3h-52.6c0.3,14.7,8,17,18.4,17c10.5,0,29.2-4.4,29.2-4.4v21.7c0,0-14.9,4.7-31,4.7
	c-20.1,0-45.8-4.7-45.8-48.1c0-39.2,22.6-48.1,42-48.1c18.2,0,40.7,8.6,40,48.1L374.5,258.3z M334.6,219.1
	c-10.5,0-12.6,7.9-12.9,22.6h24.7C346,226.3,343.9,219.1,334.6,219.1z"/>
<path class="st0" d="M438.2,295.5v-63.3c0-5.9-1.9-7.9-8-7.9c-8.4,0-18.4,5.8-18.4,5.8v65.4h-29.6v-92.7h25.2l3.8,9.4
	c0,0,13.3-11.2,29.9-11.2c15.4,0,26.6,6.8,26.6,27.6v66.8L438.2,295.5L438.2,295.5z"/>
<path class="st0" d="M584,226.3c-7.2,0-11.9,3.1-11.9,3.1v66.1h-29.6v-92.7H566l4.2,8.9c0,0,6.6-10.7,17.8-10.7c5.8,0,10,1,10,1v26
	C598,228,590.8,226.3,584,226.3z"/>
<path class="st0" d="M606.7,295.5v-92.7h29.6v92.7H606.7z"/>
<path class="st0" d="M686.5,297.3c-17.7,0-42.5-4.2-42.5-47.6c0-43,28.5-48.6,44.6-48.6c12.9,0,22.6,4.5,22.6,4.5v21
	c0,0-12.9-3.8-19.8-3.8c-9.1,0-17.8,3.3-17.8,26.9c0,21.3,6.3,25.4,16.4,25.4c8.4,0,21.2-3.8,21.2-3.8V293
	C711.2,292.9,699.6,297.3,686.5,297.3z"/>
<path class="st0" d="M241.1,353.5c-4.1,0-10.8-1.1-10.8-13.3c0-12.3,7.2-13.6,11-13.6c2.8,0,4.9,0.9,4.9,0.9v3.8
	c0,0-2.4-0.9-4.8-0.9c-3.1,0-6.8,0.8-6.8,9.8c0,8.2,3.4,9.4,6.4,9.4c2.3,0,5.2-1,5.2-1v4C246.2,352.5,243.7,353.5,241.1,353.5z"/>
<path class="st0" d="M259.1,353.5c-4.6,0-10.5-1.6-10.5-13.4c0-11.6,5.9-13.4,10.5-13.4c4.5,0,10.5,1.5,10.5,13.4
	C269.6,352.1,263.7,353.5,259.1,353.5z M259.1,330c-2.7,0-6.1,0.7-6.1,10.1c0,9.3,4,10,6.1,10c2.2,0,6.1-0.8,6.1-10
	C265.3,330.5,261.8,330,259.1,330z"/>
<path class="st0" d="M290.6,353v-18.8c0-3.5-2.2-3.6-4.1-3.6c-3.5,0-7,2.6-7,2.6V353h-4.3v-25.9h3.2l1,3.2c0,0,3.8-3.7,8.3-3.7
	c4.2,0,7.3,1.8,7.3,7.7V353H290.6z"/>
<path class="st0" d="M317.9,353v-18.8c0-3.5-2.2-3.6-4.1-3.6c-3.5,0-7,2.6-7,2.6V353h-4.3v-25.9h3.2l1,3.2c0,0,3.8-3.7,8.3-3.7
	c4.2,0,7.3,1.8,7.3,7.7V353H317.9z"/>
<path class="st0" d="M347,341.4h-14.5c0.2,8.3,4.1,8.2,6.6,8.2s6.6-1.3,6.6-1.3v3.9c0,0-3.3,1.2-6.6,1.2c-5,0-10.9-1-10.9-13.4
	c0-10.9,4.8-13.4,9.7-13.4c4.5,0,9.6,2,9.2,13.4L347,341.4z M337.9,329.9c-3.1,0-5.1,1.6-5.3,8.4h10.2
	C342.8,331.1,340.5,329.9,337.9,329.9z"/>
<path class="st0" d="M362.2,353.5c-4.1,0-10.8-1.1-10.8-13.3c0-12.3,7.2-13.6,11-13.6c2.8,0,4.9,0.9,4.9,0.9v3.8
	c0,0-2.4-0.9-4.8-0.9c-3.1,0-6.8,0.8-6.8,9.8c0,8.2,3.4,9.4,6.4,9.4c2.3,0,5.2-1,5.2-1v4C367.4,352.5,364.9,353.5,362.2,353.5z"/>
<path class="st0" d="M379.8,353.5c-3.7,0-5.8-1.4-5.8-6.5v-16.5h-4.3v-3.4h4.3l0.2-5.9l4.2-2v7.8h5.8l-0.5,3.4h-5.3V347
	c0,2.3,0.8,2.6,2.4,2.6s4.3-0.9,4.3-0.9v3.7C385.1,352.6,382.5,353.5,379.8,353.5z"/>
<path class="st0" d="M392.4,353.5c-1.9,0-3.4-1.6-3.4-3.6s1.5-3.5,3.4-3.5s3.4,1.6,3.4,3.5C395.7,351.8,394.3,353.5,392.4,353.5z"/>
<path class="st0" d="M418,341.4h-14.5c0.2,8.3,4.1,8.2,6.6,8.2s6.6-1.3,6.6-1.3v3.9c0,0-3.3,1.2-6.6,1.2c-5,0-10.9-1-10.9-13.4
	c0-10.9,4.8-13.4,9.7-13.4c4.5,0,9.6,2,9.2,13.4L418,341.4z M408.9,329.9c-3.1,0-5.1,1.6-5.3,8.4h10.2
	C413.7,331.1,411.5,329.9,408.9,329.9z"/>
<path class="st0" d="M439.3,353v-18.8c0-3.5-2.2-3.6-4.1-3.6c-3.5,0-7,2.6-7,2.6V353h-4.3v-25.9h3.2l1,3.2c0,0,3.8-3.7,8.3-3.7
	c4.2,0,7.3,1.8,7.3,7.7V353H439.3z"/>
<path class="st0" d="M465.6,330.4c1.1,1.4,1.8,2.8,1.8,4.9c0,5.8-3.5,8.7-8.9,8.7c-1.4,0-2.7-0.2-3.8-0.7c-0.9,1-1.5,1.7-1.5,2.5
	c0,1.5,0.6,1.7,2.9,1.8l5.9,0.3c4.8,0.2,7.5,1.7,7.5,6.5c0,6.4-4.7,8.3-11.6,8.3c-5.5,0-9.3-2.1-9.3-6.9c0-2,1.3-4.2,2.9-5.4
	c-1.4-0.8-1.9-2.1-1.9-3.6c0-1.9,1.5-3.5,2.9-4.7c-1.8-1.5-3-3.4-3-6.8c0-6.1,3.5-8.7,9-8.7c1.9,0,2.7,0.5,4.7,0.5h6.9v3.3
	L465.6,330.4L465.6,330.4z M461.6,351.7l-6.6-0.4c-0.4,0-0.8,0-1.1-0.1c-0.7,1.1-1.3,2.1-1.3,3.6c0,2.8,1.6,4.8,5.4,4.8
	c5.6,0,7.5-1.8,7.5-4.8C465.5,352.4,464.4,351.9,461.6,351.7z M458.5,329.6c-3.5,0-4.8,1.9-4.8,5.7c0,3.4,1.6,5.7,4.8,5.7
	c3.3,0,4.8-2.3,4.8-5.7C463.3,331.8,461.7,329.6,458.5,329.6z"/>
<path class="st0" d="M486.4,353l-0.5-3c0,0-2.2,3.5-6.7,3.5c-3.1,0-7.5-1.1-7.5-8.1c0-7.1,5.5-8.3,9.8-8.3h4.2v-2.8
	c0-3.6-1.9-3.9-4.8-3.9c-2.3,0-6,1-7,1.3V328c0,0,3.7-1.3,7.7-1.3c4.6,0,8.5,1.3,8.5,8.4v18h-3.7V353z M485.8,339.7l-3.1,0.1
	c-4,0-6.5,0.9-6.5,5.2c0,4.3,1.9,4.9,4.1,4.9c2.9,0,5.6-2.7,5.6-2.7v-7.5H485.8z"/>
<path class="st0" d="M512.1,330.4c1.1,1.4,1.8,2.8,1.8,4.9c0,5.8-3.5,8.7-8.9,8.7c-1.4,0-2.7-0.2-3.8-0.7c-0.9,1-1.5,1.7-1.5,2.5
	c0,1.5,0.6,1.7,2.9,1.8l5.9,0.3c4.8,0.2,7.5,1.7,7.5,6.5c0,6.4-4.7,8.3-11.6,8.3c-5.5,0-9.3-2.1-9.3-6.9c0-2,1.3-4.2,2.9-5.4
	c-1.4-0.8-1.9-2.1-1.9-3.6c0-1.9,1.5-3.5,2.9-4.7c-1.8-1.5-3-3.4-3-6.8c0-6.1,3.5-8.7,9-8.7c1.9,0,2.7,0.5,4.7,0.5h6.9v3.3
	L512.1,330.4L512.1,330.4z M508.1,351.7l-6.6-0.4c-0.4,0-0.8,0-1.1-0.1c-0.7,1.1-1.3,2.1-1.3,3.6c0,2.8,1.6,4.8,5.4,4.8
	c5.6,0,7.5-1.8,7.5-4.8C512,352.4,510.9,351.9,508.1,351.7z M505,329.6c-3.5,0-4.8,1.9-4.8,5.7c0,3.4,1.6,5.7,4.8,5.7
	c3.3,0,4.8-2.3,4.8-5.7C509.8,331.8,508.2,329.6,505,329.6z"/>
<path class="st0" d="M537.3,341.4h-14.5c0.2,8.3,4.1,8.2,6.6,8.2s6.6-1.3,6.6-1.3v3.9c0,0-3.3,1.2-6.6,1.2c-5,0-10.9-1-10.9-13.4
	c0-10.9,4.8-13.4,9.7-13.4c4.5,0,9.6,2,9.2,13.4L537.3,341.4z M528.1,329.9c-3.1,0-5.1,1.6-5.3,8.4H533
	C533,331.1,530.8,329.9,528.1,329.9z"/>
<path class="st0" d="M543.4,353.5c-1.9,0-3.4-1.6-3.4-3.6s1.5-3.5,3.4-3.5s3.4,1.6,3.4,3.5C546.8,351.8,545.4,353.5,543.4,353.5z"/>
<path class="st0" d="M556.4,353.5c-2.7,0-5.6-1-5.6-1v-3.9c0,0,3.6,1.2,5.6,1.2c2.5,0,5-0.6,5-3.8c0-2.8-1.4-3.3-3.5-4.2l-2.5-1
	c-1.7-0.7-5-2.3-5-6.9s3.4-7.2,8.4-7.2c3.4,0,5.8,1,5.8,1v3.7c0,0-3-1-5.6-1c-2.4,0-4.4,0.7-4.4,3.3c0,2.7,1.8,3.2,3.1,3.8l2.5,1
	c2.7,1.1,5.4,2.8,5.4,7.5C565.6,352.3,560.9,353.5,556.4,353.5z"/>
<path class="st0" d="M585.9,353l-0.5-3.4c0,0-3.5,3.9-7.8,3.9c-4.1,0-7-1.9-7-7.6v-18.8h4.3v17.8c0,3.1,0.7,4.6,3.6,4.6
	c3.1,0,6.5-2.7,6.5-2.7v-19.7h4.3V353H585.9z"/>
<path class="st0" d="M606.5,353.5c-4.1,0-10.8-1.1-10.8-13.3c0-12.3,7.2-13.6,11-13.6c2.8,0,4.9,0.9,4.9,0.9v3.8
	c0,0-2.4-0.9-4.8-0.9c-3.1,0-6.8,0.8-6.8,9.8c0,8.2,3.4,9.4,6.4,9.4c2.3,0,5.2-1,5.2-1v4C611.7,352.5,609.2,353.5,606.5,353.5z"/>
<path class="st0" d="M625.1,353.5c-4.1,0-10.8-1.1-10.8-13.3c0-12.3,7.2-13.6,11-13.6c2.8,0,4.9,0.9,4.9,0.9v3.8
	c0,0-2.4-0.9-4.8-0.9c-3.1,0-6.8,0.8-6.8,9.8c0,8.2,3.4,9.4,6.4,9.4c2.3,0,5.2-1,5.2-1v4C630.3,352.5,627.7,353.5,625.1,353.5z"/>
<path class="st0" d="M651.4,341.4H637c0.2,8.3,4.1,8.2,6.6,8.2s6.6-1.3,6.6-1.3v3.9c0,0-3.3,1.2-6.6,1.2c-5,0-10.9-1-10.9-13.4
	c0-10.9,4.8-13.4,9.7-13.4c4.5,0,9.6,2,9.2,13.4L651.4,341.4z M642.3,329.9c-3.1,0-5.1,1.6-5.3,8.4h10.2
	C647.2,331.1,644.9,329.9,642.3,329.9z"/>
<path class="st0" d="M674.9,341.4h-14.5c0.2,8.3,4.1,8.2,6.6,8.2s6.6-1.3,6.6-1.3v3.9c0,0-3.3,1.2-6.6,1.2c-5,0-10.9-1-10.9-13.4
	c0-10.9,4.8-13.4,9.7-13.4c4.5,0,9.6,2,9.2,13.4L674.9,341.4z M665.7,329.9c-3.1,0-5.1,1.6-5.3,8.4h10.2
	C670.6,331.1,668.3,329.9,665.7,329.9z"/>
<path class="st0" d="M696.5,353l-0.5-2.8c-0.9,1.1-3.2,3.3-7,3.3c-3.7,0-9.4-1.7-9.4-13.4c0-12,7.1-13.4,10.4-13.4
	c3.2,0,5,1.8,5.6,2.4v-11.2h4.3V353H696.5z M695.4,332.2c-0.7-0.5-2.6-1.9-5.1-1.9c-2.9,0-6.5,1.2-6.5,9.8c0,9.1,3.3,9.8,6,9.8
	c2.5,0,4.7-1.7,5.6-2.4V332.2z"/>
<path class="st0" d="M708,353.5c-1.9,0-3.4-1.6-3.4-3.6s1.5-3.5,3.4-3.5s3.4,1.6,3.4,3.5S710,353.5,708,353.5z"/>
<path class="st0" d="M517.5,275.4c-3.1,0-5.9-0.7-5.9-5.9v-49.8h17.3l2.8-16.9h-20.1v-17.4l-29.6,8.7v8.7h-7.9v16.9h7.9v50.8
	c0,23.4,14.2,26.8,28.7,26.8c12.1,0,22.7-4,22.7-4v-20.6C533.4,272.6,521.7,275.4,517.5,275.4z"/>
<path class="st0" d="M148.1,197c-27.6,0-50,22.4-50,50c0,27.6,22.4,50,50,50c27.6,0,50-22.4,50-50C198.1,219.4,175.7,197,148.1,197z
	 M157,252c-4.6,0-8.3-3.7-8.3-8.3c0-4.6,3.7-8.3,8.3-8.3c4.6,0,8.3,3.7,8.3,8.3C165.3,248.3,161.6,252,157,252z"/>
</svg>
