<?xml version="1.0" encoding="utf-8"?>
<!-- Generator: Adobe Illustrator 26.0.3, SVG Export Plug-In . SVG Version: 6.00 Build 0)  -->
<svg version="1.1" id="Layer_1" xmlns="http://www.w3.org/2000/svg" xmlns:xlink="http://www.w3.org/1999/xlink" x="0px" y="0px"
	 viewBox="0 0 792 612" style="enable-background:new 0 0 792 612;" xml:space="preserve">
<g>
	<g>
		<g>
			<rect x="297.3" y="346.5" width="20.1" height="79.6"/>
			<path d="M479.4,369.3c-0.8-0.4-7.3-4.3-16.9-4.3c-13,0-22,9-22,21.2c0,11.8,8.6,21.3,22,21.3c9.4,0,16-3.7,16.9-4.2v21.4
				c-2.5,0.7-9.4,2.8-18.3,2.8c-22.6,0-42.4-15.6-42.4-41.2c0-23.8,17.9-41.2,42.4-41.2c9.4,0,16.4,2.3,18.3,2.9V369.3z"/>
			<path d="M269.7,369.3c-0.8-0.4-7.3-4.3-16.9-4.3c-13,0-22,9-22,21.2c0,11.8,8.6,21.3,22,21.3c9.4,0,16-3.7,16.9-4.2v21.4
				c-2.5,0.7-9.3,2.8-18.3,2.8c-22.6,0-42.4-15.6-42.4-41.2c0-23.8,17.9-41.2,42.4-41.2c9.5,0,16.4,2.3,18.3,2.9V369.3z"/>
			<path d="M584.6,386.3c0,22.8-17.6,41.2-42.1,41.2c-24.5,0-42-18.5-42-41.2c0-22.7,17.6-41.2,42-41.2
				C567.1,345.1,584.6,363.5,584.6,386.3z M542.6,365.3c-11.9,0-20.8,9.4-20.8,20.9c0,11.6,8.8,21,20.8,21c11.9,0,20.8-9.4,20.8-21
				C563.4,374.7,554.5,365.3,542.6,365.3z"/>
			<path d="M393.6,364.6c-0.3-0.1-8.8-2.4-15.7-2.4c-8.1,0-12.4,2.7-12.4,6.5c0,4.8,5.9,6.5,9.2,7.6l5.5,1.8c13,4.1,19,13.1,19,22.8
				c0,20-17.6,26.7-33,26.7c-10.7,0-20.7-2-21.7-2.2V407c1.8,0.4,10.2,3,19,3c10,0,14.6-2.9,14.6-7.4c0-4-4-6.4-9-7.9
				c-1.2-0.4-3-1-4.3-1.4c-11.2-3.5-20.5-10.1-20.5-23.3c0-14.9,11.1-24.9,29.7-24.9c9.8,0,19,2.4,19.6,2.5V364.6z"/>
		</g>
	</g>
	<path d="M187.6,260.9c0-5.5-4.5-9.9-10-9.9c-5.5,0-10,4.4-10,9.9v20.9c0,5.5,4.5,10,10,10c5.5,0,10-4.4,10-10V260.9z"/>
	<path d="M242.4,233.5c0-5.5-4.5-9.9-10-9.9s-10,4.5-10,9.9v48.3c0,5.5,4.5,10,10,10s10-4.4,10-10V233.5z"/>
	<path d="M297.2,196c0-5.5-4.5-9.9-10-9.9c-5.5,0-10,4.4-10,9.9v105.7c0,5.5,4.5,10,10,10c5.5,0,10-4.4,10-10V196z"/>
	<path d="M352,233.5c0-5.5-4.5-9.9-10-9.9c-5.5,0-10,4.5-10,9.9v48.3c0,5.5,4.5,10,10,10c5.5,0,10-4.4,10-10V233.5z"/>
	<path d="M406.7,260.9c0-5.5-4.4-9.9-9.9-9.9c-5.5,0-10,4.4-10,9.9v20.9c0,5.5,4.5,10,10,10c5.5,0,9.9-4.4,9.9-10V260.9z"/>
	<path d="M461.5,233.5c0-5.5-4.4-9.9-9.9-9.9c-5.5,0-9.9,4.5-9.9,9.9v48.3c0,5.5,4.5,10,9.9,10c5.5,0,9.9-4.4,9.9-10V233.5z"/>
	<path d="M516.4,196c0-5.5-4.4-9.9-9.9-9.9c-5.5,0-9.9,4.4-9.9,9.9v105.7c0,5.5,4.5,10,9.9,10c5.5,0,9.9-4.4,9.9-10V196z"/>
	<path d="M571.2,233.5c0-5.5-4.4-9.9-10.1-9.9c-5.5,0-9.9,4.5-9.9,9.9v48.3c0,5.5,4.4,10,9.9,10c5.6,0,10.1-4.4,10.1-10V233.5z"/>
	<path d="M625.9,260.9c0-5.5-4.5-9.9-9.9-9.9c-5.5,0-10,4.4-10,9.9v20.9c0,5.5,4.5,10,10,10c5.5,0,9.9-4.4,9.9-10V260.9z"/>
</g>
</svg>
