<?xml version="1.0" encoding="utf-8"?>
<!-- Generator: Adobe Illustrator 26.0.3, SVG Export Plug-In . SVG Version: 6.00 Build 0)  -->
<svg version="1.1" id="Layer_1" xmlns="http://www.w3.org/2000/svg" xmlns:xlink="http://www.w3.org/1999/xlink" x="0px" y="0px"
	 viewBox="0 0 841.9 595.3" style="enable-background:new 0 0 841.9 595.3;" xml:space="preserve">
<g>
	<g>
		<path d="M374.4,330.6l-2.4,2.8c-0.8-1-1.8-1.6-3-1.6c-1.2,0-2.1,0.4-2.8,1.2c-0.7,0.8-1,1.8-1,3c0,1.2,0.3,2.2,1,3
			c0.7,0.8,1.6,1.2,2.8,1.2c1.2,0,2.2-0.5,3-1.6l2.4,2.8c-1.4,1.5-3.2,2.3-5.4,2.3s-4.1-0.7-5.5-2.2c-1.5-1.5-2.2-3.3-2.2-5.5
			c0-2.2,0.7-4,2.2-5.5c1.5-1.5,3.3-2.2,5.5-2.2C371.3,328.3,372.9,329,374.4,330.6z"/>
		<path d="M379.4,328.1v15.3h-3.7v-15.3H379.4z"/>
		<path d="M390.6,334.5c1,1,1.6,2.3,1.6,3.8c0,1.6-0.5,2.8-1.6,3.8c-1,1-2.4,1.5-4,1.5c-1.6,0-2.9-0.5-4-1.5c-1-1-1.6-2.3-1.6-3.8
			c0-1.6,0.5-2.8,1.6-3.8c1-1,2.4-1.5,4-1.5C388.2,332.9,389.5,333.5,390.6,334.5z M386.6,340.4c1,0,1.8-0.9,1.8-2.1
			c0-1.2-0.8-2.2-1.8-2.2c-1,0-1.8,0.9-1.8,2.2C384.8,339.5,385.6,340.4,386.6,340.4z"/>
		<path d="M403.6,333.1v10.3h-3.3l-0.2-1c-0.6,0.8-1.5,1.2-2.8,1.2c-2.4,0-3.7-1.7-3.7-4.7v-5.8h3.7v5.6c0,0.9,0.4,1.4,1.1,1.4
			c0.6,0,1.1-0.3,1.4-0.9v-6.1H403.6z"/>
		<path d="M416.1,328.1v15.3h-3.3l-0.2-1c-0.6,0.8-1.5,1.3-2.8,1.3c-1.3,0-2.4-0.5-3.2-1.5c-0.8-1-1.2-2.3-1.2-3.9
			c0-1.6,0.4-2.8,1.2-3.8c0.8-1,1.9-1.5,3.2-1.5c1.2,0,2,0.3,2.6,1v-5.9H416.1z M409.1,338.3c0,1.4,0.7,2.1,1.7,2.1
			c0.7,0,1.2-0.3,1.6-0.9v-2.4c-0.4-0.6-0.9-1-1.6-1C409.7,336.2,409.1,336.9,409.1,338.3z"/>
		<path d="M420.1,343.4h-1.2v-15.3h1.2v6.6c0.4-0.6,0.9-1.1,1.6-1.5c0.7-0.3,1.4-0.5,2.1-0.5c0.8,0,1.5,0.2,2.1,0.5s1.1,0.7,1.5,1.2
			c0.4,0.5,0.7,1.1,0.9,1.8c0.2,0.7,0.3,1.4,0.3,2.1c0,0.8-0.1,1.5-0.3,2.2c-0.2,0.7-0.5,1.3-0.8,1.7c-0.4,0.5-0.9,0.9-1.5,1.2
			c-0.6,0.3-1.3,0.4-2.2,0.4c-0.3,0-0.7,0-1-0.1c-0.3-0.1-0.7-0.2-1-0.4c-0.3-0.2-0.6-0.4-0.9-0.7c-0.3-0.3-0.5-0.6-0.7-0.9h0V343.4
			z M420.1,338.2c0,0.6,0.1,1.2,0.2,1.8c0.2,0.5,0.4,1,0.7,1.4c0.3,0.4,0.7,0.7,1.1,0.9c0.4,0.2,0.9,0.3,1.5,0.3
			c0.5,0,1-0.1,1.4-0.3c0.4-0.2,0.8-0.4,1.1-0.8c0.3-0.3,0.6-0.8,0.8-1.3c0.2-0.5,0.3-1.1,0.3-1.7c0-0.7,0-1.3-0.2-1.8
			c-0.1-0.6-0.3-1.1-0.6-1.5s-0.7-0.8-1.1-1s-1-0.4-1.6-0.4c-0.6,0-1,0.1-1.5,0.4c-0.4,0.2-0.8,0.6-1.1,0.9s-0.5,0.9-0.7,1.4
			S420.1,337.6,420.1,338.2z"/>
		<path d="M432,338.5c0,0.6,0.1,1.1,0.2,1.6c0.1,0.5,0.4,0.9,0.7,1.3s0.7,0.7,1.1,0.9c0.4,0.2,1,0.3,1.5,0.3c0.8,0,1.5-0.2,2-0.6
			c0.6-0.4,0.9-1,1.1-1.8h1.4c-0.1,0.5-0.3,1-0.6,1.4c-0.2,0.4-0.5,0.8-0.9,1.1c-0.4,0.3-0.8,0.6-1.3,0.7c-0.5,0.2-1.1,0.3-1.7,0.3
			c-0.8,0-1.6-0.1-2.2-0.4c-0.6-0.3-1.1-0.7-1.5-1.2c-0.4-0.5-0.7-1.1-0.9-1.7c-0.2-0.7-0.3-1.4-0.3-2.1s0.1-1.5,0.3-2.2
			c0.2-0.7,0.5-1.3,0.9-1.8c0.4-0.5,0.9-0.9,1.5-1.2s1.3-0.4,2-0.4c1.4,0,2.6,0.5,3.4,1.5s1.2,2.4,1.2,4.3H432z M438.9,337.5
			c0-0.5-0.1-1-0.2-1.4c-0.1-0.5-0.3-0.8-0.6-1.2c-0.3-0.3-0.6-0.6-1-0.8s-0.9-0.3-1.4-0.3c-0.5,0-1,0.1-1.4,0.3
			c-0.4,0.2-0.8,0.5-1,0.8c-0.3,0.3-0.5,0.7-0.7,1.2c-0.2,0.4-0.3,0.9-0.3,1.4H438.9z"/>
		<path d="M444,343.4h-1.2V333h1.2v2h0c0.3-0.8,0.8-1.4,1.3-1.7c0.5-0.3,1.2-0.5,2.1-0.5v1.3c-0.7,0-1.3,0.1-1.7,0.3
			c-0.4,0.2-0.8,0.5-1.1,0.9c-0.3,0.4-0.4,0.9-0.5,1.4c-0.1,0.5-0.2,1.1-0.2,1.7V343.4z"/>
		<path d="M450.9,343.4h-1.2V333h1.2v2h0c0.3-0.8,0.8-1.4,1.3-1.7c0.5-0.3,1.2-0.5,2.1-0.5v1.3c-0.7,0-1.3,0.1-1.7,0.3
			c-0.4,0.2-0.8,0.5-1.1,0.9c-0.3,0.4-0.4,0.9-0.5,1.4c-0.1,0.5-0.2,1.1-0.2,1.7V343.4z"/>
		<path d="M456.7,343.4V333h1.2v10.4H456.7z"/>
		<path d="M462,338.5c0,0.6,0.1,1.1,0.2,1.6c0.1,0.5,0.4,0.9,0.7,1.3s0.7,0.7,1.1,0.9c0.4,0.2,1,0.3,1.5,0.3c0.8,0,1.5-0.2,2-0.6
			c0.6-0.4,0.9-1,1.1-1.8h1.4c-0.1,0.5-0.3,1-0.6,1.4c-0.2,0.4-0.5,0.8-0.9,1.1c-0.4,0.3-0.8,0.6-1.3,0.7c-0.5,0.2-1.1,0.3-1.7,0.3
			c-0.8,0-1.6-0.1-2.2-0.4c-0.6-0.3-1.1-0.7-1.5-1.2c-0.4-0.5-0.7-1.1-0.9-1.7c-0.2-0.7-0.3-1.4-0.3-2.1s0.1-1.5,0.3-2.2
			c0.2-0.7,0.5-1.3,0.9-1.8c0.4-0.5,0.9-0.9,1.5-1.2s1.3-0.4,2-0.4c1.4,0,2.6,0.5,3.4,1.5s1.2,2.4,1.2,4.3H462z M468.8,337.5
			c0-0.5-0.1-1-0.2-1.4c-0.1-0.5-0.3-0.8-0.6-1.2c-0.3-0.3-0.6-0.6-1-0.8s-0.9-0.3-1.4-0.3c-0.5,0-1,0.1-1.4,0.3
			c-0.4,0.2-0.8,0.5-1,0.8c-0.3,0.3-0.5,0.7-0.7,1.2c-0.2,0.4-0.3,0.9-0.3,1.4H468.8z"/>
		<path d="M473.4,340.2c0.2,0.9,0.5,1.5,1,1.9s1.2,0.6,2.1,0.6c0.4,0,0.8-0.1,1.1-0.2c0.3-0.1,0.6-0.3,0.8-0.4
			c0.2-0.2,0.4-0.4,0.5-0.6c0.1-0.2,0.2-0.5,0.2-0.7c0-0.5-0.2-0.9-0.5-1.1c-0.3-0.2-0.7-0.4-1.2-0.6c-0.5-0.1-1-0.3-1.6-0.4
			s-1.1-0.3-1.6-0.5c-0.5-0.2-0.9-0.5-1.2-0.9c-0.3-0.4-0.5-0.9-0.5-1.6c0-0.9,0.3-1.6,1-2.1c0.6-0.6,1.5-0.8,2.7-0.8
			c1.1,0,2,0.3,2.8,0.8c0.7,0.5,1.1,1.3,1.3,2.5h-1.2c-0.1-0.8-0.4-1.4-0.9-1.7c-0.5-0.3-1.1-0.5-1.9-0.5s-1.4,0.2-1.8,0.5
			c-0.4,0.3-0.6,0.8-0.6,1.3c0,0.5,0.2,0.8,0.5,1.1s0.7,0.5,1.2,0.6c0.5,0.2,1,0.3,1.6,0.4s1.1,0.3,1.6,0.5c0.5,0.2,0.9,0.5,1.2,0.9
			c0.3,0.4,0.5,0.9,0.5,1.6c0,0.5-0.1,0.9-0.3,1.3c-0.2,0.4-0.5,0.7-0.9,1c-0.4,0.3-0.8,0.4-1.3,0.6s-1.1,0.2-1.7,0.2
			c-0.6,0-1.2-0.1-1.6-0.3s-0.9-0.4-1.2-0.8c-0.3-0.3-0.6-0.7-0.8-1.1c-0.2-0.4-0.3-0.9-0.3-1.4H473.4z"/>
	</g>
</g>
<circle cx="457.3" cy="330" r="0.9"/>
<g>
	<path d="M437.8,304.8c-1.4-0.3-2.2-0.7-3-1.3c-0.2,1.3-0.9,4.6-0.9,4.6c-0.2-1.5-0.6-4.1-0.8-5.6c-0.1-0.7-0.3-1.3-0.4-2
		c1.4,2,3.4,3.3,5.7,3.9c2.2,0.6,4.5,1.1,6.8,1.6c1.3,0.3,2.7,0.4,4.3,0.6c0,0-7-4.2-7.5-8c-0.1-0.9-0.3-1.5-0.5-2.2
		c-0.7-2.4-3.8-3.8-6.1-2.6c0.6,3.5,2.5,6.1,5.3,8.3c-3.4-1.2-6.1-3.1-7.7-6.8c-0.3,1-0.5,1.8-0.7,2.4c-0.5-0.1-2.1,0.7-2.3,3
		c-0.5,5,2.1,8.8,5.1,12.8C435.9,310.4,436.8,307.7,437.8,304.8z"/>
	<path d="M394.8,274.2c0.6-2.1,1.5-3.8,3-5.2l0.1-0.1c0.6-0.5,1.2-1,1.8-1.3c-0.1-0.3-0.1-0.7-0.1-1.1l0-0.5
		c0.1-4.7,2.5-8.9,6.5-11.2c3.9-2.3,8.7-2.5,12.7-0.4c3.7-2,8.2-2,12.1-0.1c4,2,6.6,5.8,7.1,10c0,0.2,0,0.4,0,0.6
		c5.4,2.1,8.8,8.2,8,14.2c-0.3,2.2-2.2,11.1-13.2,10.5l0,0c-2.5,10.3-9.4,10-13.2,9.6c-2.7,2.5-5.3,4.6-11.2,2.7
		c-2.1-0.7-5.1-3.1-6.5-6.4c-1-2.3-1-4.6-0.2-6.7c-1.7-0.5-3.3-1.4-4.6-2.9c-2-2.3-3.1-5.5-2.8-8.6
		C394.4,276.3,394.6,275.2,394.8,274.2z M400.7,272c-1.3,1.3-2,3.2-2.3,5.8c-0.2,1.9,0.5,4,1.8,5.5c0.7,0.8,1.8,1.7,3.5,1.8
		c0,0,2.7-0.2,3.3,1.1c0.7,1.3-0.2,2.3-0.5,2.7c-0.2,0.3-0.5,0.6-0.8,1.1c-0.6,1.2-0.6,2.6,0,4c0.9,2.2,3,3.8,3.9,4.1l0,0
		c5.4,2.5,8.7-3.3,8.7-3.3s8.8,4.8,11.9-8.7l3.5-0.1c5.5-0.7,7.6-3.4,8.1-7.4c0.5-3.7-1.5-8.4-5.6-9.9c-1.7-0.6-2.3-1.4-2.4-3.9
		c-0.3-2.9-2.1-5.4-4.9-6.8c-2.7-1.4-5.8-1.3-8.3,0.1c-1.2,0.7-2.4,0.7-3.7,0c-2.8-1.5-6.1-1.4-8.8,0.2c-2.6,1.6-4.6,4.8-4.5,7.4
		c0.1,2.7,0.8,4.4,0.8,4.4S402.1,270.7,400.7,272z"/>
</g>
</svg>
