<?xml version="1.0" encoding="utf-8"?>
<!-- Generator: Adobe Illustrator 26.0.3, SVG Export Plug-In . SVG Version: 6.00 Build 0)  -->
<svg version="1.1" id="Layer_1" xmlns="http://www.w3.org/2000/svg" xmlns:xlink="http://www.w3.org/1999/xlink" x="0px" y="0px"
	 viewBox="0 0 355.5 81.9" style="enable-background:new 0 0 355.5 81.9;" xml:space="preserve">
<title>Computas_logo_liggende</title>
<path d="M76.3,20.4C65,0.8,39.9-5.9,20.3,5.5C0.7,16.9-6,42,5.4,61.5c11.4,19.6,36.5,26.2,56,14.9c11.8-6.8,19.4-19.1,20.3-32.7
	c0.1-0.9,0.1-1.8,0.1-2.8c0-1.1,0-2.2-0.1-3.3C81.3,31.5,79.4,25.6,76.3,20.4z M75.8,45.2C73.5,64.4,56,78,36.8,75.7
	C17.6,73.4,4,55.9,6.3,36.7c2.3-19.2,19.8-32.8,39-30.5c15.8,1.9,28.3,14.2,30.4,30c0.1,0.7-0.4,1.4-1.1,1.4c-0.1,0-0.1,0-0.2,0h-15
	c-0.6,0-1.1-0.4-1.2-1c-2.4-9.5-12-15.2-21.4-12.8c-9.5,2.4-15.2,12-12.8,21.4c2.4,9.5,12,15.2,21.4,12.8c6.5-1.6,11.5-6.8,13-13.3
	c0.1-0.6,0.7-1,1.3-1h15c0.7,0,1.3,0.6,1.3,1.3C75.8,45.1,75.8,45.1,75.8,45.2L75.8,45.2z M151.9,29.6c-7.3-0.1-13.3,5.8-13.3,13.1
	c-0.1,7.3,5.8,13.3,13.1,13.3c7.3,0.1,13.3-5.8,13.3-13.1c0,0,0,0,0,0c0.2-7.1-5.4-13.1-12.5-13.3C152.4,29.6,152.2,29.6,151.9,29.6
	L151.9,29.6z M151.9,50.7c-4.3,0.2-8-3.1-8.2-7.5s3.1-8,7.5-8.2c4.3-0.2,8,3.1,8.2,7.5c0,0.1,0,0.3,0,0.4c0.2,4.1-3,7.6-7.1,7.8
	C152.2,50.7,152.1,50.7,151.9,50.7L151.9,50.7z M131.6,47.2c-0.1-0.1-0.3-0.1-0.4,0.1c-1.6,2.2-4,3.5-6.7,3.5
	c-4.3,0.1-7.9-3.4-8-7.7s3.4-7.9,7.7-8c2.5,0,4.9,1.3,6.4,3.3c0.1,0.1,0.3,0.2,0.5,0.1c0,0,0,0,0,0l3.7-3.1c0.1-0.1,0.2-0.3,0.1-0.5
	c-2.5-3.3-6.5-5.3-10.6-5.3c-7.2-0.1-13.1,5.6-13.3,12.7c0,0.2,0,0.4,0,0.6c0,7.5,5.8,13.2,13.6,13.2c4.4,0,8.6-2.1,11.1-5.7
	c0.1-0.1,0.1-0.3-0.1-0.4L131.6,47.2z M346.2,40c-2.5-0.6-4.2-1.2-4.2-2.6c0-1.9,2.2-2.8,4.2-2.8c1.8,0,3.5,0.6,4.9,1.7
	c0.1,0.1,0.4,0.1,0.5-0.1l2.6-3.6c0.1-0.1,0.1-0.3-0.1-0.5c-2.4-1.8-5.2-2.7-8.2-2.6c-4.6,0-9.5,2.5-9.5,8.1c0,3.1,2,5.4,5.9,6.7
	c0.9,0.3,1.8,0.5,2.7,0.7c3,0.8,4.9,1.3,4.9,3.2s-2,2.8-4,2.8c-2.5-0.1-4.9-0.9-6.9-2.5c-0.1-0.1-0.3-0.1-0.4,0.1c0,0,0,0,0,0
	l-2.6,3.7c-0.1,0.1-0.1,0.3,0.1,0.5c2.9,2.2,6.4,3.4,10,3.3c4.6,0,9.6-2.8,9.6-7.9C355.5,42.4,348.9,40.7,346.2,40z M201.9,29.6
	c-3.4-0.1-6.8,1.3-9.2,3.7c-0.1,0.1-0.3,0.1-0.5,0c-4-4.3-10.6-5-15.3-1.4c-0.1,0-0.2,0-0.2,0c0,0,0-0.1,0-0.1v-1.3
	c0-0.2-0.1-0.3-0.3-0.3h-4.9c-0.2,0-0.3,0.1-0.3,0.3c0,0,0,0,0,0v24.8c0,0.2,0.1,0.3,0.3,0.3l0,0h5c0.2,0,0.3-0.1,0.3-0.3l0,0V38.5
	c0-0.1,0-0.2,0.1-0.2c1.6-1.9,4-3.1,6.5-3.2c1.7,0,3.4,0.7,4.5,2c1,1.1,1.4,2.5,1.4,4.7v13.5c0,0.2,0.1,0.3,0.3,0.3l0,0h5
	c0.2,0,0.3-0.1,0.3-0.3l0,0V42.6c0-1.4-0.1-2.7-0.4-4.1c0-0.1,0-0.2,0.1-0.3c1.8-2,4.4-3.1,7.1-3.2c1.7,0,3.3,0.7,4.4,2
	c1,1.1,1.4,2.5,1.4,4.7v13.5c0,0.2,0.1,0.3,0.3,0.3c0,0,0,0,0,0h5c0.2,0,0.3-0.1,0.3-0.3c0,0,0,0,0,0V42.6c0-4.1-0.7-6.7-2.3-8.7
	C208.7,31.2,205.4,29.6,201.9,29.6z M298.9,50.5c-0.8,0.1-1.6,0.2-2.3,0.2c-1.2,0.1-2.3-0.4-3.2-1.2c-0.6-0.9-0.8-1.9-0.7-3V35.6
	c0-0.2,0.1-0.3,0.3-0.3c0,0,0,0,0,0h4.5c0.2,0,0.3-0.1,0.3-0.3c0,0,0,0,0,0v-4.5c0-0.2-0.1-0.3-0.3-0.3l0,0H293
	c-0.2,0-0.3-0.1-0.3-0.3l0,0v-6.2c0-0.2-0.1-0.3-0.3-0.3l0,0h-5c-0.2,0-0.3,0.1-0.3,0.3l0,0v6.2c0,0.2-0.1,0.3-0.3,0.3c0,0,0,0,0,0
	h-4.3c-0.2,0-0.3,0.1-0.3,0.3c0,0,0,0,0,0V35c0,0.2,0.1,0.3,0.3,0.3l0,0h4.3c0.2,0,0.3,0.1,0.3,0.3l0,0v10.7c0,3,0.7,5.2,2.1,6.8
	c1.9,2,4.5,3.1,7.3,3c1.3,0,2.5-0.1,3.7-0.5c0.2,0,0.3-0.2,0.2-0.4c0,0,0,0,0,0l-1.1-4.6C299.2,50.5,299.1,50.4,298.9,50.5
	C298.9,50.5,298.9,50.5,298.9,50.5z M329.3,30.1h-4.9c-0.2,0-0.3,0.1-0.3,0.3l0,0v1.3c0,0.1,0,0.1-0.1,0.1c0,0-0.1,0-0.1,0
	c-2.1-1.5-4.6-2.3-7.2-2.3c-2.2,0-4.3,0.5-6.2,1.6c-6.4,3.9-8.5,12.2-4.6,18.7c1.1,1.9,2.7,3.4,4.5,4.5c2,1.1,4.2,1.7,6.4,1.7
	c2.6,0,5-0.8,7.1-2.3c0,0,0.1,0,0.2,0c0,0,0,0.1,0,0.1v1.3c0,0.2,0.1,0.3,0.3,0.3c0,0,0,0,0,0h4.9c0.2,0,0.3-0.1,0.3-0.3
	c0,0,0,0,0,0V30.5C329.6,30.3,329.5,30.1,329.3,30.1C329.3,30.1,329.3,30.1,329.3,30.1L329.3,30.1z M323.9,47.3c0,0.1,0,0.2-0.1,0.2
	c-1.5,2-3.9,3.2-6.4,3.2c-4.3,0.1-7.8-3.4-7.9-7.7c0-0.1,0-0.1,0-0.2c-0.1-4.2,3.1-7.7,7.3-7.8c0.1,0,0.2,0,0.3,0
	c2.6,0,5,1.2,6.7,3.2c0,0.1,0.1,0.1,0.1,0.2L323.9,47.3z M240.3,31.3c-1.9-1.1-4.1-1.6-6.2-1.6c-2.6,0-5.1,0.8-7.2,2.3
	c-0.1,0-0.1,0-0.2,0c0,0,0-0.1,0-0.1v-1.3c0-0.2-0.1-0.3-0.3-0.3h-4.8c-0.2,0-0.3,0.1-0.3,0.3c0,0,0,0,0,0v37.4
	c0,0.2,0.1,0.3,0.3,0.3c0,0,0,0,0,0h5c0.2,0,0.3-0.1,0.3-0.3c0,0,0,0,0,0V54c0-0.1,0.1-0.1,0.1-0.1c0,0,0.1,0,0.1,0
	c2,1.5,4.5,2.2,7,2.2c2.2,0,4.4-0.6,6.4-1.7c6.4-3.9,8.4-12.3,4.5-18.7C243.7,33.9,242.2,32.4,240.3,31.3L240.3,31.3z M233.3,50.7
	c-2.5,0-4.9-1.2-6.4-3.2c-0.1-0.1-0.1-0.1-0.1-0.2v-8.8c0-0.1,0-0.2,0.1-0.2c1.6-2,4.1-3.2,6.7-3.2c4.2,0,7.6,3.3,7.6,7.5
	c0,0.1,0,0.2,0,0.3c0,4.3-3.5,7.8-7.8,7.8C233.4,50.7,233.3,50.7,233.3,50.7L233.3,50.7z M276.1,30.2h-5c-0.2,0-0.3,0.1-0.3,0.3l0,0
	v16.8c0,0.1,0,0.2-0.1,0.2c-1.6,2-4,3.1-6.5,3.2c-1.7,0-3.4-0.7-4.5-2c-0.9-1.1-1.3-2.5-1.3-4.7V30.5c0-0.2-0.1-0.3-0.3-0.3h-5
	c-0.2,0-0.3,0.1-0.3,0.3v12.7c0,4.1,0.7,6.7,2.3,8.7c2.2,2.7,5.5,4.3,9.1,4.3c2.4,0,4.8-0.8,6.8-2.3c0.1,0,0.1,0,0.2,0
	c0,0,0,0,0,0.1v1.3c0,0.2,0.1,0.3,0.3,0.3c0,0,0,0,0,0h4.9c0.2,0,0.3-0.1,0.3-0.3c0,0,0,0,0,0V30.5
	C276.4,30.3,276.3,30.1,276.1,30.2C276.1,30.1,276,30.1,276.1,30.2L276.1,30.2z"/>
</svg>
