<?xml version="1.0" encoding="utf-8"?>
<!-- Generator: Adobe Illustrator 26.0.3, SVG Export Plug-In . SVG Version: 6.00 Build 0)  -->
<svg version="1.1" id="Layer_1" xmlns="http://www.w3.org/2000/svg" xmlns:xlink="http://www.w3.org/1999/xlink" x="0px" y="0px"
	 viewBox="0 0 1109.8 365" style="enable-background:new 0 0 1109.8 365;" xml:space="preserve">
<g>
	<path d="M117.7,248.9c18,18,41.6,27,65.2,27s47.2-9,65.2-27l84.3-84.3l-21.1-21.1l-84.3,84.3c-24.3,24.3-63.9,24.3-88.3,0l-1.2-1.2
		c-24.3-24.3-24.3-63.9,0-88.3l1.1-1.1c24.3-24.3,63.9-24.3,88.3,0l7.3,7.3l21.1-21.1l-7.3-7.3c-36-36-94.5-36-130.5,0l-1.1,1.1
		c-36,36-36,94.5,0,130.5L117.7,248.9z"/>
	<path d="M410,116.1c-18-18-41.6-27-65.2-27s-47.2,9-65.2,27l-84.3,84.3l21.1,21.1l84.3-84.3c24.3-24.3,63.9-24.3,88.3,0l1.2,1.2
		c24.3,24.3,24.3,63.9,0,88.3l-1.1,1.1c-24.3,24.3-63.9,24.3-88.3,0l-7.3-7.3l-21.1,21.1l7.3,7.3c36,36,94.5,36,130.5,0l1.1-1.1
		c36-36,36-94.5,0-130.5L410,116.1z"/>
</g>
<g>
	<g>
		<path d="M844.3,159.8l-48.4,115.8h-17l13.2-32.7l-34.2-83.1h17.2l25.8,63l26.2-63H844.3z"/>
	</g>
	<path d="M483,182.5c0-35.7,28.4-64.6,64.1-64.6c19.4,0,36.2,8.2,47.4,21.4l-12.1,10.2c-8.4-9.9-21.2-16.3-35.3-16.3
		c-26.5,0-47.4,22.1-47.4,49.2c0,26.9,20.9,49.2,47.4,49.2c14.1,0,26.9-6.4,35.3-16.3l12.1,10.2c-11.2,13.2-28,21.4-47.4,21.4
		C511.4,247.1,483,218.2,483,182.5z"/>
	<path d="M660.6,161.3l-2.6,15c-4.6-2.2-9.2-2.9-12.4-2.9c-17,0-23.8,18.1-23.8,40.6v31.3h-16.1v-85.5h16.1v19.4
		c4.4-15,12.6-21.2,24-21.2C651.8,158,658,159.6,660.6,161.3z"/>
	<path d="M749.4,159.8v85.5h-15.9v-13.5c-5.7,9.9-18.1,15.4-30.4,15.4c-23.4,0-42.8-17.8-42.8-44.7c0-27.1,19.2-44.5,42.6-44.5
		c12.8,0,24.9,5.1,30.6,15.2v-13.4H749.4z M733.5,202.3c0-18.5-15-29.3-29.1-29.3c-15.6,0-28,12.1-28,29.3c0,17,12.4,29.8,28,29.8
		C719.7,232.1,733.5,220.6,733.5,202.3z"/>
	<path d="M843.1,202.3c0-27.1,20.3-44.3,44.7-44.3s44.8,17.2,44.8,44.3c0,27.1-20.5,44.8-44.8,44.8S843.1,229.3,843.1,202.3z
		 M916.7,202.3c0-17.6-13.2-29.3-28.9-29.3c-15.6,0-28.5,11.7-28.5,29.3c0,17.8,13,29.8,28.5,29.8
		C903.5,232.1,916.7,220,916.7,202.3z"/>
	<path d="M1020.3,195.9v49.4h-15.9v-48.5c0-14.3-8.8-23.1-20.7-23.1c-11.9,0-26.2,6.8-26.2,25.3v46.3h-15.9v-85.5h15.9v13
		c5.1-10.4,19-14.8,28.4-14.8C1007.1,158,1020.5,171.9,1020.3,195.9z"/>
</g>
</svg>
