<?xml version="1.0" encoding="utf-8"?>
<!-- Generator: Adobe Illustrator 26.0.3, SVG Export Plug-In . SVG Version: 6.00 Build 0)  -->
<svg version="1.1" xmlns="http://www.w3.org/2000/svg" xmlns:xlink="http://www.w3.org/1999/xlink" x="0px" y="0px"
	 viewBox="0 0 739.8 1048.8" style="enable-background:new 0 0 739.8 1048.8;" xml:space="preserve">
<g id="Layer_2">
</g>
<g id="Layer_1">
	<g>
		<g>
			<path d="M24.9,468.1h62v21.7h-36v22.6h25.6v21.7H50.9v45.9h-26V468.1z"/>
			<path d="M91.3,468.1h23.4v22.6H91.3V468.1z M91.3,501.1h23.4v78.9H91.3V501.1z"/>
			<path d="M120.4,501.1h23.4v10.5h0.3c4.9-8,12.3-12.4,20.7-12.4c9.4,0,15.5,6.9,15.5,17.8v63h-23.4v-55.8c0-4.2-1.3-7.1-5.6-7.1
				c-2.5,0-4.5,1.1-6.1,3.3l-1.3,1.9v57.7h-23.4V501.1z"/>
			<path d="M223.2,524.5c0-4.7-1.9-9.3-6.1-9.3c-5.3,0-7.2,6-7.7,10.4l-20.4-4.6c2.6-15.6,15.6-21.8,28.9-21.8
				c14,0,28.6,6.6,28.6,24v44c0,9,1.3,11.6,2.2,12.7h-24.1c-0.4-2.2-0.4-4.9-0.7-7.2c-4.2,5.3-10.4,9.1-17.6,9.1
				c-12.6,0-20.8-8.8-20.8-24.2c0-21.2,22-27.3,37.7-27.8V524.5z M223.2,542.1c-9,0.9-14.3,2.7-14.3,14.3c0,5.5,2.6,8.5,6.8,8.5
				c2,0,4.6-1.4,7.5-5V542.1z"/>
			<path d="M254.4,501.1h23.4v10.5h0.3c4.9-8,12.3-12.4,20.7-12.4c9.4,0,15.5,6.9,15.5,17.8v63h-23.4v-55.8c0-4.2-1.3-7.1-5.6-7.1
				c-2.5,0-4.5,1.1-6.1,3.3l-1.3,1.9v57.7h-23.4V501.1z"/>
			<path d="M359.4,525.3c-2.2-4.7-5.2-10.1-11-10.1c-4.8,0-6.9,2.5-6.9,5c0,12.7,35.6,8.6,35.6,34.7c0,17-11.9,26.9-29.1,26.9
				c-16.2,0-26.7-9.4-30.5-22.3l17.9-6.1c2.7,6,5.8,11.5,12.6,11.5c4.3,0,7.4-2.4,7.4-5.8c0-13.2-35.6-8-35.6-35.3
				c0-8.3,7.5-24.5,28.2-24.5c11.7,0,23.6,6,27.8,21.4L359.4,525.3z"/>
			<path d="M418.8,524.5c0-4.7-1.9-9.3-6.1-9.3c-5.3,0-7.2,6-7.7,10.4l-20.4-4.6c2.6-15.6,15.6-21.8,28.9-21.8
				c14,0,28.6,6.6,28.6,24v44c0,9,1.3,11.6,2.2,12.7h-24.1c-0.4-2.2-0.4-4.9-0.7-7.2c-4.2,5.3-10.4,9.1-17.6,9.1
				c-12.6,0-20.8-8.8-20.8-24.2c0-21.2,22-27.3,37.7-27.8V524.5z M418.8,542.1c-9,0.9-14.3,2.7-14.3,14.3c0,5.5,2.6,8.5,6.8,8.5
				c2,0,4.6-1.4,7.5-5V542.1z"/>
			<path d="M441.6,501.1h24.3l8.2,42.9h0.3l10-42.9h18.5l-23.3,78.9H462L441.6,501.1z"/>
			<path d="M506.1,468.1h23.4v22.6h-23.4V468.1z M506.1,501.1h23.4v78.9h-23.4V501.1z"/>
			<path d="M575.3,525.3c-2.2-4.7-5.2-10.1-11-10.1c-4.8,0-6.9,2.5-6.9,5c0,12.7,35.6,8.6,35.6,34.7c0,17-11.9,26.9-29.1,26.9
				c-16.2,0-26.7-9.4-30.5-22.3l17.9-6.1c2.7,6,5.8,11.5,12.6,11.5c4.3,0,7.4-2.4,7.4-5.8c0-13.2-35.6-8-35.6-35.3
				c0-8.3,7.5-24.5,28.2-24.5c11.7,0,23.6,6,27.8,21.4L575.3,525.3z"/>
			<path d="M618.8,546.2c0,6.9,1.3,18.7,10.6,18.7c5.6,0,10.4-4.4,11.9-10.8l15.8,6.3c-1,3.6-8.2,21.5-29.1,21.5
				c-22.4,0-32.5-19.6-32.5-41.5c0-22.3,10.7-41.2,32.2-41.2c22.5,0,30.4,21.1,30.4,41.6v5.3H618.8z M636.3,531.1
				c-0.1-7.4-0.7-15.9-8.8-15.9c-6.6,0-8.7,8.5-8.7,15.9H636.3z"/>
			<path d="M662.3,501.1h23.4v10.5h0.3c4.9-8,12.3-12.4,20.7-12.4c9.4,0,15.5,6.9,15.5,17.8v63h-23.4v-55.8c0-4.2-1.3-7.1-5.6-7.1
				c-2.5,0-4.5,1.1-6.1,3.3l-1.3,1.9v57.7h-23.4V501.1z"/>
		</g>
	</g>
</g>
</svg>
