<?xml version="1.0" encoding="utf-8"?>
<!-- Generator: Adobe Illustrator 26.0.3, SVG Export Plug-In . SVG Version: 6.00 Build 0)  -->
<svg version="1.1" id="Layer_1" xmlns="http://www.w3.org/2000/svg" xmlns:xlink="http://www.w3.org/1999/xlink" x="0px" y="0px"
	 viewBox="0 0 993.3 186.6" style="enable-background:new 0 0 993.3 186.6;" xml:space="preserve">
<polygon points="113,2.9 0,2.9 0,183.3 13.9,183.3 13.9,98.6 98.6,98.6 98.6,85.2 13.9,85.2 13.9,16.4 113,16.4 "/>
<path d="M192.6,54.9c-17.6,0-34.8,11.8-41,27.8l-0.3-26.2v-0.4h-11.9v127.2h13.4v-61.1c0-20.3,5.2-54.5,39.8-54.5
	c4.1-0.1,8.3,0.3,12.3,1.2l0.5,0.1V55.5l-0.3-0.1C200.9,55,196.8,54.8,192.6,54.9z"/>
<path d="M278,52.9c-17.6,0-32.6,7.7-43.3,22.1c-8.5,11.6-12.5,25.9-12.5,45.2c0,19.1,5.6,35.8,16.3,48.3
	c10.5,12,24.1,18.1,40.5,18.1c13.6,0.2,26.8-5.2,36.4-14.8c7.6-7.1,12.6-16.5,14.3-26.8l0.1-0.5h-13.9l-0.1,0.3
	c-1.3,6.7-4.3,12.3-9.5,17.8c-6.8,7.1-16.5,11-27.3,11c-12.6,0-22.8-4.5-30.3-13.3c-8-9.5-12.7-23-13-37.3h96.5v-0.4
	c0-1.5,0.1-2.9,0.1-4.2s0.1-2.7,0.1-4.2c0-16.3-5.1-31.5-14.3-42.8C308.1,59.4,294.2,52.9,278,52.9z M236,110.7
	c0.2-26.2,17.8-45.2,42.1-45.2c26,0,40.2,22.7,40.8,45.2H236z"/>
<path d="M501.4,52.9c-18.7,0-33.1,9.4-40.6,26.6c-4.1-12.4-14.4-26.6-40-26.6c-16.6,0-30.7,8.9-38.1,23.9l-1.4-20.3v-0.4h-11.9
	v127.2h13.4v-63.6c0-21,5.1-36.4,15-45.7c5.9-5.6,13.4-8.5,22.2-8.5c20.4,0,29.9,11,29.9,34.7v83h13.7v-71.9
	c0-15.3,5.1-28.2,14.8-37.4c6-5.7,14-8.7,22.2-8.5c20.3,0,29.7,11,29.7,34.7v83h13.4V99.3C543.8,69.4,528.7,52.9,501.4,52.9z"/>
<path d="M608.9,18.1l-13.4,3.2v34.8h-25.3v12.4h25.3v79.2c0,24.4,11.4,37.3,33,37.3c6.8,0,13.3-1.4,20.2-2.9l1.2-0.2v-11.8l-0.5,0.1
	c-6.2,1.1-12.9,2.3-19.9,2.3c-14.4,0-20.6-7.5-20.6-25.1V68.7H684v114.8h14.2V56.2h-89.3V18.1z"/>
<path d="M803.2,52.9c-17.9,0-35.1,10.3-42.4,25.1l-1.4-21.9h-11.9v127.2h13.4v-63.6c0-10.4,1.6-25.3,9.3-37.1
	c7.2-11,18.1-16.6,32.3-16.6c21.7,0,32.2,11.2,32.2,34.2v83h13.4V99.4C848.1,69.9,831.7,52.9,803.2,52.9z"/>
<path d="M691,2.4c-5.6,0-10.2,4.6-10.2,10.2c0,5.6,4.6,10.2,10.2,10.2c5.6,0,10.2-4.6,10.2-10.2C701.2,7,696.6,2.4,691,2.4z"/>
<path d="M979.7,0v76.1c-7.4-13.8-24.3-23.3-41.8-23.3c-13.9,0-25.6,4.5-34.6,13.3C890.7,78,883.5,97.6,883.5,120
	c0,23.5,7.4,42.9,20.9,54.6c9,7.9,20.4,12,33.9,12c17.4,0,34.7-10.2,41.7-24.4l1.4,21.1h11.9V0H979.7z M963.9,163.4
	c-6.8,6.6-16,10.2-25.5,10c-10,0-18.1-2.9-24.8-8.7c-10.7-9.5-16.6-25.5-16.6-45c0-17.8,5-32.9,14-42.7c7.1-7.4,15.9-11,26.8-11
	c10.7,0,19.5,3.3,26.3,9.8c10.8,10.1,15.8,24,15.8,43.9C980,138.3,974.6,153,963.9,163.4z"/>
</svg>
