<?xml version="1.0" encoding="utf-8"?>
<!-- Generator: Adobe Illustrator 26.0.3, SVG Export Plug-In . SVG Version: 6.00 Build 0)  -->
<svg version="1.1" id="Layer_1" xmlns="http://www.w3.org/2000/svg" xmlns:xlink="http://www.w3.org/1999/xlink" x="0px" y="0px"
	 viewBox="0 0 11338.6 11338.6" style="enable-background:new 0 0 11338.6 11338.6;" xml:space="preserve">
<g>
	<g>
		<path d="M10425.1,6398.2L10425.1,6398.2l-45.3-71.7l0,0l-37.7,64.1l0,0L10425.1,6398.2z M10330.8,6153L10330.8,6153l49,90.5h3.8
			l45.3-86.8v-3.8L10330.8,6153L10330.8,6153z M10293.1,6171.8L10293.1,6171.8l3.8,207.4l0,0l56.6-94.3v-3.8L10293.1,6171.8z
			 M10477.9,6386.8v-222.5l0,0L10410,6285v3.8L10477.9,6386.8L10477.9,6386.8z M10161.1,5591L10161.1,5591c0,37.7,0,98.1,0,98.1
			l30.2,52.8c11.3,15.1,86.8,381,86.8,381l94.3-49c-7.5-11.3-15.1-26.4-15.1-45.3c0-7.5,0-15.1,3.8-18.9c-3.8,0-26.4-3.8-30.2-11.3
			s-7.5-83,3.8-101.8c0-3.8-3.8-7.5-7.5-11.3c-15.1-18.9-67.9-79.2-67.9-90.5c0-7.5,11.3-22.6,11.3-22.6L10161.1,5591z M9667,6681
			c0-7.5-11.3-94.3-15.1-116.9c-101.8-7.5-150.9-18.9-162.2-33.9c-15.1-18.9,116.9-814.7,128.2-829.8c7.5-7.5,37.7-33.9,41.5-41.5
			s0-173.5,0-215h-3.8c-7.5,0-181,169.7-237.6,162.2c-41.5-3.8-83-26.4-105.6-41.5L9403,6979c98.1,30.2,199.9,49,305.5,56.6l30.2-49
			v-75.4l-41.5-222.5C9693.4,6696.1,9670.8,6688.6,9667,6681z M9810.3,4304.8c-203.7,0-396,45.3-569.5,124.5l49,795.9
			c22.6-3.8,37.7-3.8,41.5,0c7.5,7.5,33.9,71.7,33.9,83c0,7.5,0,15.1-7.5,22.6c22.6,7.5,67.9,18.9,67.9,18.9s124.5-166,158.4-188.6
			c7.5-3.8,105.6-49,147.1-67.9c3.8-3.8,7.5-7.5,7.5-15.1c0-15.1,11.3-86.8,11.3-105.6c0-11.3,30.2-37.7,33.9-56.6
			c3.8-18.9,3.8-113.2,7.5-124.5c3.8-15.1,83-67.9,101.8-79.2c11.3-7.5,101.8-3.8,113.2-3.8c37.7,7.5,71.7,41.5,71.7,56.6
			c0,11.3-3.8,139.6-3.8,139.6c0,11.3,45.3,83,45.3,105.6s-3.8,71.7-3.8,83c0,3.8,3.8,11.3,7.5,18.9
			c26.4,15.1,128.2,79.2,147.1,90.5c18.9,11.3,83,305.5,83,305.5l83,166c0,0,22.6-7.5,30.2-3.8c7.5,3.8,15.1,196.1,15.1,196.1l0,0
			c11.3,22.6,37.7,75.4,37.7,94.3s-18.9,37.7-41.5,52.8c0,3.8,0,7.5,0,11.3c0,18.9-7.5,33.9-15.1,45.3c30.2,15.1,83,41.5,83,45.3
			c0,11.3,0,22.6,0,298c0,0-33.9,26.4-37.7,26.4s-116.9-7.5-188.6-11.3c3.8,52.8,7.5,98.1,3.8,109.4
			c-33.9,15.1-116.9,26.4-173.5,30.2c-11.3,41.5-49,173.5-60.3,173.5s-22.6,0-22.6,0s-71.7,101.8-71.7,113.2
			c0,7.5,26.4,98.1,26.4,98.1l67.9,56.6c618.6-132,1082.5-682.7,1082.5-1339C11179.5,4919.6,10564.7,4304.8,9810.3,4304.8z"/>
		<path d="M9172.9,5477.8c-18.9-15.1-49-86.8-45.3-128.2c0-37.7,26.4-83,33.9-98.1c3.8-3.8,11.3-7.5,22.6-11.3l-49-769.4
			c-426.2,233.9-712.9,682.7-712.9,1203.2c0,580.9,362.1,1075,871.3,1274.9l-94.3-1459.7C9191.7,5485.4,9180.4,5481.6,9172.9,5477.8
			z"/>
	</g>
	<g>
		<path d="M4507.1,5025.2c56.6,0,105.6,45.3,105.6,105.6c0,56.6-45.3,101.8-105.6,101.8c-56.6,0-101.8-45.3-101.8-101.8
			C4405.3,5070.5,4450.6,5025.2,4507.1,5025.2z"/>
		<path d="M4427.9,5432.6c0-15.1,11.3-30.2,30.2-30.2h98.1c15.1,0,30.2,15.1,30.2,30.2v746.8h-128.2c-15.1,0-30.2-15.1-30.2-30.2
			v-716.6H4427.9z"/>
		<path d="M5880.1,5025.2c56.6,0,105.6,45.3,105.6,105.6c0,56.6-45.3,101.8-105.6,101.8c-56.6,0-101.8-45.3-101.8-101.8
			C5778.2,5070.5,5819.7,5025.2,5880.1,5025.2z"/>
		<path d="M5800.9,5432.6c0-15.1,15.1-30.2,30.2-30.2h98.1c15.1,0,30.2,15.1,30.2,30.2v746.8h-128.2c-15.1,0-30.2-15.1-30.2-30.2
			L5800.9,5432.6L5800.9,5432.6z"/>
		<path d="M5529.3,5006.4h-98.1c-15.1,0-30.2,11.3-30.2,30.2v433.8c-67.9-56.6-154.6-83-237.6-83c-71.7,0-135.8,18.9-188.6,49
			c-116.9,67.9-199.9,199.9-199.9,354.5s79.2,282.9,199.9,354.5c52.8,30.2,124.5,52.8,196.1,52.8c94.3,0,177.3-30.2,241.4-86.8v41.5
			c0,15.1,11.3,30.2,30.2,30.2H5567V5036.5C5555.7,5021.4,5544.4,5006.4,5529.3,5006.4z M5401.1,5938
			c-52.8,71.7-135.8,109.4-215,109.4c-150.9,0-256.5-116.9-256.5-256.5c0-135.8,98.1-256.5,248.9-256.5c94.3,0,173.5,49,222.5,109.4
			V5938H5401.1z"/>
		<path d="M6898.5,5402.4h-94.3c-15.1,0-30.2,15.1-30.2,30.2v41.5c-71.7-60.3-154.6-86.8-245.2-86.8c-71.7,0-135.8,18.9-188.6,49
			c-116.9,67.9-199.9,199.9-199.9,354.5s79.2,282.9,199.9,354.5c52.8,30.2,124.5,52.8,196.1,52.8c94.3,0,173.5-30.2,233.9-83v41.5
			c0,98.1-15.1,158.4-41.5,199.9c-37.7,56.6-105.6,90.5-188.6,90.5c-116.9,0-184.8-52.8-241.4-120.7l0,0c-11.3-7.5-26.4-7.5-37.7,0
			l-3.8,3.8l-90.5,83c49,79.2,177.3,181,377.2,181c154.6,0,271.6-71.7,335.7-192.4c30.2-60.3,45.3-139.6,45.3-256.5v-716.6
			C6928.6,5417.5,6917.3,5402.4,6898.5,5402.4z M6770.2,5938c-52.8,71.7-135.8,109.4-215,109.4c-150.9,0-256.5-116.9-256.5-256.5
			c0-135.8,98.1-256.5,248.9-256.5c94.3,0,173.5,49,222.5,109.4V5938H6770.2z"/>
		<path d="M2549.6,5794.7c0-230.1-158.4-407.4-373.4-407.4c-218.8,0-381,173.5-381,407.4s177.3,407.4,403.6,407.4
			c158.4,0,271.6-71.7,328.1-147.1l-86.8-83c-11.3-7.5-22.6-3.8-30.2,0c-3.8,3.8-7.5,7.5-7.5,7.5c-41.5,41.5-101.8,83-199.9,83
			c-135.8,0-241.4-105.6-252.7-233.9h569.5c15.1,0,30.2-11.3,30.2-26.4C2549.6,5798.4,2549.6,5794.7,2549.6,5794.7L2549.6,5794.7z
			 M1961.2,5692.8c26.4-101.8,116.9-169.7,218.8-169.7c94.3,0,181,67.9,203.7,169.7H1961.2z"/>
		<path d="M7864.1,5794.7c0-230.1-158.4-407.4-373.4-407.4c-218.8,0-381,173.5-381,407.4s177.3,407.4,403.6,407.4
			c158.4,0,271.6-71.7,328.1-147.1l-86.8-83c-11.3-7.5-22.6-3.8-30.2,0c-3.8,3.8-7.5,7.5-7.5,7.5c-41.5,41.5-101.8,83-199.9,83
			c-135.8,0-245.2-105.6-252.7-233.9h569.5c15.1,0,30.2-11.3,30.2-26.4l0,0l0,0C7864.1,5798.4,7864.1,5794.7,7864.1,5794.7
			L7864.1,5794.7z M7275.7,5692.8c26.4-101.8,116.9-169.7,218.8-169.7c94.3,0,181,67.9,203.7,169.7H7275.7z"/>
		<path d="M1531.2,5025.2c56.6,0,105.6,45.3,105.6,105.6c0,56.6-45.3,101.8-105.6,101.8c-56.6,0-101.8-45.3-101.8-101.8
			C1429.4,5070.5,1474.6,5025.2,1531.2,5025.2z"/>
		<path d="M1610.4,6247.3c0,105.6-15.1,169.7-49,218.8c-56.6,83-150.9,128.2-256.5,128.2c-33.9,0-71.7-3.8-94.3-11.3l26.4-116.9
			c3.8-15.1,18.9-26.4,33.9-22.6h30.2c45.3,0,94.3-18.9,120.7-56.6c22.6-26.4,30.2-67.9,30.2-139.6v-30.2V5425
			c0-15.1,11.3-30.2,30.2-30.2h98.1c15.1,0,30.2,15.1,30.2,30.2v784.5L1610.4,6247.3L1610.4,6247.3z"/>
		<path d="M3405.8,5523.1c-67.9-83-169.7-135.8-282.9-135.8s-192.4,52.8-233.9,90.5v-45.3c0-15.1-11.3-30.2-30.2-30.2h-90.5
			c-15.1,0-30.2,15.1-30.2,30.2V6153c0,15.1,15.1,30.2,30.2,30.2h98.1c15.1,0,30.2-15.1,30.2-30.2v-505.4
			c45.3-56.6,120.7-109.4,222.5-109.4c64.1,0,124.5,30.2,162.2,75.4c26.4,33.9,45.3,83,45.3,181v30.2V6153
			c0,15.1,11.3,30.2,30.2,30.2h98.1h30.2v-381C3481.2,5666.4,3454.8,5587.2,3405.8,5523.1z"/>
		<path d="M4111.1,5568.4L4111.1,5568.4C4111.1,5572.1,4111.1,5568.4,4111.1,5568.4L4111.1,5568.4z"/>
		<path d="M3707.5,5998.3L3707.5,5998.3L3707.5,5998.3C3711.3,5998.3,3711.3,5998.3,3707.5,5998.3z"/>
		<path d="M3643.4,6092.6c86.8,67.9,188.6,109.4,313.1,109.4c150.9,0,290.4-90.5,290.4-237.6c0-162.2-162.2-215-282.9-245.2
			c-79.2-18.9-139.6-37.7-139.6-90.5c0-60.3,64.1-98.1,139.6-98.1c52.8,0,101.8,18.9,143.3,45.3l0,0c15.1,7.5,33.9,3.8,41.5-7.5
			l41.5-56.6l3.8-3.8c11.3-15.1,11.3-30.2,0-41.5l-3.8-3.8c-60.3-41.5-135.8-67.9-233.9-67.9c-139.6,0-286.7,75.4-286.7,241.4
			c0,109.4,83,169.7,177.3,199.9c113.2,37.7,245.2,41.5,245.2,132c0,60.3-67.9,98.1-135.8,98.1c-67.9,0-139.6-22.6-203.7-67.9l0,0
			c-11.3-11.3-30.2-7.5-41.5,3.8L3643.4,6092.6z"/>
		<path d="M1218.1,5508c0-15.1-11.3-30.2-30.2-30.2H720.3V5606c0,15.1,15.1,26.4,30.2,26.4h301.7v298
			c-60.3,60.3-162.2,109.4-282.9,109.4c-248.9,0-437.5-177.3-437.5-437.5c0-248.9,184.8-437.5,418.7-437.5
			c113.2,0,222.5,45.3,294.2,109.4l0,0l0,0c11.3,11.3,26.4,11.3,37.7,0l0,0l0,0l71.7-67.9l0,0l0,0l0,0c7.5-11.3,11.3-26.4,3.8-37.7
			c0,0,0-3.8-3.8-3.8l0,0l0,0l0,0l0,0c-101.8-98.1-248.9-158.4-403.6-158.4c-331.9,0-584.6,260.3-584.6,595.9
			c0,343.2,256.5,595.9,599.7,595.9c177.3,0,350.8-90.5,448.8-215V5508H1218.1z"/>
	</g>
</g>
</svg>
