<?xml version="1.0" encoding="utf-8"?>
<!-- Generator: Adobe Illustrator 26.0.3, SVG Export Plug-In . SVG Version: 6.00 Build 0)  -->
<svg version="1.1" id="Layer_1" xmlns="http://www.w3.org/2000/svg" xmlns:xlink="http://www.w3.org/1999/xlink" x="0px" y="0px"
	 viewBox="0 0 841.9 595.3" style="enable-background:new 0 0 841.9 595.3;" xml:space="preserve">
<g>
	<path d="M450.4,276.9V291c0,3.9,0.7,6.7,2,8.3c1.3,1.6,3.4,2.5,6.3,2.5h4.4v7.5c-3.4,0-3.8,0-7.9,0c-3.7,0-6.7-1.4-9.3-4.1
		c-2.5-2.7-3.8-6.2-3.8-10.3v-18v-6.5v-7.2h8.2v7.2V276.9z"/>
	<path d="M310.4,256c0-2.2,1.8-4.1,4.1-4.1c2.2,0,4.1,1.8,4.1,4.1c0,2.2-1.8,4.1-4.1,4.1C312.2,260.1,310.4,258.2,310.4,256"/>
	<path d="M364.5,256c0-2.2,1.8-4.1,4.1-4.1c2.2,0,4.1,1.8,4.1,4.1c0,2.2-1.8,4.1-4.1,4.1C366.4,260.1,364.5,258.2,364.5,256"/>
	<path d="M419,256c0-2.2,1.8-4.1,4.1-4.1c2.2,0,4.1,1.8,4.1,4.1c0,2.2-1.8,4.1-4.1,4.1C420.8,260.1,419,258.2,419,256"/>
	<path d="M473.2,256c0-2.2,1.8-4.1,4.1-4.1c2.2,0,4.1,1.8,4.1,4.1c0,2.2-1.8,4.1-4.1,4.1C475,260.1,473.2,258.2,473.2,256"/>
	<path d="M526.4,256c0-2.2,1.8-4.1,4.1-4.1c2.2,0,4.1,1.8,4.1,4.1c0,2.2-1.8,4.1-4.1,4.1C528.2,260.1,526.4,258.2,526.4,256"/>
</g>
<polygon points="310.3,309.3 310.3,277.3 303.9,277.3 303.9,270.4 318.5,270.4 318.5,309.3 "/>
<g>
	<path d="M359.9,309.3v-18.9c0-4.9-0.7-8.4-2.2-10.3c-1.5-2-4-3-7.5-3c-1.9,0-3.8,0.6-5.9,1.7c-2,1.1-3.6,2.5-4.7,4.1v26.4h-8.2
		v-38.9h8.4l-0.2,6.6c2.7-4.5,7.1-6.8,13.3-6.8c10.1,0,15.2,6.2,15.2,18.5v20.6H359.9z"/>
	<path d="M382.7,276.9h-5.3v-6.4h5.3v-7.2h8.2v7.2h12.7v6.4h-12.7v14.1c0,3.9,0.7,6.7,2,8.3c1.3,1.6,3.4,2.5,6.3,2.5h4.4v7.5
		c-3.4,0-3.8,0-7.9,0c-3.7,0-6.7-1.4-9.3-4.1c-2.5-2.7-3.8-6.1-3.8-10.3V276.9z"/>
	<path d="M497.3,276.9h-5.3v-6.4h5.3v-7.2h8.2v7.2h12.7v6.4h-12.7v14.1c0,3.9,0.7,6.7,2,8.3c1.3,1.6,3.4,2.5,6.3,2.5h4.4v7.5
		c-3.4,0-3.8,0-7.9,0c-3.7,0-6.7-1.4-9.3-4.1c-2.5-2.7-3.8-6.1-3.8-10.3V276.9z"/>
</g>
<polygon points="418.9,309.3 418.9,277.3 412.5,277.3 412.5,270.4 427.1,270.4 427.1,309.3 "/>
<polygon points="473.1,309.3 473.1,277.3 466.8,277.3 466.8,270.4 481.3,270.4 481.3,309.3 "/>
<path d="M547.1,317.2c-1.1,2.9-3.3,5.4-6.7,7.3c-3.4,2-7.2,2.9-11.4,2.9v-7.4c3.4,0,6.3-0.8,8.8-2.4c2.4-1.6,3.6-3.6,3.6-5.9
	c0-2.5-0.4-5-1.3-7.5c-0.9-2.5-2-5.5-3.5-9.1l-9.8-24.8h8.4l10.8,28.4l9.6-28.4h8.4L547.1,317.2z"/>
</svg>
