<?xml version="1.0" encoding="utf-8"?>
<!-- Generator: Adobe Illustrator 26.0.3, SVG Export Plug-In . SVG Version: 6.00 Build 0)  -->
<svg version="1.1" id="Layer_1" xmlns="http://www.w3.org/2000/svg" xmlns:xlink="http://www.w3.org/1999/xlink" x="0px" y="0px"
	 viewBox="0 0 841.9 595.3" style="enable-background:new 0 0 841.9 595.3;" xml:space="preserve">
<style type="text/css">
	.st0{fill:#1D1D1B;}
</style>
<g>
	<g>
		<path class="st0" d="M340.3,292h6.6v12h-6.6v4h18v-4h-6.6v-12h6.6v-4h-18V292z"/>
		<path class="st0" d="M375.9,292h7.1v16h5v-16h7.1v-4h-19.2V292z"/>
		<path class="st0" d="M449,308h5v-7h8.6v7h5l0-8h-2.9c1.2-0.7,2.1-1.9,2.6-3.2c0.5-1.3,0.6-2.8,0.2-4.1c-0.4-1.4-1.2-2.5-2.3-3.4
			s-2.5-1.3-3.9-1.3H449V308z M460.3,297l-6.3,0v-5h6.3c0.3,0,0.6,0.1,1,0.2c0.3,0.1,0.6,0.3,0.8,0.5c0.2,0.2,0.4,0.5,0.5,0.8
			c0.1,0.3,0.2,0.6,0.2,1s-0.1,0.6-0.2,1c-0.1,0.3-0.3,0.6-0.5,0.8c-0.2,0.2-0.5,0.4-0.8,0.5C461,296.9,460.7,297,460.3,297
			L460.3,297z"/>
		<path class="st0" d="M430.8,304h-13.4v-4h10.8v-4h-10.8v-4h13.4v-4h-18.4v4h0v16h5h13.4V304z"/>
		<path class="st0" d="M497.4,288h-9.6l-5.2,20h4.6l1.7-6.4h7.5l1.7,6.4h4.6L497.4,288z M489.9,297.6l1.9-7.2h1.6l1.9,7.2H489.9z"/>
	</g>
</g>
</svg>
