<?xml version="1.0" encoding="utf-8"?>
<!-- Generator: Adobe Illustrator 26.0.3, SVG Export Plug-In . SVG Version: 6.00 Build 0)  -->
<svg version="1.1" id="Layer_1" xmlns="http://www.w3.org/2000/svg" xmlns:xlink="http://www.w3.org/1999/xlink" x="0px" y="0px"
	 viewBox="0 0 841.9 595.3" style="enable-background:new 0 0 841.9 595.3;" xml:space="preserve">
<g>
	<path d="M376,340.1h-5.6v-4.7h5.6c3.4,0,4.5-1.2,4.5-4.5V302h-3.8v-4.7h8.5v33.6C385.3,336.8,382,340.1,376,340.1z"/>
	<path d="M558,325.1h-4.7v-18.6c0-3.4-1.2-4.5-4.5-4.5h-11.5v23.1h-4.7v-27.8h16.2c6,0,9.2,3.3,9.2,9.2V325.1z"/>
	<path d="M435.7,326.5c-1.4,0-2.9-0.3-3.8-1c-4.3-2.9-12.3-10.6-12.3-10.6l0-17.6h4.7l0,15.6c1.9,1.8,7,6.6,10.2,8.7
		c0.4,0.2,1.8,0.2,2.3,0c3.1-2.1,8.3-6.9,10.2-8.7l0-12.6l4.7-5l0,19.6c0,0-8.1,7.9-12.4,10.7C438.4,326.2,437,326.5,435.7,326.5z"
		/>
	<path d="M415.5,325.1h-16.7c-6,0-9.2-3.3-9.2-9.2v-9.3c0-6,3.3-9.2,9.2-9.2h16.7V325.1z M398.8,302c-3.4,0-4.5,1.2-4.5,4.5v9.3
		c0,3.4,1.2,4.5,4.5,4.5h12V302H398.8z"/>
	<path d="M481.7,325.1h-16.7c-6,0-9.2-3.3-9.2-9.2v-9.3c0-6,3.3-9.2,9.2-9.2h16.7V325.1z M465.1,302c-3.4,0-4.5,1.2-4.5,4.5v9.3
		c0,3.4,1.2,4.5,4.5,4.5h12V302H465.1z"/>
	<rect x="380.7" y="289" width="4.5" height="4.4"/>
	<g>
		<rect x="519.8" y="289" width="4.5" height="4.4"/>
		<polygon points="524.4,320.4 524.4,297.2 516.7,297.2 516.7,301.9 519.7,301.9 519.7,320.4 515.9,320.4 515.9,325.1 528.2,325.1 
			528.2,320.4 		"/>
	</g>
	<path d="M512.7,310c0,0,0-1.8-0.8-3c-1.8-2.6-6.1-6.7-8.4-8.8c2-2.2,3.7-4.1,4.3-5c0.7-1.1,0.7-2.6,0.7-2.6v-3.2
		c0-6-3.2-9.2-9.2-9.2h-12.5v46.9h16.7c6,0,9.2-3.3,9.2-9.2L512.7,310z M503.8,287.4v2.8c0,0.2,0,0.3-0.1,0.4
		c-1.3,1.8-7.1,7.9-12.3,13.2v-21h7.8C502.6,282.9,503.8,284.1,503.8,287.4z M503.5,320.4h-12v-9.8c1.6-1.6,5.3-5.3,8.8-9
		c2.4,2.2,6.2,5.8,7.6,7.9c0.1,0.2,0.1,0.4,0.1,1.3l0,5C508,319.2,506.8,320.4,503.5,320.4z"/>
</g>
<g>
	<path d="M406.7,334.9h-2v-1h5.2v1h-2v5.2h-1.1V334.9z"/>
	<path d="M410.5,333.9h1.1v2.2c0,0.2,0,0.4,0,0.4h0c0.2-0.4,0.8-0.9,1.5-0.9c1,0,1.6,0.5,1.6,1.7v2.9h-1.1v-2.6
		c0-0.5-0.1-0.9-0.7-0.9c-0.6,0-1,0.4-1.2,0.9c-0.1,0.2-0.1,0.4-0.1,0.6v2.1h-1.1V333.9z"/>
	<path d="M417.9,335.6c1.3,0,2,0.9,2,2.1c0,0.1,0,0.4,0,0.4h-3.1c0.1,0.8,0.7,1.2,1.3,1.2c0.7,0,1.3-0.5,1.3-0.5l0.4,0.8
		c0,0-0.7,0.6-1.8,0.6c-1.5,0-2.4-1.1-2.4-2.3C415.6,336.5,416.5,335.6,417.9,335.6z M418.7,337.4c0-0.6-0.4-0.9-0.9-0.9
		c-0.6,0-1,0.4-1.1,0.9H418.7z"/>
	<path d="M423.1,333.9h1.1l2.4,3.6c0.2,0.4,0.5,1,0.5,1h0c0,0-0.1-0.6-0.1-1v-3.6h1.1v6.2H427l-2.4-3.6c-0.2-0.4-0.5-1-0.5-1h0
		c0,0,0.1,0.6,0.1,1v3.6h-1.1V333.9z"/>
	<path d="M431.7,335.6c1.4,0,2.5,1,2.5,2.3c0,1.4-1.1,2.3-2.5,2.3c-1.4,0-2.5-1-2.5-2.3C429.2,336.6,430.3,335.6,431.7,335.6z
		 M431.7,339.3c0.7,0,1.3-0.6,1.3-1.4c0-0.8-0.6-1.4-1.3-1.4c-0.7,0-1.3,0.6-1.3,1.4C430.4,338.8,431,339.3,431.7,339.3z"/>
	<path d="M435,335.7h1.1v0.8c0,0.2,0,0.3,0,0.3h0c0.2-0.6,0.7-1.1,1.4-1.1c0.1,0,0.2,0,0.2,0v1.1c0,0-0.1,0-0.3,0
		c-0.5,0-1,0.3-1.2,0.9c-0.1,0.2-0.1,0.5-0.1,0.7v1.8H435V335.7z"/>
	<path d="M438,335.7h1.2l0.8,2.9c0.1,0.2,0.1,0.5,0.1,0.5h0c0,0,0-0.2,0.1-0.5l0.8-2.9h1l0.8,2.9c0.1,0.2,0.1,0.5,0.1,0.5h0
		c0,0,0-0.2,0.1-0.5l0.8-2.9h1.2l-1.4,4.5h-1.2l-0.8-2.6c-0.1-0.2-0.1-0.5-0.1-0.5h0c0,0,0,0.2-0.1,0.5l-0.8,2.6h-1.2L438,335.7z"/>
	<path d="M447.6,335.6c1.3,0,2,0.9,2,2.1c0,0.1,0,0.4,0,0.4h-3.1c0.1,0.8,0.7,1.2,1.3,1.2c0.7,0,1.3-0.5,1.3-0.5l0.4,0.8
		c0,0-0.7,0.6-1.8,0.6c-1.5,0-2.4-1.1-2.4-2.3C445.4,336.5,446.3,335.6,447.6,335.6z M448.5,337.4c0-0.6-0.4-0.9-0.9-0.9
		c-0.6,0-1,0.4-1.1,0.9H448.5z"/>
	<path d="M452.2,341c0.7,0,1.3-0.3,1.3-1.1v-0.3c0-0.1,0-0.2,0-0.2h0c-0.3,0.4-0.6,0.6-1.2,0.6c-1.3,0-2-1-2-2.3
		c0-1.2,0.7-2.2,2-2.2c1,0,1.3,0.6,1.3,0.6h0c0,0,0-0.1,0-0.1v-0.3h1v4.2c0,1.5-1.2,2.1-2.4,2.1c-0.6,0-1.2-0.2-1.6-0.4l0.3-0.9
		C451,340.8,451.6,341,452.2,341z M453.5,337.8c0-1-0.5-1.3-1.1-1.3c-0.7,0-1.1,0.5-1.1,1.2c0,0.8,0.4,1.4,1.1,1.4
		C453,339.1,453.5,338.8,453.5,337.8z"/>
	<path d="M455.8,333.9h1.1v1h-1.1V333.9z M455.8,335.7h1.1v4.5h-1.1V335.7z"/>
	<path d="M460.5,337.3h0.1v-0.1c0-0.6-0.4-0.8-0.9-0.8c-0.6,0-1.2,0.4-1.2,0.4l-0.4-0.8c0,0,0.7-0.6,1.8-0.6c1.2,0,1.9,0.6,1.9,1.8
		v2.8h-1v-0.4c0-0.2,0-0.3,0-0.3h0c0,0-0.3,0.8-1.4,0.8c-0.8,0-1.5-0.5-1.5-1.4C457.8,337.4,459.7,337.3,460.5,337.3z M459.6,339.4
		c0.6,0,1-0.6,1-1.2v-0.1h-0.2c-0.6,0-1.5,0.1-1.5,0.7C458.9,339.1,459.2,339.4,459.6,339.4z"/>
	<path d="M462.9,335.7h1.1v0.5c0,0.2,0,0.3,0,0.3h0c0.2-0.4,0.7-0.9,1.6-0.9c1,0,1.6,0.5,1.6,1.7v2.9H466v-2.6
		c0-0.5-0.1-0.9-0.7-0.9c-0.6,0-1,0.4-1.2,0.9c-0.1,0.2-0.1,0.4-0.1,0.6v2.1h-1.1V335.7z"/>
	<path d="M470,338h1.1v0.3c0,0.7,0.4,1,0.8,1c0.4,0,0.8-0.3,0.8-0.9v-3.4h-1.6v-1h2.7v4.4c0,1.4-1,1.9-1.9,1.9c-1,0-1.9-0.6-1.9-1.9
		V338z"/>
	<path d="M477.4,337.3h0.1v-0.1c0-0.6-0.4-0.8-0.9-0.8c-0.6,0-1.2,0.4-1.2,0.4l-0.4-0.8c0,0,0.7-0.6,1.8-0.6c1.2,0,1.9,0.6,1.9,1.8
		v2.8h-1v-0.4c0-0.2,0-0.3,0-0.3h0c0,0-0.3,0.8-1.4,0.8c-0.8,0-1.5-0.5-1.5-1.4C474.8,337.4,476.7,337.3,477.4,337.3z M476.6,339.4
		c0.6,0,1-0.6,1-1.2v-0.1h-0.2c-0.6,0-1.5,0.1-1.5,0.7C475.9,339.1,476.1,339.4,476.6,339.4z"/>
	<path d="M479.2,335.7h1.2l0.9,2.8c0.1,0.3,0.1,0.7,0.2,0.7h0c0,0,0.1-0.4,0.2-0.7l0.9-2.8h1.2l-1.6,4.5h-1.3L479.2,335.7z"/>
	<path d="M486.7,337.3h0.1v-0.1c0-0.6-0.4-0.8-0.9-0.8c-0.6,0-1.2,0.4-1.2,0.4l-0.4-0.8c0,0,0.7-0.6,1.8-0.6c1.2,0,1.9,0.6,1.9,1.8
		v2.8h-1v-0.4c0-0.2,0-0.3,0-0.3h0c0,0-0.3,0.8-1.4,0.8c-0.8,0-1.5-0.5-1.5-1.4C484,337.4,485.9,337.3,486.7,337.3z M485.8,339.4
		c0.6,0,1-0.6,1-1.2v-0.1h-0.2c-0.6,0-1.5,0.1-1.5,0.7C485.1,339.1,485.4,339.4,485.8,339.4z"/>
	<path d="M491.3,333.9h1.1v4c0,0.8,0.5,1.3,1.4,1.3c0.8,0,1.4-0.5,1.4-1.3v-4h1.1v4c0,1.4-1,2.3-2.5,2.3c-1.5,0-2.5-0.9-2.5-2.3
		V333.9z"/>
	<path d="M497.8,338.8c0,0,0.5,0.5,1.2,0.5c0.3,0,0.6-0.1,0.6-0.4c0-0.7-2.2-0.6-2.2-2c0-0.8,0.7-1.3,1.7-1.3c1,0,1.5,0.5,1.5,0.5
		l-0.4,0.8c0,0-0.4-0.4-1.1-0.4c-0.3,0-0.6,0.1-0.6,0.4c0,0.6,2.2,0.6,2.2,2c0,0.7-0.6,1.3-1.7,1.3c-1.1,0-1.7-0.7-1.7-0.7
		L497.8,338.8z"/>
	<path d="M503.6,335.6c1.3,0,2,0.9,2,2.1c0,0.1,0,0.4,0,0.4h-3.1c0.1,0.8,0.7,1.2,1.3,1.2c0.7,0,1.3-0.5,1.3-0.5l0.4,0.8
		c0,0-0.7,0.6-1.8,0.6c-1.5,0-2.4-1.1-2.4-2.3C501.3,336.5,502.2,335.6,503.6,335.6z M504.4,337.4c0-0.6-0.4-0.9-0.9-0.9
		c-0.6,0-1,0.4-1.1,0.9H504.4z"/>
	<path d="M506.5,335.7h1.1v0.8c0,0.2,0,0.3,0,0.3h0c0.2-0.6,0.7-1.1,1.4-1.1c0.1,0,0.2,0,0.2,0v1.1c0,0-0.1,0-0.3,0
		c-0.5,0-1,0.3-1.2,0.9c-0.1,0.2-0.1,0.5-0.1,0.7v1.8h-1.1V335.7z"/>
	<path d="M515,333.8c1.5,0,2.3,0.8,2.3,0.8l-0.6,0.8c0,0-0.7-0.6-1.7-0.6c-1.4,0-2.1,1-2.1,2.1c0,1.3,0.9,2.2,2.1,2.2
		c0.9,0,1.6-0.6,1.6-0.6v-0.7h-1v-1h2v3.3h-1v-0.3c0-0.1,0-0.3,0-0.3h0c0,0-0.6,0.7-1.8,0.7c-1.6,0-3-1.3-3-3.2
		C511.8,335.2,513.2,333.8,515,333.8z"/>
	<path d="M518.7,335.7h1.1v0.8c0,0.2,0,0.3,0,0.3h0c0.2-0.6,0.7-1.1,1.4-1.1c0.1,0,0.2,0,0.2,0v1.1c0,0-0.1,0-0.3,0
		c-0.5,0-1,0.3-1.2,0.9c-0.1,0.2-0.1,0.5-0.1,0.7v1.8h-1.1V335.7z"/>
	<path d="M524.3,335.6c1.4,0,2.5,1,2.5,2.3c0,1.4-1.1,2.3-2.5,2.3c-1.4,0-2.5-1-2.5-2.3C521.8,336.6,522.9,335.6,524.3,335.6z
		 M524.3,339.3c0.7,0,1.3-0.6,1.3-1.4c0-0.8-0.6-1.4-1.3-1.4c-0.7,0-1.3,0.6-1.3,1.4C522.9,338.8,523.6,339.3,524.3,339.3z"/>
	<path d="M527.6,335.7h1.1v2.6c0,0.5,0.1,0.9,0.7,0.9c0.8,0,1.3-0.7,1.3-1.5v-2h1.1v4.5h-1.1v-0.5c0-0.2,0-0.3,0-0.3h0
		c-0.2,0.5-0.8,0.9-1.6,0.9c-1,0-1.6-0.5-1.6-1.7V335.7z"/>
	<path d="M533,335.7h1v0.3c0,0.2,0,0.3,0,0.3h0c0,0,0.4-0.7,1.4-0.7c1.2,0,2,1,2,2.3c0,1.4-0.9,2.3-2,2.3c-0.9,0-1.3-0.6-1.3-0.6h0
		c0,0,0,0.2,0,0.4v1.9H533V335.7z M535.2,339.3c0.6,0,1.1-0.5,1.1-1.4c0-0.8-0.5-1.4-1.1-1.4c-0.6,0-1.1,0.4-1.1,1.4
		C534,338.6,534.4,339.3,535.2,339.3z"/>
</g>
<g>
	<g>
		<path d="M331.1,274.1C331.1,274.1,331.1,274.1,331.1,274.1C331.1,274.1,331.1,274.1,331.1,274.1L331.1,274.1z"/>
		<path d="M331.1,274.1C331.1,274.1,331.1,274.1,331.1,274.1C331.1,274.1,331.1,274.1,331.1,274.1L331.1,274.1z"/>
		<path d="M331.1,274.1C331.1,274.1,331.1,274.1,331.1,274.1C331.1,274.1,331.1,274.1,331.1,274.1L331.1,274.1z"/>
	</g>
</g>
<path d="M358.6,286.2c-0.5,2.8-0.4,6.7-0.4,9.5c-2-0.3-4.2-0.1-6.8,0.9c-1.1,0.5-1.7,1.5-1.7,2.3c0.1,2.3,2.1,2.6,2.1,2.6
	c-0.1,0.1-2.5,1-1.4,3.6c0.3,0.7,1.3,1.4,2,1.6c-0.1,0.1-0.1,0.3-0.1,0.4c-0.4,1.6,0.5,3.1,2,3.6c1,0.3,2,0.5,3,0.6l0.8,6.1
	l-14.1-4.7c-1-4.9-2.3-9.8-3.9-14.7c0.6,0.2,1.2,0.3,1.7,0.5c-1.4-4.5-3.2-9.2-5.3-14.1c4.2-1.1,12.6-5,16.8-18
	c0,0-12.3,10.5-21.2,8.1c-2.7-5.7-5.6-11.5-8.6-17c0.3-0.4,0.5-0.9,0.5-1.5c0-1.3-1.1-2.4-2.4-2.4s-2.4,1.1-2.4,2.4
	c0,0.6,0.2,1.1,0.6,1.5c-3.1,6-6.1,12.4-9,18.6c-8.1,1.1-18.4-7.7-18.4-7.7c3.6,11.1,10.6,14.9,14.7,16.2c-2,4.8-3.9,9.4-5.4,13.6
	c0.5-0.2,1-0.4,1.4-0.5c-0.6,1.6-1.1,3.2-1.6,4.8c-2.1,2.2-3.3,4.7-3.8,7.3l-4.5,2.9l-6.2,4c-1.2,0.8-2.1,2-2.5,3.5v0.1
	c-0.4,1.7-0.1,3.2,1,4.4h0.1c4.1,4.9,5,7.5,6.5,13.4c0,0,0.1,2,0.7,2.7l3.3-3.6c0.3-3.2,2.7-16.8,3.1-18.4c0.2,0.4,0.4,0.7,0.7,1.1
	c0.3,0.5,0.7,0.9,1.1,1.3c0.2,0.2,0.4,0.5,0.7,0.7c0.6,0.5,1.2,1,1.9,1.5c2.6,1.8,5.5,2.8,8.8,2.9c1.1,0.1,2.2,0,3.3-0.1
	c4.6-0.5,8.3-2.4,11.3-5.5l0.5-0.6l0.8-0.9l0.3-0.4c0.5-0.8,0.9-1.5,1.3-2.3c0.2-0.3,0.3-0.7,0.4-1c0.4-0.9,0.6-1.8,0.7-2.8v-0.2
	c0.1-0.3,0.1-0.7,0.1-1c0.4,0.1,0.9,0.2,1.4,0.3c0.2,0.1,0.4,0.1,0.6,0.2c0.3,0.1,0.7,0.2,1.1,0.4c0.1,0,0.1,0,0.2,0.1
	c1,0.4,2,0.9,3.2,1.5c0.1,0,0.1,0.1,0.2,0.1c1.1,0.6,2.1,1.1,2.8,1.5h0c0.8,0.4,1.1,0.7,1.3,0.9c0.4,2.2,2,13.8,2.3,15.9l3.1,2.1
	c-0.2-1.5-2-14.8-2.2-16.4l15.5,4.6c1.3,0.2,2.1,0.1,2.8-0.5c0.6-0.8,0.7-1.7,0.3-3.2l-1.4-8.5c0.1,0,0.3-0.1,0.4-0.1
	c0.7-0.3,1.3-0.6,1.7-1.3c0.4-0.6,0.5-1.6,0.3-2.3c-0.1-0.2-0.1-0.3-0.2-0.5c0.3-0.4,0.8-1.3,0.9-1.7c0.1-0.6-0.1-1.6-0.3-2.1
	c0.5-0.4,0.7-1.6,0.7-2.2c0-1.5-1.3-2.5-2.2-3c0.4-3.5,2.8-5.7,3.8-9.1C369,282.4,359.6,280.3,358.6,286.2z M297.7,316.4
	c-0.6,2.2-1.1,4.5-1.5,6.7c-0.7,0.5-1.5,0.8-2.3,0.7l-4.7-2.1l-0.2-0.2l0.1-0.1l8.5-5V316.4z M337.9,293.7c0.4,0,0.8,0.3,0.8,0.8
	c0,0.4-0.3,0.8-0.8,0.8c-0.4,0-0.8-0.3-0.8-0.8C337.2,294.1,337.5,293.7,337.9,293.7z M333.1,292.5c0.5,0,0.9,0.4,0.9,0.9
	s-0.4,0.9-0.9,0.9s-0.9-0.4-0.9-0.9S332.6,292.5,333.1,292.5z M327.7,291.5c0.6,0,1,0.5,1,1s-0.5,1-1,1s-1-0.5-1-1
	S327.1,291.5,327.7,291.5z M322.8,292.1c0,0.6-0.5,1.2-1.2,1.2c-0.6,0-1.2-0.5-1.2-1.2s0.5-1.2,1.2-1.2
	C322.3,290.9,322.8,291.4,322.8,292.1z M320.1,261.8c0.4,0,0.8,0.3,0.8,0.8s-0.3,0.8-0.8,0.8s-0.8-0.3-0.8-0.8
	S319.6,261.8,320.1,261.8z M318.7,266.6c0.5,0,0.9,0.4,0.9,0.9s-0.4,0.9-0.9,0.9s-0.9-0.4-0.9-0.9S318.2,266.6,318.7,266.6z
	 M317.3,272.1c0.6,0,1,0.5,1,1s-0.5,1-1,1s-1-0.5-1-1S316.7,272.1,317.3,272.1z M316.4,278.2c0.6,0,1.2,0.5,1.2,1.2
	s-0.5,1.2-1.2,1.2c-0.6,0-1.2-0.5-1.2-1.2S315.8,278.2,316.4,278.2z M315.7,284.5c0.7,0,1.2,0.5,1.2,1.2c0,0.7-0.5,1.2-1.2,1.2
	c-0.7,0-1.2-0.5-1.2-1.2C314.4,285,315,284.5,315.7,284.5z M315.4,290.7c0.7,0,1.3,0.6,1.3,1.3s-0.6,1.3-1.3,1.3
	c-0.7,0-1.3-0.6-1.3-1.3S314.7,290.7,315.4,290.7z M310,291.8c0.6,0,1.2,0.5,1.2,1.2c0,0.6-0.5,1.2-1.2,1.2s-1.2-0.5-1.2-1.2
	C308.9,292.3,309.4,291.8,310,291.8z M305.4,293.2c0.6,0,1,0.5,1,1s-0.5,1-1,1s-1-0.5-1-1S304.9,293.2,305.4,293.2z M316.6,323.7
	c-8,1.4-15.4-2.9-16.6-9.6c-1.2-6.7,4.3-13.3,12.4-14.7c8-1.4,15.4,2.9,16.6,9.6C330.1,315.7,324.6,322.3,316.6,323.7z"/>
<ellipse transform="matrix(0.921 -0.3895 0.3895 0.921 -94.4646 144.3206)" cx="308.7" cy="305.1" rx="4.9" ry="4.1"/>
</svg>
