<?xml version="1.0" encoding="utf-8"?>
<!-- Generator: Adobe Illustrator 26.0.3, SVG Export Plug-In . SVG Version: 6.00 Build 0)  -->
<svg version="1.1" id="Lager_1" xmlns="http://www.w3.org/2000/svg" xmlns:xlink="http://www.w3.org/1999/xlink" x="0px" y="0px"
	 viewBox="0 0 841.9 595.3" style="enable-background:new 0 0 841.9 595.3;" xml:space="preserve">
<g>
	<path d="M324.3,283.2h-6.5c-2,0-2.3,0.2-4.6,2.6c-1.2,1.2-20.7,20.8-20.7,20.8v-32.7c0-1.1-0.6-1.7-1.7-1.7H281
		c-1.1,0-1.7,0.6-1.7,1.7v4.4c0,1.1,0.6,1.7,1.7,1.7h3.6v40.4H281c-1.1,0-1.7,0.6-1.7,1.7v4.4c0,1.1,0.6,1.7,1.7,1.7h15.1
		c1.1,0,1.7-0.6,1.7-1.7v-4.4c0-1.1-0.6-1.7-1.7-1.7h-3.6v-3.3l7.8-7.9l13.7,16.7c1.8,2.3,1.8,2.3,4.4,2.3h5.9
		c1.1,0,1.7-0.6,1.7-1.7v-4.4c0-1.1-0.6-1.7-1.7-1.7h-4.9l-13.6-16.8l12.4-12.6h6c1.1,0,1.7-0.6,1.7-1.6v-4.5
		C326,283.8,325.4,283.2,324.3,283.2z"/>
	<path d="M377.7,320.3h-3.6v-19.3c0-11.5-7.2-18.9-18.4-18.9c-5.1,0-9.5,1.6-12.9,4.7v-2c0-1.1-0.6-1.7-1.7-1.7h-9.8
		c-1.1,0-1.7,0.6-1.7,1.7v4.4c0,1.1,0.6,1.7,1.7,1.7h3.6v29.4h-3.6c-1.1,0-1.7,0.6-1.7,1.7v4.4c0,1.1,0.6,1.7,1.7,1.7h15.1
		c1.1,0,1.7-0.6,1.7-1.7v-4.4c0-1.1-0.6-1.7-1.7-1.7h-3.6v-17.9c0-7.3,5.2-12.7,12.3-12.7c6.9,0,11.1,4.5,11.1,12v18.5h-3.6
		c-1.1,0-1.7,0.6-1.7,1.7v4.4c0,1.1,0.6,1.7,1.7,1.7h15.1c1.1,0,1.7-0.6,1.7-1.7v-4.4C379.4,320.9,378.8,320.3,377.7,320.3z"/>
	<path d="M402.1,282.3c-12.9,0-23,10.3-23,23.5c0,13,10,23.3,22.9,23.3c13,0,23.1-10.3,23.1-23.5C425.1,292.5,415,282.3,402.1,282.3
		z M402.1,321.4c-8.3,0-14.8-7-14.8-15.8c0-8.9,6.3-15.6,14.6-15.6c8.3,0,14.9,7,14.9,15.8C416.9,314.7,410.5,321.4,402.1,321.4z"/>
	<path d="M492,283.2h-15.5c-1.1,0-1.7,0.6-1.7,1.7v4.4c0,1.1,0.6,1.7,1.7,1.7h3.5l-7.4,23.8l-10.4-30.4c-0.3-0.8-1-1.4-1.9-1.4h-3.1
		c-0.9,0-1.6,0.5-1.9,1.4L445,314.8l-7.4-23.8h3.5c1.1,0,1.7-0.6,1.7-1.7v-4.4c0-1.1-0.6-1.7-1.7-1.7h-15.7c-1.1,0-1.7,0.6-1.7,1.7
		v4.4c0,1.1,0.6,1.7,1.7,1.7h3.7l12.3,36c0.3,0.8,1,1.3,1.9,1.3h3.3c0.9,0,1.6-0.5,1.9-1.4l10.3-29.5L469,327c0.3,0.8,1,1.4,1.9,1.4
		h3.3c0.8,0,1.6-0.5,1.9-1.3l12.3-36h3.7c1.1,0,1.7-0.6,1.7-1.7v-4.4C493.7,283.8,493.1,283.2,492,283.2z"/>
	<path d="M513.9,320.3h-3.6v-35.5c0-1.1-0.6-1.7-1.7-1.7h-9.9c-1.1,0-1.7,0.6-1.7,1.7v4.4c0,1.1,0.6,1.7,1.7,1.7h3.6v29.4h-6.5
		c-1.1,0-1.7,0.6-1.7,1.7v4.4c0,1.1,0.6,1.7,1.7,1.7h18.1c1.1,0,1.7-0.6,1.7-1.7v-4.4C515.6,320.9,515,320.3,513.9,320.3z"/>
	<path d="M548.9,305.3h-4.3c-1.1,0-1.7,0.6-1.7,1.7v8.3c0,2.9-2,5.8-5.5,5.8c-4.3,0-6.1-1.8-6.1-6V291h10.5c1.1,0,1.7-0.6,1.7-1.7
		v-4.4c0-1.1-0.6-1.7-1.7-1.7h-10.5v-9.4c0-1.1-0.6-1.7-1.7-1.7H525c-1.1,0-1.7,0.6-1.7,1.7v9.4h-4.8c-1.1,0-1.7,0.6-1.7,1.7v4.4
		c0,1.1,0.6,1.7,1.7,1.7h4.8v24.6c0,8.1,5.3,13.3,13.4,13.3c8.4,0,13.9-5,13.9-12.9v-9C550.6,305.9,550,305.3,548.9,305.3z"/>
	<circle cx="506.2" cy="272.5" r="5"/>
</g>
</svg>
