<?xml version="1.0" encoding="utf-8"?>
<!-- Generator: Adobe Illustrator 26.0.3, SVG Export Plug-In . SVG Version: 6.00 Build 0)  -->
<svg version="1.1" id="Layer_1" xmlns="http://www.w3.org/2000/svg" xmlns:xlink="http://www.w3.org/1999/xlink" x="0px" y="0px"
	 viewBox="0 0 648 216" style="enable-background:new 0 0 648 216;" xml:space="preserve">
<style type="text/css">
	.Arched_x0020_Green{fill:url(#SVGID_1_);stroke:#FFFFFF;stroke-width:0.25;stroke-miterlimit:1;}
</style>
<linearGradient id="SVGID_1_" gradientUnits="userSpaceOnUse" x1="0" y1="288" x2="0.7071" y2="287.2929">
	<stop  offset="0" style="stop-color:#1EAB4B"/>
	<stop  offset="0.9831" style="stop-color:#19361A"/>
</linearGradient>
<g>
	<g>
		<path d="M90.1,73.3V100h0.2l13.5-26.7h19.3l-17.6,30.4l19.7,39.2h-20.7l-10.6-24.3l-3.8,5.9v18.4H72V73.3H90.1z"/>
		<path d="M126.1,91.5c0.8-4.6,2.2-8.3,4.2-11.2c2-2.9,4.5-5,7.7-6.3c3.2-1.3,7.1-2,11.7-2c4.6,0,8.5,0.7,11.7,2
			c3.2,1.3,5.8,3.4,7.7,6.3c2,2.9,3.3,6.6,4.2,11.2c0.8,4.6,1.3,10.1,1.3,16.6c0,6.5-0.4,12-1.3,16.6c-0.8,4.6-2.2,8.3-4.2,11.2
			c-2,2.9-4.5,5-7.7,6.2c-3.2,1.2-7.1,1.9-11.7,1.9c-4.6,0-8.5-0.6-11.7-1.9c-3.2-1.2-5.8-3.3-7.7-6.2c-2-2.9-3.4-6.6-4.2-11.2
			c-0.8-4.6-1.3-10.1-1.3-16.6C124.9,101.6,125.3,96,126.1,91.5z M143.8,119.8c0.1,3.1,0.4,5.5,0.8,7.4c0.4,1.8,1,3.1,1.9,3.8
			c0.8,0.7,1.9,1.1,3.3,1.1c1.4,0,2.5-0.4,3.3-1.1c0.8-0.7,1.4-2,1.9-3.8c0.4-1.8,0.7-4.3,0.8-7.4c0.1-3.1,0.2-7,0.2-11.7
			c0-4.7-0.1-8.6-0.2-11.7c-0.1-3.1-0.4-5.5-0.8-7.4c-0.4-1.8-1-3.1-1.9-3.8c-0.8-0.7-1.9-1.1-3.3-1.1c-1.4,0-2.5,0.4-3.3,1.1
			c-0.8,0.7-1.4,2-1.9,3.8c-0.4,1.8-0.7,4.3-0.8,7.4c-0.1,3.1-0.2,7-0.2,11.7C143.6,112.8,143.7,116.7,143.8,119.8z"/>
		<path d="M207.5,73.3c5.3,0,9.4,1,12.3,2.9c2.9,1.9,5.1,4.5,6.6,7.7c1.5,3.2,2.4,6.9,2.7,11.1c0.3,4.2,0.5,8.6,0.5,13.1
			c0,4.6-0.2,8.9-0.5,13.1c-0.3,4.2-1.2,7.9-2.7,11.1c-1.5,3.2-3.7,5.8-6.6,7.7c-2.9,1.9-7,2.9-12.3,2.9h-26.3V73.3H207.5z
			 M202.9,129.9c1.8,0,3.2-0.2,4.2-0.7c1-0.5,1.8-1.5,2.4-3.1c0.6-1.6,0.9-3.8,1.1-6.6c0.2-2.9,0.2-6.6,0.2-11.3
			c0-4.7-0.1-8.5-0.2-11.3c-0.2-2.9-0.5-5.1-1.1-6.6c-0.6-1.6-1.4-2.6-2.4-3.1c-1-0.5-2.4-0.7-4.2-0.7h-3.6v43.5H202.9z"/>
		<path d="M278.4,73.3v14.8h-23.1V100H277v14.2h-21.7v13.9h24v14.8h-42.1V73.3H278.4z"/>
		<path d="M311.2,73.3l7.3,41.3h0.2l7.3-41.3h26v69.7h-17V91h-0.2l-9.7,51.9h-13.1L302.4,91h-0.2v51.9h-17V73.3H311.2z"/>
		<path d="M394.1,73.3l17,69.7h-19.3l-1.9-12.2h-14.4l-1.9,12.2h-19l16.7-69.7H394.1z M382.6,87.5l-5,29.6h10.1l-5-29.6H382.6z"/>
		<path d="M431.6,73.3V100h0.2l13.5-26.7h19.3L447,103.7l19.7,39.2H446l-10.6-24.3l-3.8,5.9v18.4h-18.1V73.3H431.6z"/>
		<path d="M509.6,73.3v14.8h-23.1V100h21.7v14.2h-21.7v13.9h24v14.8h-42.1V73.3H509.6z"/>
		<path d="M545.5,73.3c3.4,0,6.4,0.5,8.8,1.4c2.4,0.9,4.4,2.2,5.9,3.9c1.5,1.7,2.6,3.6,3.3,5.9c0.7,2.3,1,4.7,1,7.4
			c0,4.7-0.9,8.5-2.8,11.3c-1.9,2.9-4.9,4.6-9,5.3v0.2c4.3,0.4,7.3,1.9,8.9,4.6c1.6,2.7,2.4,6.3,2.4,11v6c0,0.9,0,1.9,0,2.8
			c0,1,0,1.9,0.1,2.8c0.1,0.9,0.2,1.7,0.3,2.4c0.1,0.7,0.3,1.3,0.5,1.7c0.3,0.4,0.5,0.8,0.8,1.1c0.3,0.4,0.7,0.7,1.3,1v1h-19.2
			c-0.5-0.9-0.8-2-1-3.2c-0.2-1.2-0.4-2.5-0.5-3.7c-0.1-1.2-0.2-2.4-0.2-3.6c0-1.1,0-2.1,0-2.8V125c0-2-0.1-3.6-0.3-4.9
			c-0.2-1.3-0.5-2.3-1-3.1c-0.5-0.7-1.1-1.3-1.9-1.6c-0.7-0.3-1.7-0.4-2.8-0.4h-4.8v27.9h-18.1V73.3H545.5z M538.9,102.7
			c2.6,0,4.5-0.8,5.8-2.3c1.2-1.5,1.9-3.5,1.9-6c0-2.9-0.6-5-1.8-6.2c-1.2-1.2-3.2-1.9-5.9-1.9h-3.5v16.4H538.9z"/>
	</g>
	<g>
		<path d="M564.5,70.9c0.3-0.7,0.8-1.4,1.3-1.9c0.5-0.5,1.2-0.9,1.9-1.3c0.7-0.3,1.5-0.5,2.3-0.5c0.8,0,1.6,0.2,2.3,0.5
			c0.7,0.3,1.4,0.7,1.9,1.3c0.5,0.5,1,1.2,1.3,1.9c0.3,0.7,0.5,1.5,0.5,2.3c0,0.9-0.2,1.7-0.5,2.4c-0.3,0.7-0.8,1.4-1.3,1.9
			c-0.5,0.5-1.2,1-1.9,1.3c-0.7,0.3-1.5,0.4-2.3,0.4c-0.8,0-1.6-0.1-2.3-0.4c-0.7-0.3-1.4-0.7-1.9-1.3c-0.5-0.5-1-1.2-1.3-1.9
			c-0.3-0.7-0.5-1.5-0.5-2.4C564,72.4,564.2,71.6,564.5,70.9z M565.5,75.3c0.2,0.6,0.6,1.2,1,1.6c0.4,0.5,1,0.8,1.6,1.1
			c0.6,0.3,1.3,0.4,2,0.4c0.7,0,1.3-0.1,1.9-0.4c0.6-0.3,1.1-0.6,1.6-1.1c0.4-0.5,0.8-1,1-1.6s0.4-1.3,0.4-2c0-0.7-0.1-1.4-0.4-2
			c-0.2-0.6-0.6-1.2-1-1.6c-0.4-0.5-1-0.8-1.6-1.1c-0.6-0.3-1.2-0.4-1.9-0.4c-0.7,0-1.4,0.1-2,0.4c-0.6,0.3-1.1,0.6-1.6,1.1
			c-0.4,0.5-0.8,1-1,1.6c-0.2,0.6-0.4,1.3-0.4,2C565.1,74,565.2,74.7,565.5,75.3z"/>
	</g>
</g>
<g>
	<path d="M573.1,76.9h-1.3l-1.1-2.9h-1.8v2.9h-1.3v-7h3c0.8,0,1.5,0.2,1.9,0.6c0.4,0.4,0.6,0.9,0.6,1.5c0,0.9-0.4,1.5-1.3,1.9
		L573.1,76.9z M568.9,73h1.6c0.5,0,0.8-0.1,1-0.3c0.2-0.2,0.3-0.5,0.3-0.8c0-0.3-0.1-0.6-0.3-0.7c-0.2-0.2-0.5-0.3-0.9-0.3h-1.7V73z
		"/>
</g>
</svg>
