<?xml version="1.0" encoding="utf-8"?>
<!-- Generator: Adobe Illustrator 26.0.3, SVG Export Plug-In . SVG Version: 6.00 Build 0)  -->
<svg version="1.1" id="Layer_1" xmlns="http://www.w3.org/2000/svg" xmlns:xlink="http://www.w3.org/1999/xlink" x="0px" y="0px"
	 viewBox="0 0 595.3 841.9" style="enable-background:new 0 0 595.3 841.9;" xml:space="preserve">
<g>
	<polygon points="218.4,441.1 227.8,417.8 236.9,417.8 227.5,441.1 	"/>
	<polygon points="334.6,441.1 343.9,417.8 348.9,417.8 339.6,441.1 	"/>
	<polygon points="352.9,441.1 362.2,417.8 364.8,417.8 355.5,441.1 	"/>
	<g>
		<path d="M287.5,425.8h-1.3c-1.9,0-3.4,1.5-3.4,3.4c0,1.9,1.5,3.4,3.4,3.4h4.7v-3.4C290.9,427.3,289.4,425.8,287.5,425.8z"/>
		<path d="M286.8,374.9c-25.4,0-46.1,20.6-46.1,46.1c0,25.4,20.6,46.1,46.1,46.1c25.5,0,46.1-20.6,46.1-46.1
			C332.9,395.5,312.2,374.9,286.8,374.9z M317.9,440.3c-0.3,0.8-1.1,0.8-1.1,0.8h-8.3c0,0-0.8,0-1.1-0.8l-7.9-19.7v12h2.5
			c0,0,0.7,0,0.6,0.6h0c0,0.1-2.8,7.1-2.8,7.1c-0.3,0.8-1.1,0.8-1.1,0.8h-7.1c-0.3,0-0.6-0.3-0.6-0.6v-6.8l-2.7,6.6
			c-0.3,0.8-1.1,0.8-1.1,0.8h-0.9c-4.2,0-7.5-1.7-9.6-4.6l-1.5,3.8c-0.3,0.8-1.1,0.8-1.1,0.8h-6.9c-0.3,0-0.6-0.3-0.6-0.6v-8.8
			c0-2.5-0.1-3.4-0.5-4.1c-0.2-0.3-0.5-0.6-0.9-0.8c-0.6-0.3-1-0.3-2.6-0.3h-2.8v14.1c0,0.3-0.3,0.6-0.6,0.6h-7.2
			c-0.4,0-0.6-0.3-0.6-0.6v-14.1h-2.8c-0.7,0-0.4-0.7-0.4-0.7l3-7.4c0.2-0.5,0.8-0.5,0.8-0.5h7.3c0.3,0,0.6,0.3,0.6,0.6v7l2.9-7.1
			c0.2-0.5,0.8-0.5,0.8-0.5h3.1c2.7,0,3.9,0.3,5.3,1.1c0.7,0.4,1.3,1,1.7,1.6c0.9,1.3,1.2,2.5,1.3,6c1.1-5.2,4.6-8.7,9.8-8.7
			c2.3,0,6.3,1.6,6.3,5.3v-4.7c0-0.3,0.3-0.6,0.6-0.6h15.8c0,0,0.6,0,0.8,0.5l4.5,13.9l4.5-13.9c0.2-0.5,0.8-0.5,0.8-0.5h8.2
			c0,0,0.9,0,0.6,0.8L317.9,440.3z"/>
	</g>
</g>
</svg>
