<?xml version="1.0" encoding="utf-8"?>
<!-- Generator: Adobe Illustrator 26.0.3, SVG Export Plug-In . SVG Version: 6.00 Build 0)  -->
<svg version="1.1" id="Layer_1" xmlns:sketch="http://www.bohemiancoding.com/sketch/ns"
	 xmlns="http://www.w3.org/2000/svg" xmlns:xlink="http://www.w3.org/1999/xlink" x="0px" y="0px" viewBox="0 0 218 44"
	 style="enable-background:new 0 0 218 44;" xml:space="preserve">
<style type="text/css">
	.st0{enable-background:new    ;}
	.st1{fill:#1D1D1B;}
</style>
<desc>Created with Sketch.</desc>
<g id="Page-1" sketch:type="MSPage">
	<g id="NDC-Conferences-black" sketch:type="MSArtboardGroup">
		<g class="st0">
			<path class="st1" d="M16.2,28.5c0,0.6,0.3,0.9,0.9,0.9h2.5V31h-2.5c-1.6,0-2.7-1.1-2.7-2.7v-4.4c0-0.6-0.3-0.9-0.8-0.9h-1.1v-1.7
				h1.1c0.6,0,0.8-0.3,0.8-0.9v-4.4c0-1.6,1.1-2.7,2.7-2.7h2.5V15h-2.5c-0.6,0-0.9,0.3-0.9,0.9v4.4c0,0.9-0.4,1.5-1,1.8
				c0.6,0.4,1,0.9,1,1.8V28.5z"/>
			<path class="st1" d="M29.4,24.1c0-0.9,0.4-1.5,1-1.8c-0.6-0.4-1-0.9-1-1.8v-4.4c0-0.6-0.3-0.9-0.9-0.9H26v-1.6h2.5
				c1.6,0,2.7,1.1,2.7,2.7v4.4c0,0.6,0.3,0.9,0.8,0.9h1.1V23H32c-0.6,0-0.8,0.3-0.8,0.9v4.4c0,1.6-1.1,2.7-2.7,2.7H26v-1.6h2.5
				c0.6,0,0.9-0.3,0.9-0.9V24.1z"/>
			<path class="st1" d="M52.1,29h-1.4l-8.2-11.7V29h-1.8V14.3h1.8l7.8,11.2V14.3h1.8V29z"/>
			<path class="st1" d="M55.6,14.3h4.7c4.3,0,7.2,2.9,7.2,7.4c0,4.5-2.8,7.4-7.2,7.4h-4.7V14.3z M60.3,27.3c3.3,0,5.3-2.2,5.3-5.7
				c0-3.5-2-5.7-5.3-5.7h-2.8v11.4H60.3z"/>
			<path class="st1" d="M76,14c3.1,0,5.1,1.8,5.7,4.5h-1.9c-0.6-1.7-1.8-2.8-3.9-2.8c-2.8,0-4.7,2.4-4.7,5.9c0,3.5,1.9,5.9,4.7,5.9
				c2,0,3.3-1.1,3.9-2.9h1.9c-0.6,2.8-2.7,4.6-5.7,4.6c-3.7,0-6.6-3-6.6-7.6C69.4,17,72.2,14,76,14z"/>
			<path class="st1" d="M95.3,14c3.1,0,5.1,1.8,5.7,4.5h-1.9c-0.6-1.7-1.8-2.8-3.9-2.8c-2.8,0-4.7,2.4-4.7,5.9
				c0,3.5,1.9,5.9,4.7,5.9c2,0,3.3-1.1,3.9-2.9h1.9c-0.6,2.8-2.7,4.6-5.7,4.6c-3.7,0-6.6-3-6.6-7.6C88.7,17,91.6,14,95.3,14z"/>
			<path class="st1" d="M107.7,29.2c-2.9,0-4.9-2.3-4.9-5.5c0-3.3,2-5.5,4.9-5.5c2.9,0,4.9,2.3,4.9,5.5
				C112.6,26.9,110.6,29.2,107.7,29.2z M107.7,19.7c-1.9,0-3.1,1.6-3.1,4s1.2,4,3.1,4c1.9,0,3.1-1.6,3.1-4S109.6,19.7,107.7,19.7z"
				/>
			<path class="st1" d="M115.1,18.3h1.8v1.3c0.6-0.8,1.8-1.6,3.1-1.6c2.4,0,3.7,1.6,3.7,3.9v7h-1.8v-6.7c0-1.5-0.7-2.5-2.4-2.5
				c-1.2,0-2.3,0.8-2.7,2V29h-1.8V18.3z"/>
			<path class="st1" d="M132.1,15.1c-0.3-0.2-0.7-0.3-1.1-0.3c-1.1,0-1.8,0.7-1.8,1.9v1.6h2.4v1.5h-2.4V29h-1.8v-9.1h-1.8v-1.5h1.8
				v-1.8c0-2.1,1.4-3.4,3.3-3.4c0.6,0,1,0.1,1.4,0.2V15.1z"/>
			<path class="st1" d="M142,25.8c-0.4,2-1.9,3.4-4.3,3.4c-2.9,0-4.9-2.2-4.9-5.5c0-3.2,1.9-5.6,4.8-5.6c2.9,0,4.5,2.1,4.5,5.2V24
				h-7.5c0,2.3,1.3,3.7,3.1,3.7c1.3,0,2.3-0.7,2.6-1.9H142z M134.6,22.6h5.7c0-1.6-0.9-3-2.6-3C136.1,19.7,134.9,20.8,134.6,22.6z"
				/>
			<path class="st1" d="M150,20.1c-0.3-0.2-0.7-0.3-1.2-0.3c-1.1,0-2.1,0.7-2.5,2V29h-1.8V18.3h1.8v1.4c0.5-0.9,1.5-1.6,2.6-1.6
				c0.5,0,0.8,0.1,1,0.2V20.1z"/>
			<path class="st1" d="M160.3,25.8c-0.4,2-1.9,3.4-4.3,3.4c-2.9,0-4.9-2.2-4.9-5.5c0-3.2,1.9-5.6,4.8-5.6c2.9,0,4.5,2.1,4.5,5.2V24
				h-7.5c0,2.3,1.3,3.7,3.1,3.7c1.3,0,2.3-0.7,2.6-1.9H160.3z M153,22.6h5.7c0-1.6-0.9-3-2.6-3C154.4,19.7,153.3,20.8,153,22.6z"/>
			<path class="st1" d="M162.9,18.3h1.8v1.3c0.6-0.8,1.8-1.6,3.1-1.6c2.4,0,3.7,1.6,3.7,3.9v7h-1.8v-6.7c0-1.5-0.7-2.5-2.4-2.5
				c-1.2,0-2.3,0.8-2.7,2V29h-1.8V18.3z"/>
			<path class="st1" d="M178.7,18.1c2.4,0,3.9,1.4,4.3,3.4h-1.8c-0.2-1.2-1.2-1.8-2.4-1.8c-1.8,0-3,1.6-3,4s1.2,4,3,4
				c1.3,0,2.2-0.7,2.4-1.8h1.8c-0.4,2-1.9,3.4-4.3,3.4c-2.9,0-4.8-2.2-4.8-5.5C173.9,20.4,175.8,18.1,178.7,18.1z"/>
			<path class="st1" d="M193.7,25.8c-0.4,2-1.9,3.4-4.3,3.4c-2.9,0-4.9-2.2-4.9-5.5c0-3.2,1.9-5.6,4.8-5.6c2.9,0,4.5,2.1,4.5,5.2V24
				h-7.5c0,2.3,1.3,3.7,3.1,3.7c1.3,0,2.3-0.7,2.6-1.9H193.7z M186.4,22.6h5.7c0-1.6-0.9-3-2.6-3C187.8,19.7,186.6,20.8,186.4,22.6z
				"/>
			<path class="st1" d="M197.3,26.1c0.3,1.1,1.3,1.6,2.5,1.6c1.3,0,2.2-0.5,2.2-1.6c0-0.7-0.5-1.2-1.6-1.5l-2.1-0.6
				c-1.5-0.4-2.6-1.2-2.6-2.8c0-1.9,1.7-3.1,3.8-3.1c2.4,0,3.7,1.2,4.1,3h-1.8c-0.3-1-1.1-1.5-2.4-1.5c-1.1,0-2,0.5-2,1.5
				c0,0.7,0.5,1.1,1.5,1.3L201,23c1.8,0.5,2.7,1.5,2.7,3c0,2-1.7,3.2-4,3.2c-2.3,0-4-1.2-4.4-3.1H197.3z"/>
		</g>
	</g>
</g>
</svg>
