<?xml version="1.0" encoding="utf-8"?>
<!-- Generator: Adobe Illustrator 26.0.3, SVG Export Plug-In . SVG Version: 6.00 Build 0)  -->
<svg version="1.1" id="Layer_1" xmlns="http://www.w3.org/2000/svg" xmlns:xlink="http://www.w3.org/1999/xlink" x="0px" y="0px"
	 viewBox="0 0 425 245" style="enable-background:new 0 0 425 245;" xml:space="preserve">
<g>
	<path d="M124.7,171.7l-32.5-58.8v58.8H72.5V73h20.7l32,59.3V73H145v98.7H124.7z"/>
	<path d="M163.7,171.7V72.8h20v98.8H163.7z"/>
	<path d="M241.5,92v79.7h-19.8V92h-26.8V72.8h73.7V92H241.5z"/>
	<path d="M349.7,157.3c-2,2.8-8.5,9.8-12.2,12c-2.8,1.7-6.8,3.2-10.7,3.2h-23.2h-2.8c-3.8,0-7.8-1.5-10.7-3.2
		c-3.7-2.2-10.2-9.2-12.2-12c-2.2-3.2-2.8-6.8-2.8-10.2V118V97.8c0-3.3,0.7-7,2.8-10.2c2-2.8,8.5-9.8,12.2-12
		c2.8-1.7,6.8-3.2,10.7-3.2H324h2.8c3.8,0,7.8,1.5,10.7,3.2c3.7,2.2,10.2,9.2,12.2,12c2.2,3.2,2.8,6.8,2.8,10.2V127v20.2
		C352.5,150.5,351.8,154.2,349.7,157.3z M332.5,146.7v-28.5V98.3v-0.2c-1.8-2.5-4.5-5.3-6-6.2H326h-24.5h-0.2
		c-1.5,0.8-4.3,3.5-6.2,6.2v0.2v28.5v19.8v0.2c1.8,2.5,4.5,5.3,6,6.2h0.5h24.5h0.2c1.5-0.8,4.3-3.5,6.2-6.2V146.7z"/>
</g>
</svg>
