<?xml version="1.0" encoding="utf-8"?>
<!-- Generator: Adobe Illustrator 26.0.3, SVG Export Plug-In . SVG Version: 6.00 Build 0)  -->
<svg version="1.1" id="Layer_1" xmlns="http://www.w3.org/2000/svg" xmlns:xlink="http://www.w3.org/1999/xlink" x="0px" y="0px"
	 viewBox="0 0 841.9 595.3" style="enable-background:new 0 0 841.9 595.3;" xml:space="preserve">
<g>
	<path d="M338.9,277.2h-3v-1h4.2v3.1c1.5-2.3,3.5-3.4,6.2-3.4c2.7,0,4.6,0.9,6.1,2.9c1.3,1.8,1.4,3.7,1.4,6.1v8.5h3v1h-7.5v-1h3.3
		v-8.4c0-2.3-0.1-4-1-5.5c-1.1-1.7-3-2.7-5.2-2.7c-2.3,0-4.1,0.9-5.3,2.6c-1.1,1.6-1.1,3.4-1.1,5.6v8.4h3.3v1h-7.5v-1h3V277.2z"/>
	<path d="M361.6,278.5c1.8-1.8,4.1-2.8,6.6-2.8c2.5,0,4.8,1,6.6,2.8c1.7,1.8,2.7,4.2,2.7,6.8c0,2.6-1,5-2.7,6.8
		c-1.8,1.8-4.1,2.8-6.6,2.8c-2.5,0-4.8-1-6.6-2.8c-1.7-1.8-2.7-4.2-2.7-6.8C358.9,282.7,359.9,280.3,361.6,278.5z M362.5,291.4
		c1.6,1.6,3.5,2.5,5.7,2.5c2.2,0,4.2-0.9,5.7-2.5c1.5-1.6,2.4-3.8,2.4-6.1c0-2.3-0.9-4.5-2.4-6.1c-1.6-1.6-3.5-2.5-5.7-2.5
		c-2.2,0-4.2,0.9-5.7,2.5c-1.5,1.6-2.4,3.8-2.4,6.1C360.1,287.6,361,289.7,362.5,291.4z"/>
	<path d="M381.2,277.2h-1.9v-1h6.3v1h-3.2l6.3,16.1l6.3-16.1h-3.2v-1h6.3v1h-1.9l-6.8,17.2h-1.3L381.2,277.2z"/>
	<path d="M408.7,294.8c-2.5,0-4.7-1-6.5-2.8c-1.7-1.8-2.6-4.1-2.6-6.7c0-2.7,0.9-4.9,2.6-6.7c1.7-1.8,4-2.8,6.5-2.8
		c3.4,0,6.3,1.8,7.9,5v-4.6h4.3v1h-3.2v16.2h3.2v1h-4.3v-4.7C414.8,293.1,412.1,294.8,408.7,294.8z M408.7,293.8
		c2.1,0,4.1-0.9,5.6-2.5c1.5-1.6,2.3-3.7,2.3-6c0-2.3-0.8-4.4-2.3-6c-1.5-1.6-3.5-2.5-5.6-2.5c-4.4,0-8,3.7-8,8.5
		C400.7,290.1,404.3,293.8,408.7,293.8z"/>
	<path d="M338.9,301.8h-3v-1h4.2v3.1c1.5-2.3,3.5-3.4,6.2-3.4c2.7,0,4.6,0.9,6.1,2.9c1.3,1.8,1.4,3.7,1.4,6.1v8.5h3v1h-7.5v-1h3.3
		v-8.4c0-2.3-0.1-4-1-5.5c-1.1-1.7-3-2.7-5.2-2.7c-2.3,0-4.1,0.9-5.3,2.6c-1.1,1.6-1.1,3.4-1.1,5.6v8.4h3.3v1h-7.5v-1h3V301.8z"/>
	<path d="M368.3,319.5c-2.5,0-4.8-1-6.6-2.8c-1.7-1.8-2.7-4.2-2.7-6.8s1-5,2.7-6.8c1.8-1.8,4.1-2.8,6.6-2.8c5,0,9.1,3.8,9.3,9.5
		h-17.4c0.2,5.3,3.7,8.7,8.1,8.7c3.1,0,5.8-1.7,7.2-4.7h1.2C375.3,317.4,372.1,319.5,368.3,319.5z M376.3,308.9
		c-0.6-4.5-4.1-7.5-8.1-7.5c-4.1,0-7.3,2.8-8.1,7.5H376.3z"/>
	<path d="M383.6,301.8h-4v-1h4v-3.7h1.1v3.7h4.2v1h-4.2v16.2h3.5v1h-4.6V301.8z"/>
</g>
</svg>
