<?xml version="1.0" encoding="utf-8"?>
<!-- Generator: Adobe Illustrator 26.0.3, SVG Export Plug-In . SVG Version: 6.00 Build 0)  -->
<svg version="1.1" id="Layer_1" xmlns="http://www.w3.org/2000/svg" xmlns:xlink="http://www.w3.org/1999/xlink" x="0px" y="0px"
	 viewBox="0 0 130 35" style="enable-background:new 0 0 130 35;" xml:space="preserve">
<path d="M12.4,6.5h4.2c3.6,0,4.2,2.1,4.2,3.3c0,2.3-1.6,3.4-3.8,3.4h-1.8l-0.1,4.1h-2.9L12.4,6.5z M15.1,11.1h1.3
	c0.7,0,1.6-0.2,1.6-1.3c0-0.9-0.5-1.3-1.7-1.3h-1.1L15.1,11.1z"/>
<path d="M26.5,17.3h-2.9l0.1-10.9H28c2.3,0,4.2,0.6,4.2,3.1c0,1.6-1.1,2.7-2.6,2.8v0c0.6,0.2,1.1,0.9,1.5,1.6l1.9,3.4h-3.2l-1.6-3
	c-0.3-0.7-0.6-1.1-1.2-1.1h-0.4L26.5,17.3z M26.5,11.1h1.3c0.7,0,1.6-0.2,1.6-1.3c0-0.9-0.5-1.3-1.7-1.3h-1.1L26.5,11.1z"/>
<path d="M40.9,6.2c3.7,0,5.8,2.6,5.8,5.7s-2.2,5.7-5.8,5.7c-3.7,0-5.9-2.6-5.9-5.7S37.2,6.2,40.9,6.2 M40.9,15.4
	c1.6,0,2.9-1.1,2.9-3.5c0-2.4-1.3-3.5-2.9-3.5c-1.6,0-2.9,1.1-2.9,3.5C38,14.3,39.3,15.4,40.9,15.4"/>
<polygon points="48.7,6.5 57.6,6.5 57.6,8.7 54.7,8.7 54.6,17.3 51.8,17.3 51.8,8.7 48.7,8.7 "/>
<polygon points="60.7,6.5 68.2,6.5 68.2,8.7 63.6,8.7 63.5,10.8 68.2,10.8 68.2,13 63.5,13 63.5,15.1 68.1,15.1 68.1,17.3 
	60.6,17.3 "/>
<path d="M79.7,9c-0.6-0.4-1.6-0.6-2.3-0.6c-2.1,0-3.6,1.4-3.6,3.4c0,2,1.2,3.5,3.3,3.5c1.1,0,1.6-0.3,2.4-0.6l0.8,2
	c-0.8,0.4-2,0.8-3.6,0.8c-3.7,0-5.9-2.3-5.9-5.8c0-3.4,2.3-5.6,6.2-5.6c1.5,0,2.7,0.3,3.4,0.8L79.7,9z"/>
<polygon points="82.8,6.5 91.6,6.5 91.6,8.7 88.7,8.7 88.6,17.3 85.8,17.3 85.9,8.7 82.8,8.7 "/>
<path d="M99.4,6.2c3.7,0,5.8,2.6,5.8,5.7s-2.2,5.7-5.8,5.7c-3.7,0-5.9-2.6-5.9-5.7S95.7,6.2,99.4,6.2 M99.4,15.4
	c1.6,0,2.9-1.1,2.9-3.5c0-2.4-1.3-3.5-2.9-3.5c-1.6,0-2.9,1.1-2.9,3.5C96.5,14.3,97.8,15.4,99.4,15.4"/>
<path d="M110.9,17.3H108l0.1-10.9h4.3c2.3,0,4.2,0.6,4.2,3.1c0,1.6-1,2.7-2.6,2.8v0c0.6,0.2,1.1,0.9,1.5,1.6l1.9,3.4h-3.2l-1.6-3
	c-0.3-0.7-0.6-1.1-1.2-1.1h-0.4L110.9,17.3z M110.8,11.1h1.3c0.7,0,1.6-0.2,1.6-1.3c0-0.9-0.5-1.3-1.7-1.3h-1.1L110.8,11.1z"/>
<path d="M79,11.8c0,0.9-0.7,1.6-1.6,1.6c-0.9,0-1.6-0.7-1.6-1.6c0-0.9,0.7-1.6,1.6-1.6C78.2,10.2,79,10.9,79,11.8"/>
<g>
	<path d="M72.6,24.5v4.3h-0.7v-4.3h-0.6V24h0.6v-0.9c0-0.7,0.4-1.3,1.2-1.3h0.5v0.6h-0.4c-0.5,0-0.7,0.3-0.7,0.7V24h1v0.5L72.6,24.5
		L72.6,24.5z"/>
	<path d="M78.3,28.4c-0.3,0.3-0.8,0.6-1.4,0.6c-0.6,0-1.1-0.2-1.4-0.6c-0.5-0.5-0.6-1.2-0.6-1.9c0-0.8,0.1-1.4,0.6-1.9
		c0.3-0.3,0.8-0.6,1.4-0.6c0.6,0,1.1,0.2,1.4,0.6c0.5,0.5,0.6,1.2,0.6,1.9C78.9,27.2,78.8,27.9,78.3,28.4z M77.8,24.9
		c-0.2-0.2-0.5-0.4-0.9-0.4c-0.3,0-0.7,0.1-0.9,0.4c-0.4,0.4-0.4,1-0.4,1.5c0,0.5,0,1.2,0.4,1.5c0.2,0.2,0.5,0.4,0.9,0.4
		c0.3,0,0.7-0.1,0.9-0.4c0.4-0.4,0.4-1,0.4-1.5C78.2,25.9,78.1,25.3,77.8,24.9z"/>
	<path d="M83.6,24.9c-0.3-0.3-0.5-0.4-0.8-0.4c-0.7,0-1.2,0.6-1.2,1.3v3h-0.7V24h0.7v0.6c0.3-0.4,0.8-0.7,1.4-0.7
		c0.5,0,0.8,0.1,1.2,0.5L83.6,24.9z"/>
	<path d="M87,28.9c-0.8,0-1.5-0.2-2-0.7l0.5-0.5c0.4,0.4,0.9,0.6,1.5,0.6c0.8,0,1.3-0.3,1.3-0.9c0-0.4-0.2-0.7-0.8-0.7l-0.8-0.1
		c-1-0.1-1.5-0.5-1.5-1.3c0-0.9,0.8-1.4,1.8-1.4c0.7,0,1.3,0.2,1.8,0.5l-0.5,0.5c-0.3-0.3-0.8-0.4-1.3-0.4c-0.7,0-1.1,0.3-1.1,0.8
		c0,0.4,0.2,0.7,0.9,0.7l0.8,0.1c0.9,0.1,1.4,0.4,1.4,1.3C89,28.4,88.2,28.9,87,28.9z"/>
	<path d="M90.9,22.6v-0.8h0.8v0.8H90.9z M90.9,28.9V24h0.7v4.9H90.9z"/>
	<path d="M97.1,28.9l-1.5-2.5l-1,1.1v1.4h-0.7v-7.1h0.7v4.7l2.2-2.5h0.9l-1.7,1.9l1.9,3H97.1z"/>
	<path d="M102.4,24.9c-0.3-0.3-0.5-0.4-0.8-0.4c-0.7,0-1.2,0.6-1.2,1.3v3h-0.7V24h0.7v0.6c0.3-0.4,0.8-0.7,1.4-0.7
		c0.5,0,0.8,0.1,1.2,0.5L102.4,24.9z"/>
	<path d="M104.4,22.6v-0.8h0.8v0.8H104.4z M104.4,28.9V24h0.7v4.9H104.4z"/>
	<path d="M110.5,28.9v-3c0-0.9-0.5-1.3-1.2-1.3c-0.7,0-1.2,0.4-1.2,1.3v3h-0.7V24h0.7v0.5c0.3-0.4,0.8-0.6,1.4-0.6
		c0.5,0,1,0.2,1.3,0.5c0.3,0.3,0.5,0.8,0.5,1.4v3.1L110.5,28.9L110.5,28.9z"/>
	<path d="M115,31.1c-0.7,0-1.1-0.2-1.7-0.7l0.5-0.5c0.4,0.3,0.6,0.5,1.2,0.5c0.9,0,1.3-0.7,1.3-1.5v-0.8c-0.4,0.5-0.8,0.6-1.4,0.6
		c-0.5,0-0.9-0.2-1.2-0.4c-0.5-0.5-0.6-1.2-0.6-2s0.1-1.5,0.6-2c0.3-0.3,0.7-0.4,1.2-0.4c0.5,0,1,0.1,1.4,0.6V24h0.7v5
		C117.1,30.2,116.3,31.1,115,31.1z M115.2,24.5c-1.1,0-1.2,0.9-1.2,1.8s0.2,1.8,1.2,1.8c1.1,0,1.2-0.9,1.2-1.8
		S116.2,24.5,115.2,24.5z"/>
</g>
</svg>
