<?xml version="1.0" encoding="utf-8"?>
<!-- Generator: Adobe Illustrator 26.0.3, SVG Export Plug-In . SVG Version: 6.00 Build 0)  -->
<svg version="1.1" id="Layer_1" xmlns="http://www.w3.org/2000/svg" xmlns:xlink="http://www.w3.org/1999/xlink" x="0px" y="0px"
	 viewBox="0 0 300 100" style="enable-background:new 0 0 300 100;" xml:space="preserve">
<g>
	<path d="M75.4,47.3c-2.6-1-3.3-1.6-3.3-2.7c0-1.2,1-2,2.6-2c1.8,0,3.2,0.7,3.7,1c0.2,0.1,0.4,0.1,0.6,0.1c0.2-0.1,0.4-0.2,0.4-0.4
		l0.9-2.6c0.1-0.3,0-0.7-0.3-0.8c-1.4-0.8-3.4-1.3-5.3-1.3c-4.4,0-7.6,2.8-7.6,6.5c0,1.9,1,4.6,5.7,6.3c2.7,1,3.2,1.8,3.2,3
		c0,1.4-1.2,2.3-3.2,2.3c-1.6,0-3.4-0.7-4.4-1.3c-0.2-0.1-0.4-0.1-0.6-0.1c-0.2,0.1-0.4,0.2-0.4,0.4l-0.9,2.8
		c-0.1,0.3,0,0.7,0.3,0.8c1.6,0.9,3.7,1.5,6,1.5c5,0,8.2-2.6,8.2-6.7C81.1,50.9,79.4,48.8,75.4,47.3z"/>
	<path d="M86.9,31.1c-1.7,0-3,1.3-3,3c0,1.7,1.2,2.9,2.9,2.9c0.9,0,1.7-0.3,2.2-0.9c0.5-0.5,0.8-1.3,0.8-2
		C89.8,32.3,88.6,31.1,86.9,31.1z"/>
	<path d="M86.9,42.7c-1.7,0-3,1.3-3,3c0,1.7,1.2,2.9,2.9,2.9c0.9,0,1.7-0.3,2.2-0.9c0.5-0.5,0.8-1.3,0.8-2
		C89.8,44,88.6,42.7,86.9,42.7z"/>
	<path d="M86.9,54.4c-1.7,0-3,1.3-3,3c0,1.7,1.2,2.9,2.9,2.9c0.9,0,1.7-0.3,2.2-0.9c0.5-0.5,0.8-1.3,0.8-2
		C89.8,55.6,88.6,54.4,86.9,54.4z"/>
	<path d="M116.6,38.5c-1.9,0-3.4,0.5-4.8,1.5c-0.7,0.5-1.2,1.1-1.8,1.8c-1.2-2.1-3.3-3.3-5.8-3.3c-2.4,0-4.3,0.8-5.8,2.5l-0.1-1.4
		c0-0.4-0.3-0.7-0.7-0.7h-3.2c-0.2,0-0.4,0.1-0.5,0.2c-0.1,0.1-0.2,0.3-0.2,0.5C94,41.2,94,42.8,94,45v14.5c0,0.4,0.3,0.7,0.7,0.7
		h3.5c0.4,0,0.7-0.3,0.7-0.7v-12c0-0.6,0.1-1.1,0.3-1.6c0.5-1.5,1.9-3.1,3.8-3.1c3.2,0,3.5,3.7,3.5,4.8v11.9c0,0.4,0.3,0.7,0.7,0.7
		h3.5c0.4,0,0.7-0.3,0.7-0.7V47.3c0-0.5,0.1-1.1,0.2-1.6c0.5-1.4,1.8-2.8,3.6-2.8c2.4,0,3.6,1.8,3.6,5.4v11.3c0,0.4,0.3,0.7,0.7,0.7
		h3.5c0.4,0,0.7-0.3,0.7-0.7V47.8C123.9,38.9,117.8,38.5,116.6,38.5z"/>
	<path d="M139.5,38.5c-2.7,0-4.9,0.9-6.6,2.7l-0.1-1.6c0-0.4-0.3-0.7-0.7-0.7h-3.3c-0.2,0-0.4,0.1-0.5,0.2c-0.1,0.1-0.2,0.3-0.2,0.5
		c0.1,2,0.2,4,0.2,6.5v21.6c0,0.4,0.3,0.7,0.7,0.7h3.6c0.4,0,0.7-0.3,0.7-0.7v-9c1.4,1.3,3.3,2,5.5,2c4.9,0,9.8-3.5,9.8-11.4
		C148.6,43,144.8,38.5,139.5,38.5z M143.6,49.5c0,4.3-2.1,7-5.4,7c-2.3,0-4.2-1.5-4.7-3.7c-0.1-0.4-0.2-0.9-0.2-1.4V48
		c0-0.4,0.1-0.9,0.2-1.3c0.6-2.3,2.6-4,4.8-4C142,42.8,143.6,46.1,143.6,49.5z"/>
	<path d="M156.1,29.6h-3.6c-0.4,0-0.7,0.3-0.7,0.7v29.2c0,0.4,0.3,0.7,0.7,0.7h3.6c0.4,0,0.7-0.3,0.7-0.7V30.3
		C156.8,29.9,156.5,29.6,156.1,29.6z"/>
	<path d="M170.7,38.5c-6.2,0-10.6,4.6-10.6,11.3c0,6.5,4.2,11,10.3,11c5.1,0,10.6-3.5,10.6-11.3C181,43,176.7,38.5,170.7,38.5z
		 M170.5,56.6c-3.1,0-5.4-2.9-5.4-7c0-3.5,1.7-7,5.4-7c4.2,0,5.3,4.6,5.3,7C175.8,53.6,173.6,56.6,170.5,56.6z"/>
	<path d="M200.6,38.9h-3.8c-0.3,0-0.6,0.2-0.7,0.5l-4,11.7c-0.2,0.7-0.5,1.4-0.7,2.1c-0.2-0.7-0.4-1.4-0.7-2l-4.4-11.8
		c-0.1-0.3-0.4-0.5-0.7-0.5h-4c-0.2,0-0.4,0.1-0.6,0.3c-0.1,0.2-0.2,0.4-0.1,0.7l7.4,18.3c0.2,0.5,0.2,0.6,0.2,0.7
		c0,0.1-0.2,0.4-0.2,0.6c-0.7,1.5-1.7,2.9-2.9,3.8c-1.2,1-2.5,1.5-2.9,1.6c-0.4,0.1-0.6,0.5-0.5,0.9l0.9,3c0.1,0.3,0.4,0.5,0.7,0.5
		c0,0,0.1,0,0.1,0c0.6-0.1,2.6-0.6,4.8-2.5c2.7-2.4,4.6-6.3,7-12.8l5.4-14.2c0.1-0.2,0.1-0.5-0.1-0.6
		C201.1,39,200.9,38.9,200.6,38.9z"/>
	<path d="M211.4,38.5c-5.9,0-10,4.7-10,11.4c0,6.5,4.1,10.7,10.5,10.7c3.3,0,5.6-0.7,6.9-1.3c0.3-0.1,0.5-0.5,0.4-0.8l-0.6-2.6
		c0-0.2-0.2-0.4-0.4-0.5c-0.2-0.1-0.4-0.1-0.6,0c-1.2,0.5-2.7,1-5.2,1c-1.7,0-5.7-0.6-6.1-5.5h13.3c0.4,0,0.7-0.3,0.7-0.6l0-0.2
		c0-0.4,0.1-0.9,0.1-1.6C220.4,43.5,217.6,38.5,211.4,38.5z M211.1,42.5c1.2,0,2.2,0.4,3,1.1c1,1,1.3,2.5,1.3,3.4h-9
		C206.9,45,208.2,42.5,211.1,42.5z"/>
	<path d="M234.2,38.6c-0.4-0.1-0.8-0.1-1.2-0.1c-2,0-3.8,1-5.1,2.7l0-1.5c0-0.4-0.3-0.7-0.7-0.7H224c-0.2,0-0.4,0.1-0.5,0.2
		c-0.1,0.1-0.2,0.3-0.2,0.5c0.1,1.7,0.2,3.6,0.2,6.2v13.7c0,0.4,0.3,0.7,0.7,0.7h3.6c0.4,0,0.7-0.3,0.7-0.7V48.9
		c0-0.6,0.1-1.1,0.2-1.6c0.5-2.5,2.1-4.1,4.2-4.1c0.4,0,0.7,0,1.1,0.1c0.2,0,0.4,0,0.6-0.1c0.2-0.1,0.3-0.3,0.3-0.5v-3.4
		C234.7,39,234.5,38.7,234.2,38.6z"/>
</g>
</svg>
