<?xml version="1.0" encoding="utf-8"?>
<!-- Generator: Adobe Illustrator 26.0.3, SVG Export Plug-In . SVG Version: 6.00 Build 0)  -->
<svg version="1.1" id="Layer_1" xmlns="http://www.w3.org/2000/svg" xmlns:xlink="http://www.w3.org/1999/xlink" x="0px" y="0px"
	 viewBox="0 0 753.8 187.5" style="enable-background:new 0 0 753.8 187.5;" xml:space="preserve">
<g>
	<path d="M405.4,119.8c-0.5,0.4-1.2,0.8-1.8,1.1l-0.2,0.1l0.2,0c11.6,3.2,23.2,3.1,25.4-4.2c2.9-9.4-15.7-19.5-24.4-24.3
		c-1.9-1-2.7-0.4-1.5,1C408.7,100,416.5,112.5,405.4,119.8"/>
	<path d="M505.9,78.7h-9.8v-8.2h9.8V58.3h9.5v12.2h15.7v8.2h-15.7v24.8c0,6.2,1.7,9.4,9.7,9.4c3,0,6.4-0.9,6.4-0.9v8.6
		c-3.3,0.4-5.7,0.7-9.5,0.7c-15,0-16.2-10.8-16.2-16.7V78.7z"/>
	<rect x="632.3" y="70.4" width="9.7" height="51"/>
	<path d="M659.3,95.5c0,13.9,11.4,17.4,16.9,17.4c10.4,0,17.7-5.8,17.7-17.6s-8.3-17.1-17.8-17.1C670.7,78.3,659.3,81.4,659.3,95.5
		 M649.4,95.4c0-19.2,15.5-25.7,26.3-25.7c12.2,0,18.2,7,18.2,7l0.5-6.3h8.9v51.1h-8.9l-0.5-6.7c0,0-6.1,6.8-18.3,6.8
		C663.3,121.5,649.4,114.4,649.4,95.4"/>
	<path d="M643.6,58.6c0-3.5-2.9-6.4-6.4-6.4c-3.5,0-6.4,2.9-6.4,6.4c0,3.5,2.9,6.4,6.4,6.4C640.7,65,643.6,62.2,643.6,58.6"/>
	<path d="M625.2,79.2v-8.6c-9.6-0.9-16.4,1.4-21.6,6.9l-0.5-7h-9.2v51h9.8V95C603.5,87.6,609.5,78.3,625.2,79.2"/>
	<path d="M533.4,95.6c0-16,11.8-26.2,27.5-26.2c15.6,0,26.4,11.4,26.4,25.3c0,0,0,2.2-0.2,4.1l-43.6,0.2c0.4,7.9,9.5,13.8,18.9,13.8
		c10.1,0,16.1-6.3,16.1-6.3l7,6.1c-7.1,6.8-14.8,8.9-23.1,8.9c-17.2,0-29-10-29-25.6V95.6z M576.6,91.2c0-6.9-7-12.7-15.5-12.7
		c-9.2,0-16.8,5.7-17.4,12.7H576.6z"/>
	<path d="M475.2,91c-9.8-1.8-19.5-3-19.5-7.6c0-3,3-5.6,11.5-5.6c6.4,0,13.7,1.5,15.7,6l9-3.8c-3.5-7-13.7-10.3-25.5-10.3
		c-10.3,0-21.3,3.9-21.3,14.3c0,9,8.2,11.8,21.7,14.4c9,1.7,17.4,2.6,17.4,7.4c0,3.1-4.1,7-14.4,7c-7.3,0-14.6-1.5-16.9-6.7
		l-8.8,3.7c3.6,8,13.1,12.2,24.2,12.2c22.1,0,26.3-10.5,26.3-16.5C494.9,95.6,485.1,92.8,475.2,91"/>
	<path d="M194.3,78.3c-9.5,0-17.8,5.4-17.8,17.1c0,11.7,7.3,17.6,17.7,17.6c5.4,0,16.9-2.2,16.9-17.4
		C211.1,80.4,199.7,78.3,194.3,78.3 M194.8,121.5c-12.2,0-18.3-7.8-18.3-7.8v21.5h-9.4V70.4h8.9l0.5,6.3c0,0,5.9-7,18.2-7
		c10.8,0,26.3,5.5,26.3,25.7C221,115.6,207,121.5,194.8,121.5"/>
	<path d="M267.6,95.5c0,13.9,11.4,17.4,16.9,17.4c10.4,0,17.7-5.8,17.7-17.6s-8.3-17.1-17.8-17.1C279,78.3,267.6,81.4,267.6,95.5
		 M257.7,95.4c0-19.2,15.5-25.7,26.3-25.7c12.2,0,18.2,7,18.2,7l0.5-6.3h8.9v51.1h-8.9l-0.5-6.7c0,0-6.1,6.8-18.3,6.8
		C271.6,121.5,257.7,114.4,257.7,95.4"/>
	<path d="M258.4,79.2v-8.6c-9.6-0.9-16.4,1.4-21.6,6.9l-0.5-7H227v51h9.8V95C236.7,87.6,242.7,78.3,258.4,79.2"/>
	<path d="M81.4,91c-9.8-1.8-19.5-3-19.5-7.6c0-3,3-5.6,11.5-5.6c6.4,0,13.7,1.5,15.7,6l9.1-3.8c-3.5-7-13.7-10.3-25.5-10.3
		c-10.3,0-21.3,3.9-21.3,14.3c0,9,8.2,11.8,21.7,14.4c9,1.7,17.4,2.6,17.4,7.4c0,3.1-4.1,7-14.4,7c-7.3,0-14.6-1.5-16.9-6.7
		l-8.8,3.7c3.6,8,13.1,12.2,24.2,12.2c22.1,0,26.3-10.5,26.3-16.5C101.1,95.6,91.2,92.8,81.4,91"/>
	<path d="M133.5,69.7c-13,0-28.5,6.5-28.5,25.7c0,19,13.9,26.4,28.5,26.4s28.5-7.4,28.5-26.4C162,76.2,146.5,69.7,133.5,69.7
		 M133.5,112.9c-8,0-18.6-3.5-18.6-17.4c0-14.1,11.7-17,18.6-17c6.9,0,18.6,2.9,18.6,17C152,109.4,141.5,112.9,133.5,112.9"/>
	<path d="M403.5,121c0,0-14.7,9.2-40.6,9.2c-10,0-18.5-1.5-22-5c-3.8-3.7-5.8-9.9-5.8-15.7c0-4.9,2-9,6.3-9
		C352.3,100.5,386.3,117.8,403.5,121"/>
	<path d="M354.6,67.6c0.5-0.4,1.2-0.8,1.8-1.1l0.2-0.1l-0.2,0c-11.6-3.2-23.2-3.1-25.4,4.2c-2.9,9.4,15.7,19.5,24.4,24.3
		c1.9,1,2.7,0.4,1.5-1C351.4,87.4,343.5,74.9,354.6,67.6"/>
	<path d="M356.6,66.4c0,0,14.7-9.2,40.6-9.2c10,0,18.5,1.5,22,5c3.8,3.7,5.8,9.9,5.8,15.7c0,4.9-2,9-6.3,9
		C407.8,86.9,373.8,69.6,356.6,66.4"/>
</g>
</svg>
