<?xml version="1.0" encoding="utf-8"?>
<!-- Generator: Adobe Illustrator 26.0.3, SVG Export Plug-In . SVG Version: 6.00 Build 0)  -->
<svg version="1.1" id="SpareBank_1" xmlns="http://www.w3.org/2000/svg" xmlns:xlink="http://www.w3.org/1999/xlink" x="0px"
	 y="0px" viewBox="0 0 281.6 78.2" style="enable-background:new 0 0 281.6 78.2;" xml:space="preserve">
<style type="text/css">
	.st0{opacity:0.65;}
</style>
<g>
	<g>
		<g>
			<path d="M27.9,54.8c-5.1,0-9.2-1.2-9.9-1.4c-0.4-0.2-0.6-0.5-0.6-0.8v-0.2l0.5-2.6c0.1-0.4,0.4-0.5,0.7-0.5c0.1,0,0.2,0,0.3,0
				c0.8,0.2,4.9,1.3,8.6,1.3c3.2,0,6.1-0.9,6.1-4.3c0-3.4-3-3.7-6.8-4.3c-4.3-0.6-9.7-1.8-9.7-8.5c0-6.9,5.1-8.7,11.2-8.7
				c4.6,0,8.4,1.1,9.3,1.3c0.5,0.1,0.7,0.4,0.7,0.8v0.2l-0.6,2.6c0,0.3-0.3,0.6-0.6,0.6c0,0-0.1,0-0.1,0c-1.9-0.4-4.8-1.2-8.3-1.2
				c-2.9,0-6,0.6-6,3.9c0,3.3,3.3,3.7,6.8,4.3c4.6,0.7,9.9,1.4,9.9,8.7C39.3,52.8,33.7,54.8,27.9,54.8z"/>
			<path d="M78,54.4c-1.4,0.3-3.3,0.6-5.5,0.6c-4.3,0-9.5-0.4-9.5-6.7c0-5.1,3.2-5.6,6.4-6.2l7-1.1v-1.3c0-1.1-0.1-1.9-1.1-2.3
				c-0.6-0.3-1.6-0.4-3-0.4c-2.7,0-5.6,0.8-6.8,1.1c-0.1,0-0.2,0-0.3,0c-0.2,0-0.4-0.1-0.4-0.4l-0.6-2.4v-0.2c0-0.4,0.3-0.5,0.5-0.6
				c0.9-0.4,4.6-1.3,8.6-1.3c2.8,0,4.7,0.4,6,1.1c2,1.1,2.4,3,2.4,5.1v10.9C81.7,53.2,80.7,53.7,78,54.4z M76.4,44.3l-4.9,0.8
				c-1.6,0.2-3.1,0.5-3.1,3c0,3.1,2.5,3.3,4.4,3.3c1.5,0,2.8-0.3,3.6-0.6V44.3z"/>
			<path d="M95.7,37.2c-2.4,0-4.5,0.2-5.6,0.5v16.1c0,0.4-0.2,0.6-0.6,0.6h-4c-0.2,0-0.7-0.2-0.7-0.6v-17c0-1.5,0.9-2,2.8-2.6
				c1.7-0.6,4.5-0.9,6.8-1h0.7c0.6,0,0.6,0,0.8,0.1c0.2,0.1,0.4,0.2,0.4,0.6v2.6C96.3,36.9,96.3,37.2,95.7,37.2z"/>
			<path d="M116.4,45.6c0,0.4-0.2,0.9-0.8,0.9h-13.2c0,1.8,0.5,2.8,1.6,3.6c1,0.8,2.5,1.2,4.7,1.2c2.4,0,4.3-0.6,5.5-0.9
				c0.1,0,0.1,0,0.2,0c0.2,0,0.4,0.2,0.6,0.6l0.5,2c0,0,0,0.1,0,0.2c0,0.3-0.2,0.5-0.5,0.6c-1.3,0.6-4,1.3-7.1,1.3
				c-7.7,0-10.8-3-10.8-10.8c0-7.4,2.1-11,9.7-11c4,0,6.4,1,7.9,2.9c1.3,1.8,1.8,4.3,1.8,7.6V45.6z M110.8,39.7
				c-0.5-2.2-1.7-2.9-4-2.9c-2.6,0-3.7,0.8-4.2,2.8c-0.3,1.1-0.3,2.2-0.3,3.6l8.8,0C111.1,41.8,111.1,40.7,110.8,39.7z"/>
			<path d="M161.3,54.4c-1.4,0.3-3.3,0.6-5.5,0.6c-4.3,0-9.5-0.4-9.5-6.7c0-5.1,3.2-5.6,6.4-6.2l7-1.1v-1.3c0-1.1-0.1-1.9-1.1-2.3
				c-0.6-0.3-1.6-0.4-3-0.4c-2.7,0-5.6,0.8-6.8,1.1c-0.1,0-0.2,0-0.3,0c-0.2,0-0.4-0.1-0.4-0.4l-0.6-2.4v-0.2c0-0.4,0.3-0.5,0.5-0.6
				c0.9-0.4,4.6-1.3,8.6-1.3c2.8,0,4.7,0.4,6,1.1c2,1.1,2.4,3,2.4,5.1v10.9C164.9,53.2,164,53.7,161.3,54.4z M159.7,44.3l-4.9,0.8
				c-1.6,0.2-3.1,0.5-3.1,3c0,3.1,2.5,3.3,4.4,3.3c1.5,0,2.8-0.3,3.6-0.6V44.3z"/>
			<path d="M186,54.4H182c-0.4,0-0.6-0.2-0.6-0.6V39.9c0-2.3-0.9-3.1-3-3.1c-2.4,0-4.9,0.7-4.9,0.7v16.3c0,0.4-0.2,0.6-0.6,0.6h-4
				c-0.4,0-0.7-0.2-0.7-0.6v-17c0-1.5,0.7-2,3-2.6c2-0.6,5.3-1,7.9-1c4.9,0,7.7,1.3,7.7,6v14.6C186.6,54.2,186.4,54.4,186,54.4z"/>
			<path d="M208.9,54c0,0.2-0.2,0.4-0.4,0.4h-5.3c-0.2,0-0.4,0-0.6-0.2l-6.1-8.3h-1.3v8c0,0.4-0.2,0.6-0.6,0.6h-4.1
				c-0.4,0-0.6-0.2-0.6-0.6V26.2c0-0.5,0.2-0.7,0.7-0.8l3.9-0.7h0.2c0.4,0,0.6,0.2,0.6,0.7v16.9h1.3l6.2-8.3
				c0.2-0.2,0.3-0.3,0.5-0.3l4.8,0.1c0.3,0,0.4,0.2,0.4,0.4c0,0.1,0,0.1-0.1,0.2l-7.5,9.4l7.9,10.1C208.9,53.9,208.9,54,208.9,54z"
				/>
			<path d="M47.5,50.8"/>
			<path d="M52.7,33.2c-2.6,0-5.7,0.4-8,1.3c-1.8,0.6-2.5,1.1-2.5,3.2v24.4c0,0.4,0.3,0.7,0.9,0.6c0.6-0.1,3.7-0.7,3.7-0.7
				c0.5-0.1,0.7-0.3,0.7-0.8v-6.9c1.4,0.3,3.2,0.6,5.1,0.6c7.3,0,8.7-4.6,8.7-10.9C61.3,37.8,60.4,33.2,52.7,33.2z M51.2,51.3
				c-2.1,0-3.7-0.5-3.7-0.5V37.5c0,0,2.3-0.6,4.1-0.6c3,0,4.3,0.7,4.3,7.1C55.9,49.9,54.8,51.3,51.2,51.3z"/>
			<path d="M133.7,54.4h-13.1c-0.4,0-0.7-0.3-0.7-0.6V25.9c0-0.4,0.3-0.6,0.7-0.6h13.2c6.7,0,9.4,2.6,9.4,7.4c0,4.2-2.3,5.7-5.9,6.7
				c4,0.7,6.9,2.8,6.9,7.5C144.2,52.1,140.4,54.4,133.7,54.4z M133.2,29.3h-7.6v8.4l7.3-0.3c3-0.1,4.5-1.2,4.5-4.2
				C137.5,30.5,136.1,29.3,133.2,29.3z M133,41.6l-7.4-0.2v9h7.4c4,0,5.3-1.7,5.3-4.1C138.3,43,137.2,41.7,133,41.6z"/>
		</g>
	</g>
</g>
<path class="st0" d="M242.5,11.3c-2.9,0-5.8,0.5-8.4,1.3c11.2-2.4,22.2,2.2,26.2,11.6c4.6,10.9-2,24.1-14.7,29.5
	c-11.4,4.8-23.9,1.7-29.7-6.8c3.4,11.5,14,19.9,26.6,19.9c15.3,0,27.8-12.4,27.8-27.8S257.9,11.3,242.5,11.3z"/>
<path d="M260.4,24.3c-4-9.4-15.1-14-26.2-11.6c-11.2,3.6-19.3,14.1-19.3,26.5c0,2.7,0.4,5.3,1.1,7.8c4.6,6.7,13.3,10.1,22.4,8.8
	V33.4H233c-0.5,0-1-0.4-1-1v-4.7c0-0.5,0.2-0.8,0.7-1l8.3-4.3c0.4-0.2,0.7-0.3,1.1-0.3h6.5c0.6,0,1,0.5,1,1v28.5
	C259.7,45.4,264.5,33.9,260.4,24.3z"/>
</svg>
