<?xml version="1.0" encoding="utf-8"?>
<!-- Generator: Adobe Illustrator 26.0.3, SVG Export Plug-In . SVG Version: 6.00 Build 0)  -->
<svg version="1.1" id="Layer_1" xmlns="http://www.w3.org/2000/svg" xmlns:xlink="http://www.w3.org/1999/xlink" x="0px" y="0px"
	 viewBox="0 0 841.9 595.3" style="enable-background:new 0 0 841.9 595.3;" xml:space="preserve">
<g>
	<path d="M513.1,406.4H293.4V188.9h257.1v179.4l-18.8,19.3L513.1,406.4z M295.4,404.4h216.8l18-18.2l18.2-18.7V190.9H295.4V404.4z"
		/>
	<path d="M386.4,313.7v-64.3h10.5v16.3h20v-35.4h-86.9v35.4h20v-16.3h10.5v64.3h-10.2v19.7h46.3v-19.7H386.4z M482.3,249.9v50.3
		c0,8.2-0.4,10.6-1.5,11.7c-1,1-3.3,1.3-7.6,1.3h-5.9c-4.3,0-6.6-0.3-7.6-1.3c-1.1-1.1-1.5-3.5-1.5-11.7v-50.3h8.8v-19.7h-44v19.7
		h9.1v48c0,19.5,2.1,25.5,6.9,30.3c4,4,9.1,5.2,20.4,5.2h21.1c11.3,0,16.4-1.1,20.4-5.2c4.8-4.8,6.9-10.7,6.9-30.3v-48h9.1v-19.7
		h-43.5v19.7H482.3z"/>
	<g>
		<g>
			<path d="M337,352.3v12.5h-2.3v-12.5h-4.6v-2h11.5v2H337z"/>
			<path d="M354,364.9h-9.9v-14.5h9.9v2h-7.6v4h6.3v2h-6.3v4.5h7.6V364.9z"/>
			<path d="M368.1,350.3l-5.6,6.9l5.7,7.7h-2.8l-4.8-6.5h-1.3v6.5H357v-14.5h2.3v6h1.2l4.8-6H368.1z"/>
			<path d="M381.9,364.9h-2.4c-0.6,0-0.8-0.1-1.1-0.7l-5.5-10.7h-0.3v11.4h-2.3v-14.5h2.6c0.6,0,0.8,0.1,1.1,0.7l5.4,10.2h0.3v-10.9
				h2.3V364.9z"/>
			<path d="M385.7,364.9v-14.5h2.3v14.5H385.7z"/>
			<path d="M401.7,364.2c-0.4,0.4-1.1,0.7-2.2,0.7h-4.9c-1.1,0-1.8-0.1-2.3-0.6c-0.6-0.6-0.8-1.3-0.8-4h2.3c0,1.8,0.1,2.2,0.3,2.3
				c0.1,0.1,0.3,0.2,0.9,0.2h4.1c0.6,0,0.8-0.1,1-0.2c0.2-0.2,0.2-0.7,0.2-2c0-1.1,0-1.4-0.2-1.6c-0.2-0.2-0.4-0.2-1-0.3l-4.6-0.4
				c-1.1-0.1-1.7-0.3-2.1-0.7c-0.6-0.6-0.7-1.3-0.7-3.2c0-1.9,0.2-2.8,0.9-3.4c0.4-0.4,1.1-0.7,2.2-0.7h4.5c1.1,0,1.8,0.1,2.3,0.6
				c0.6,0.6,0.8,1.3,0.8,3.9H400c0-1.7-0.1-2.1-0.3-2.2c-0.1-0.1-0.3-0.2-0.9-0.2h-3.7c-0.6,0-0.8,0.1-0.9,0.2
				c-0.2,0.2-0.2,0.8-0.2,1.9c0,1,0,1.4,0.2,1.6c0.2,0.2,0.4,0.2,1,0.2l4.6,0.4c1,0.1,1.6,0.3,2.1,0.7c0.6,0.6,0.7,1.3,0.7,3.2
				C402.5,362.7,402.4,363.5,401.7,364.2z"/>
			<path d="M416.8,350.3l-5.6,6.9l5.7,7.7h-2.8l-4.8-6.5h-1.3v6.5h-2.3v-14.5h2.3v6h1.2l4.8-6H416.8z"/>
			<path d="M435.4,358.8c0,3.7-0.3,4.4-1.1,5.2c-0.7,0.7-1.7,0.9-3.6,0.9h-2.1c-1.9,0-2.9-0.2-3.5-0.9c-0.8-0.8-1.1-1.5-1.1-5.2
				v-8.5h2.3v9c0,2.6,0.2,2.9,0.5,3.2c0.2,0.2,0.6,0.3,2.2,0.3h1.3c1.6,0,1.9-0.1,2.2-0.3c0.3-0.3,0.5-0.5,0.5-3.2v-9h2.3V358.8z"/>
			<path d="M450.2,350.3l-5.6,6.9l5.7,7.7h-2.8l-4.8-6.5h-1.3v6.5h-2.3v-14.5h2.3v6h1.2l4.8-6H450.2z"/>
			<path d="M462.4,364.9h-9.9v-14.5h9.9v2h-7.6v4h6.3v2h-6.3v4.5h7.6V364.9z"/>
			<path d="M465.4,350.3h7.6c1.1,0,1.8,0.2,2.3,0.6c0.6,0.6,0.9,1.3,0.9,3.4c0,2-0.7,2.6-2.1,3v0c1.7,0.3,2.3,1,2.3,3.3
				c0,2.4-0.4,3.1-1,3.6c-0.5,0.4-1.3,0.6-2.3,0.6h-7.6V350.3z M472.5,356.3c0.6,0,0.9,0,1-0.2c0.2-0.2,0.3-0.5,0.3-1.9
				c0-1.3-0.1-1.6-0.3-1.8c-0.1-0.1-0.4-0.2-1-0.2h-4.8v4H472.5z M473.6,358.5c-0.1-0.1-0.3-0.2-1-0.2h-4.9v4.6h4.9
				c0.6,0,0.9,0,1-0.2c0.2-0.2,0.3-0.5,0.3-2.1C474,359,473.8,358.6,473.6,358.5z"/>
			<path d="M481.9,362.9h7v2h-9.4v-14.5h2.3V362.9z"/>
			<path d="M499.3,360.8h-5.5l-1.3,4.1h-2.3l4.6-14c0.1-0.5,0.3-0.6,0.8-0.6h2c0.5,0,0.7,0.1,0.8,0.6l4.6,14h-2.5L499.3,360.8z
				 M494.4,358.8h4.3l-2-6.5h-0.3L494.4,358.8z"/>
			<path d="M511.8,350.3c1.8,0,2.7,0.3,3.5,1c1,0.9,1.4,2.7,1.4,6.2c0,3.6-0.5,5.4-1.4,6.3c-0.8,0.7-1.8,1-3.5,1h-6.3v-14.5H511.8z
				 M513.6,352.8c-0.5-0.4-0.9-0.5-1.8-0.5h-4v10.5h4c0.9,0,1.3-0.1,1.8-0.5c0.6-0.5,0.8-1.5,0.8-4.8
				C514.4,354.3,514.1,353.3,513.6,352.8z"/>
		</g>
	</g>
</g>
</svg>
