<?xml version="1.0" encoding="utf-8"?>
<!-- Generator: Adobe Illustrator 26.0.3, SVG Export Plug-In . SVG Version: 6.00 Build 0)  -->
<svg version="1.1" id="Layer_1" xmlns="http://www.w3.org/2000/svg" xmlns:xlink="http://www.w3.org/1999/xlink" x="0px" y="0px"
	 viewBox="0 0 523.4 226.5" style="enable-background:new 0 0 523.4 226.5;" xml:space="preserve">
<g>
	<path d="M213.9,130.4L193.4,84h1.8h6h0.4h1.5l10.8,24.9L224.7,84h1.9h7.8L213.9,130.4z"/>
	<path d="M240.1,84h9.1v45.6h-9.1V84z"/>
	<path d="M275.1,130.4L254.6,84h1.8h6h0.4h1.5l10.8,24.9L285.9,84h1.9h7.8L275.1,130.4z"/>
	<path d="M327,84v9.1h-18.2v9.1h13.7v9.1h-13.7v9.1H327v9.1h-18.2h-9.1V84H327z"/>
	<path d="M360.3,109.2V84h9.1v46.5L342,104.4v25.2h-9.1V83.1L360.3,109.2z"/>
	<path d="M386.1,84.1c6.3,0,12.2,2.2,16.6,6.7c8.1,8.1,8.1,24,0,32.1c-4.5,4.4-10.4,6.7-16.6,6.7h-11.3V84.1L386.1,84.1L386.1,84.1z
		 M386.1,120.5c3.7,0,7.2-1,9.8-3.7s3.7-6.2,3.7-9.9c0-3.7-1-7.2-3.7-9.9c-2.7-2.7-6.2-3.7-9.9-3.7h-2.1v27.3H386.1L386.1,120.5z"/>
	<path d="M440.2,84v9.1H422v9.1h13.7v9.1H422v9.1h18.2v9.1H422h-9.1V84H440.2z"/>
</g>
<g>
	<polygon points="121.8,58.1 121.6,58.5 121.8,58.2 112,37.5 70.6,121.2 91.1,121.2 100.6,101.5 110.7,80.5 111.5,78.9 111.6,78.9 
		111.7,78.9 128.8,114.6 138.8,93.7 	"/>
	<polygon points="149.4,83.9 139.9,103.6 129.8,124.6 129,126.2 128.9,126.2 128.8,126.2 128.8,126.2 111.7,90.5 101.7,111.4 
		118.7,146.9 118.9,146.6 118.7,146.9 128.5,167.5 169.9,83.9 	"/>
</g>
</svg>
