<?xml version="1.0" encoding="utf-8"?>
<!-- Generator: Adobe Illustrator 26.0.3, SVG Export Plug-In . SVG Version: 6.00 Build 0)  -->
<svg version="1.1" id="Layer_1" xmlns="http://www.w3.org/2000/svg" xmlns:xlink="http://www.w3.org/1999/xlink" x="0px" y="0px"
	 viewBox="0 0 841.9 595.3" style="enable-background:new 0 0 841.9 595.3;" xml:space="preserve">
<polygon points="446.8,291.2 446.8,291.2 446.8,288.9 424.4,288.9 424.4,291 443.7,291 422.7,318.1 422.7,318.2 422.7,320.4 
	447.8,320.4 447.8,318.3 425.7,318.3 "/>
<path d="M464.2,288.2c-3.7,0-6.8,1.2-9.3,3.7c-3,3.1-4.8,8-4.7,13.3c-0.1,5,1.5,9.3,4.3,12.2c2.4,2.5,5.8,3.8,9.6,3.8
	c7.6,0,12.4-4.1,13.6-11.4l0-0.1h-2.4l0,0c-1.1,5.8-5.3,9.3-11.2,9.3c-3,0-5.7-1.1-7.7-3.1c-2.5-2.5-3.9-6.5-3.8-10.9H478l0-0.1
	c0.3-5.3-1.2-9.9-4.1-13C471.5,289.5,468.2,288.2,464.2,288.2 M452.7,302.9c0.5-6.3,4.6-12.6,11.5-12.6c7.3,0,11.3,6.3,11.4,12.6
	H452.7z"/>
<path d="M497.1,288.2c-5.2,0-9.8,3-11.3,7.4h0v-6.7h-2.4v31.5h2.4v-17.1c0-7.9,4.4-13.1,11.2-13.1c8.9,0,8.9,7.7,8.9,10.2v19.9h2.4
	v-19.5c0-1.8,0-5.1-1.5-7.8C505.2,289.8,501.9,288.2,497.1,288.2"/>
<rect x="515.6" y="276.7" width="2.5" height="6.4"/>
<rect x="515.6" y="288.9" width="2.5" height="31.5"/>
<path d="M538.4,288.2c-4.4,0-8.1,1.7-10.7,4.9c-2.4,3-3.8,7.1-3.8,11.6c0,4.5,1.3,8.6,3.8,11.6c2.6,3.2,6.3,4.9,10.7,4.9
	c4.4,0,8.1-1.7,10.7-4.9c2.4-3,3.8-7.1,3.8-11.6c0-4.5-1.3-8.6-3.8-11.6C546.5,289.9,542.7,288.2,538.4,288.2 M550.4,304.7
	c0,6.9-3.8,14.4-12,14.4c-8.3,0-12-7.4-12-14.4c0-6.9,3.8-14.4,12-14.4C546.6,290.3,550.4,297.7,550.4,304.7"/>
<path d="M572.8,288.7c-0.2,0-0.4,0-0.6,0c-5.3,0-10.2,3.1-11.5,7.2h-0.1v-7h-2.4v31.5h2.4v-17.2c0.2-4.8,1.3-6.8,3.5-9
	c2.8-2.7,5.9-3.1,7.5-3.1c0.4,0,0.8,0,1.2,0.1l0.1,0L572.8,288.7L572.8,288.7z"/>
<path d="M338.8,361.8c0,0-17.2-32.7-24.3-60.6c-3.9-15.2-4.8-29,1.6-35.3l-25.6,25.6C269.7,312.1,338.8,361.8,338.8,361.8"/>
<path d="M370.5,294.4c-21.8-15.1-47.5-35.5-54.5-28.5c-5.6,5.6-1.8,28.9,0.9,35.8c0.3,1,0.7,1.6,1,1.8
	c21.8,15.1,47.5,35.5,54.5,28.5C378.8,325.6,373,296.6,370.5,294.4"/>
<path d="M349.6,236.1c0,0,17.2,32.7,24.3,60.6c3.9,15.2,4.8,29-1.6,35.3l25.6-25.6C418.7,285.7,349.6,236.1,349.6,236.1"/>
</svg>
