<?xml version="1.0" encoding="utf-8"?>
<!-- Generator: Adobe Illustrator 26.0.3, SVG Export Plug-In . SVG Version: 6.00 Build 0)  -->
<svg version="1.1" id="Layer_1" xmlns="http://www.w3.org/2000/svg" xmlns:xlink="http://www.w3.org/1999/xlink" x="0px" y="0px"
	 viewBox="0 0 11338.6 11338.6" style="enable-background:new 0 0 11338.6 11338.6;" xml:space="preserve">
<path d="M4007.1,5406c-63.4,0-124.9,5.7-184.4,17.1c-59.6,11.4-107.1,27.3-142.6,47.5l19,178.7c53.3-15.2,100.8-26,142.6-32.3
	c41.8-6.3,84.3-9.5,127.4-9.5c162.2,0,243.4,62.1,243.4,186.3v41.8c-38-7.6-91.3-11.4-159.7-11.4c-142,0-254.2,31.7-336.5,95.1
	c-82.4,63.4-123.6,150.8-123.6,262.3c0,228.1,155.9,342.2,467.7,342.2c126.7,0,258.5-19,395.4-57v-654
	C4455.7,5541.6,4306.1,5406,4007.1,5406z M4212.4,6318.5c-45.6,12.7-97.6,19-155.9,19c-147,0-220.5-53.2-220.5-159.7
	c0-111.5,81.1-167.3,243.3-167.3c65.9,0,110.3,3.8,133.1,11.4V6318.5z"/>
<polygon points="4566,5432.6 4835.9,5432.6 5098.3,6253.9 5364.4,5432.6 5623,5432.6 5219.9,6497.2 4969,6497.2 "/>
<path d="M6094.4,5406c-63.4,0-124.9,5.7-184.4,17.1c-59.6,11.4-107.1,27.3-142.6,47.5l19,178.7c53.2-15.2,100.7-26,142.6-32.3
	c41.8-6.3,84.3-9.5,127.4-9.5c162.2,0,243.3,62.1,243.3,186.3v41.8c-38-7.6-91.2-11.4-159.7-11.4c-142,0-254.2,31.7-336.5,95.1
	c-82.4,63.4-123.6,150.8-123.6,262.3c0,228.1,155.9,342.2,467.7,342.2c126.7,0,258.6-19,395.4-57v-654
	C6543.1,5541.6,6393.5,5406,6094.4,5406z M6299.8,6318.5c-45.6,12.7-97.6,19-155.9,19c-147,0-220.5-53.2-220.5-159.7
	c0-111.5,81.1-167.3,243.4-167.3c65.9,0,110.2,3.8,133.1,11.4V6318.5z"/>
<path d="M7484.4,5869.9c0-96.3-18.4-162.8-55.1-199.6c-36.8-36.7-102.1-55.1-195.8-55.1c-22.8,0-50.1,2.6-81.8,7.6
	c-31.7,5.1-61.5,11.4-89.4,19v855.5h-247.1V5485.8c63.3-25.3,135.6-45,216.7-58.9c81.1-13.9,159.7-20.9,235.7-20.9
	c309.2,0,463.8,139.4,463.8,418.2v673h-247.1V5869.9z"/>
<path d="M8339.8,5406c-63.4,0-124.9,5.7-184.4,17.1c-59.6,11.4-107.1,27.3-142.6,47.5l19,178.7c53.3-15.2,100.8-26,142.6-32.3
	c41.8-6.3,84.3-9.5,127.4-9.5c162.2,0,243.3,62.1,243.3,186.3v41.8c-38-7.6-91.2-11.4-159.7-11.4c-142,0-254.1,31.7-336.5,95.1
	c-82.4,63.4-123.6,150.8-123.6,262.3c0,228.1,155.9,342.2,467.7,342.2c126.7,0,258.5-19,395.4-57v-654
	C8788.5,5541.6,8638.9,5406,8339.8,5406z M8545.2,6318.5c-45.6,12.7-97.6,19-155.9,19c-147,0-220.5-53.2-220.5-159.7
	c0-111.5,81.1-167.3,243.3-167.3c65.9,0,110.3,3.8,133.1,11.4V6318.5z"/>
<path d="M9708.6,5022v406.8c-45.6-15.2-105.2-22.8-178.7-22.8c-162.2,0-294.1,52.6-395.4,157.8
	c-101.4,105.2-152.1,242.8-152.1,412.5c0,177.4,49.4,313.1,148.3,406.8c98.9,93.8,243.4,140.7,433.5,140.7
	c119.1,0,249.6-19,391.6-57V5022H9708.6z M9708.6,6303.3c-27.9,10.2-78.6,15.2-152.1,15.2c-210.4,0-315.6-115.3-315.6-346
	c0-116.5,27.2-206.6,81.8-269.9c54.5-63.3,131.1-95.1,230-95.1c60.9,0,112.8,8.9,155.9,26.6V6303.3z"/>
<path d="M11104,5907.9c0-154.6-40.6-276.9-121.7-366.9c-81.2-89.9-191.4-135-330.8-135c-152.1,0-273.2,50.7-363.1,152.1
	c-90,101.4-135,239.5-135,414.4c0,174.9,48.1,310.5,144.5,406.8c96.3,96.4,233.2,144.5,410.6,144.5c116.6,0,226.8-20.3,330.8-60.8
	l-26.6-186.3c-88.8,30.4-183.8,45.6-285.2,45.6c-207.9,0-314.3-93.8-319.4-281.4h695.8V5907.9z M10408.2,5854.6
	c7.6-81.1,32.3-144.5,74.1-190.1c41.8-45.6,95.7-68.4,161.6-68.4c65.9,0,119.1,22.8,159.7,68.4c40.5,45.6,60.8,109,60.8,190.1
	H10408.2z"/>
<path d="M3001.5,5971c-79.4-313.6-170.2-546.9-272.3-699.8c-102.2-152.9-219-231.6-350.7-236.2c-58.5-2-112.6,7.7-162.2,29.2
	c-25,10.8-51,26.9-78.2,48.2c-77-157.4-144.6-286.9-203-388.5c-66.8-116.2-127.2-205.1-181.1-267c-54-61.8-103.9-103.3-149.5-124.6
	c-45.7-21.2-91.7-32.6-138-34.2c-48.8-1.7-96.7,6.4-143.7,24.4c-47,18-95.8,49.9-146.2,95.9c-50.5,46-102.7,109-156.8,189.1
	c-54.1,80.2-111.4,182.8-171.9,308c-84.3,173.3-155,311-212.2,413c-57.3,102.1-107.8,183.5-151.4,244.4
	c-43.7,60.9-84.4,108.5-122.2,142.6c-37.8,34.2-80.6,68.8-128.2,103.8l0,0l0,0h0l0,0c62.5,237.2,154.9,422.8,277.3,556.8
	c122.3,134,253,203.5,392,208.3c113.3,4,222-30.7,326.2-104c95.3,108.9,175.2,198.5,239.5,268.8c70.6,77.1,132,136.8,184.2,179
	c52.2,42.2,98.3,70.7,138,85.6c39.8,14.8,84,23.1,132.8,24.8c90.2,3.2,173.5-22.7,250-77.6c76.4-54.9,163.2-147.9,260.7-279.2
	c71.6-95.4,130.6-173.5,176.6-234.3c46.1-60.8,88.3-115.6,126.6-164.5c38.3-48.8,77.2-96.4,116.7-142.8
	C2894,6093.9,2943,6037.5,3001.5,5971L3001.5,5971z M1243.2,6315.5c-72.1-81.6-138.4-150.1-198.9-205.4
	c-71-64.9-141.2-116.9-210.7-156.1c-69.5-39.2-143-67.4-220.5-84.8c-55.6-12.5-116.8-22.6-183.7-30.4
	c60.9-18.7,122.4-33.7,184.5-44.8c97-17.4,193.1-24.5,288.3-21.1c63.4,2.2,123.5,11.7,180.3,28.3c56.8,16.7,112.2,37,166.4,60.9
	c54.1,23.9,107.5,50.3,160.2,79c31.1,17,63.2,33.7,96.1,49.9C1411.5,6132.3,1324.1,6240.5,1243.2,6315.5z M2105.2,5311.2
	c53.9,103.8,106.3,192.8,157.3,266.8c63.9,92.8,130.2,168.6,199,227.3c68.7,58.8,142.9,102.3,222.5,130.8
	c43.9,15.7,91.3,28.8,142.1,39.1c-79.2,24-166.8,42.6-262.6,55.8c-120.3,16.6-242.6,22.7-366.9,18.4
	c-131.7-4.6-241.1-19.4-328.1-44.5c-66.5-19.1-130-41-190.5-65.7c99.4-158.6,182.9-288.4,250.4-389.4
	C1995.4,5449.5,2054.3,5370,2105.2,5311.2z M2248.8,5182.8c39.8-21.9,81.7-32,125.6-30.5c92.7,3.2,179.6,66.9,260.7,190.9
	c78.5,120,155.9,303.5,232.3,550.5c-69.4-22.2-131.5-47.3-186.6-75.3c-64.8-32.8-125-76-180.5-129.3
	c-55.5-53.3-109.3-120.7-161.4-202.1c-46.1-72-95.1-160.1-146.8-264C2212.2,5205.9,2231.2,5192.5,2248.8,5182.8z M600.4,5606.2
	c43.6-60.9,91.5-140,143.8-237.3c52.2-97.3,120.3-227.7,204.1-391.3c55.1-108.2,105.8-198.8,152.4-271.9
	c46.5-73,90-131.5,130.6-175.4c40.5-43.8,79.5-74.3,116.7-91.4c37.2-17.1,75.3-24.9,114.4-23.6c36.6,1.3,72.8,12.4,108.7,33.2
	c35.9,20.9,76.6,60.9,122.2,119.9c45.6,59.1,97.6,141.7,156.2,247.8c54.8,99.4,121,226.4,198.5,381.3
	c-56.9,62.3-122.6,148.3-197,257.7c-76.1,112-170.1,257.4-281.8,435.9c-41.1-19.4-81-39.6-119.6-60.7
	c-55.2-30-110.3-57.7-165.6-82.9c-55.3-25.2-113.8-46.2-175.5-63c-61.7-16.8-129.1-26.5-202.3-29.1c-92.7-3.2-187.7,6.9-284.9,30.4
	c-42.9,10.4-83.6,22.7-122.1,37.1C534.5,5690.1,568.2,5651.2,600.4,5606.2z M907.3,6467c-109.7-3.8-213.9-62-312.6-174.3
	c-83.5-95.1-154.7-217.5-213.5-367c71.5,10.3,135.5,24.1,192,41.3c72.5,22.1,141.6,52.7,207.4,91.7c65.8,39,131.8,90.3,197.9,153.8
	c52,50,109,109.2,171,177.7C1068.2,6444.2,987.4,6469.8,907.3,6467z M2644.8,6221.1c-40.7,46.3-84.1,99.9-130.1,160.7
	c-46.1,60.8-105,137.7-176.5,230.7c-92.2,121.6-168.3,204-228.4,247.2c-60.1,43.2-120.7,63.7-181.6,61.6
	c-34.2-1.2-66.9-7.8-98.2-19.9c-31.3-12.1-69.5-37.9-114.5-77.4c-45-39.6-101.7-96-169.9-169.4c-59.6-64.1-134.4-147.3-224.2-249.7
	c91.5-85.8,188.7-206.9,291.6-363.4c67.5,29.6,142.8,55.6,226,78c99.2,26.8,217,42.5,353.6,47.2c233.2,8.1,426.2-18.6,579-80.2
	c-0.4,0.4-0.8,0.8-1.2,1.2C2727.3,6130.3,2685.4,6174.8,2644.8,6221.1z"/>
</svg>
