<?xml version="1.0" encoding="utf-8"?>
<!-- Generator: Adobe Illustrator 26.0.3, SVG Export Plug-In . SVG Version: 6.00 Build 0)  -->
<svg version="1.1" id="Layer_1" xmlns="http://www.w3.org/2000/svg" xmlns:xlink="http://www.w3.org/1999/xlink" x="0px" y="0px"
	 viewBox="0 0 612 792" style="enable-background:new 0 0 612 792;" xml:space="preserve">
<g>
	<path d="M228.6,390.6c7.2,0,7.6,5.4,7.6,10.8c0,5.4-0.4,10.8-7.6,10.8c-7.2,0-7.5-5.8-7.5-10.8C221,396.4,221.4,390.6,228.6,390.6z
		 M213.3,418.8h7.7v-3.6c2.4,2.4,6,4,9.9,4c4.7,0,8.1-1.9,10.2-4.5c2.1-2.5,2.7-4.7,2.7-13.3c0-8.5-0.6-10.8-2.7-13.2
		c-2.2-2.6-5.6-4.5-10.2-4.5c-3.9,0-7,1.6-9.9,4.1V370h-7.7V418.8z"/>
	<path d="M272.5,406.6c0,5.4-2.2,6-8.6,6c-5.2,0-7.2-2.1-7.2-4.4c0-2.5,2.1-4.2,6.6-4.2h9.2V406.6z M272.5,418.8h7.7v-23.7
		c0-8.6-6.5-11.4-15.9-11.4c-5.7,0-9.9,1.4-12.9,5.1l6,4.2c1.4-2,3.2-2.7,7.2-2.7c5.5,0,7.8,1.2,7.8,4.5v3.6h-10.6
		c-8.2,0-12.4,4.7-12.4,10.3c0,6,5,10.6,13.5,10.6c5.2,0,7.8-1.1,9.4-3.5h0.1V418.8z"/>
	<path d="M292.1,408.1c3.3,2.9,6.9,4.5,12.1,4.5c4.4,0,7.5-1.5,7.5-4.5c0-2.5-2-3.2-4.7-3.4l-6.8-0.5c-6.3-0.5-11-3.9-11-9.9
		c0-7.1,6.2-10.7,14.2-10.7c6.7,0,11.2,1.9,15,4.7l-4.7,5.1c-3-1.9-6.1-3.2-10.2-3.2c-4.9,0-6.6,1.8-6.6,4.2c0,1.5,1.2,3,5,3.3
		l6.3,0.4c7.9,0.5,11.1,4.9,11.1,10.4c0,6.8-6.9,10.7-15.8,10.7c-6.2,0-11.9-2.1-16.8-6.2L292.1,408.1z"/>
	<path d="M333,398.3c0.1-5.3,3.5-8.1,8.1-8.1s7.8,2.8,8.1,8.1H333z M356.8,404v-5.8c0-9-7.3-14.7-15.7-14.7
		c-7.4,0-15.7,4.4-15.7,17.9c0,14.2,9.1,17.7,16.9,17.7c5.1,0,10-1.6,13.8-5.6l-5.6-4.3c-2.3,2.1-5.4,3.4-8.4,3.4
		c-5.3,0-9.1-2.9-9.1-8.6H356.8z"/>
	<path d="M366,389.4h-3.8V384h3.8v-4.6c0-6.5,4.4-9.4,10.4-9.4h5v6.6H377c-2.5,0-3.3,0.8-3.3,2.9v4.6h7.7v5.3h-7.7v29.4H366V389.4z"
		/>
	<path d="M407.6,406.6c0,5.4-2.2,6-8.6,6c-5.2,0-7.2-2.1-7.2-4.4c0-2.5,2.1-4.2,6.6-4.2h9.2V406.6z M407.6,418.8h7.7v-23.7
		c0-8.6-6.5-11.4-15.9-11.4c-5.7,0-9.9,1.4-12.9,5.1l6,4.2c1.4-2,3.2-2.7,7.2-2.7c5.5,0,7.8,1.2,7.8,4.5v3.6H397
		c-8.2,0-12.4,4.7-12.4,10.3c0,6,5,10.6,13.5,10.6c5.2,0,7.8-1.1,9.4-3.5h0.2V418.8z"/>
	<path d="M423.5,384h7.7v3.7h0.2c2.4-2.7,5.9-4.1,9.9-4.1c3.1,0,5.7,1,8,2.7l-5.6,6c-1.8-1.2-3.1-1.7-5-1.7c-3.8,0-7.5,2.2-7.5,7.3
		v20.9h-7.7V384z"/>
	<path d="M453.2,384h7.7v3.7h0.2c2.4-2.7,5.9-4.1,9.9-4.1c5.3,0,8.1,2,10.8,4.5c3.2-3.1,6.9-4.5,12.1-4.5c6,0,12.7,4.2,12.7,12v23.1
		h-7.7v-20.7c0-4.7-3.2-7.5-7.5-7.5c-4.4,0-7.6,2.7-7.6,7.5v20.7H476v-20.7c0-4.7-3.2-7.5-7.5-7.5c-4.4,0-7.6,2.7-7.6,7.5v20.7h-7.7
		V384z"/>
</g>
<g>
	<path d="M86.8,359.6c-2.2,0.5-4.2,2.9-4.2,5.6v61.5c0,2.7,2,5.1,4.6,5.7c0.3,0.1,18.3,5.9,48.8,5.9c30.4,0,48.4-5.8,49.2-6
		c2.2-0.4,4.2-2.9,4.2-5.6v-61.5c0-2.7-2-5.1-4.6-5.7c-0.4-0.1-18.3-5.9-48.8-5.9C105.5,353.6,87.5,359.4,86.8,359.6z M135.9,361.2
		c25.2,0,41.7,4.2,45.8,5.4c0,2.6,0,56.3,0,58.8c-4.6,1.3-20.9,5.4-45.8,5.4c-25.2,0-41.7-4.2-45.8-5.4c0-2.5,0-56.3,0-58.8
		C94.8,365.3,111.1,361.2,135.9,361.2z"/>
	<g>
		<g>
			<path d="M110.8,374.9v14.2c0.2,1.4,1.2,3.9,4.1,3.9H153c1.8,0,2.8,0.4,4,1.6c1.1,1.2,1.6,2.2,1.6,4v5.6c0,1.8-0.4,2.8-1.6,4
				c-1.1,1.1-2.1,1.5-4,1.5h-33.1l0-7.4c0-2.4-1.9-4.1-4.6-4.1c-2.6,0-4.5,1.7-4.5,4.1l0,12.1c0,1.2,0.5,2.3,1.5,3.1
				c0.7,0.9,1.8,1.4,3,1.4H153c4.6,0,7.6-1.2,10.6-4.1c3.4-3.4,4.1-6.6,4.1-10.5v-5.6c0-4.5-1.2-7.4-4.2-10.5
				c-3.1-3-6.1-4.2-10.5-4.2h-33.1v-8.9c0-2.4-2-4.2-4.6-4.2C112.7,370.7,110.8,372.5,110.8,374.9z"/>
		</g>
	</g>
</g>
</svg>
