<?xml version="1.0" encoding="utf-8"?>
<!-- Generator: Adobe Illustrator 26.0.3, SVG Export Plug-In . SVG Version: 6.00 Build 0)  -->
<svg version="1.1" id="Layer_1" xmlns="http://www.w3.org/2000/svg" xmlns:xlink="http://www.w3.org/1999/xlink" x="0px" y="0px"
	 viewBox="0 0 600 256" style="enable-background:new 0 0 600 256;" xml:space="preserve">
<title>blank</title>
<g>
	<path d="M192,198.8c0-2.5,0-156.8,0-156.8h-2.7c0,0-12.3,9-39.3,15.4V62h7.1c6.3,0,5.9,6.4,5.9,15.1v120.8c0,10.3-5.9,12-12,12v7.1
		h53v-7.1C199.5,209.9,192,208.7,192,198.8z"/>
	<path d="M98.3,107.6c-14.2,0-23.3,6.8-29.3,15.1V42h-2.7c0,0-12.3,9-39.3,15.4V62h7.1c6.7,0,6,5.8,6,15.2L40.3,191
		c0,14.9-4.3,21.8-4.3,21.8v4.2h46.5c36.4,0,58.5-31.2,58.5-60.1C141,132.1,126.7,107.6,98.3,107.6z M80.2,205.9
		c-7.1,0-11.2-2.3-11.2-2.3v-74.5c6-2.3,10.4-3.4,14.8-3.4c19,0,26.7,19.7,26.7,39C110.5,186.9,100.3,205.9,80.2,205.9z"/>
	<path d="M434,198.8v-58.7c0-22.2-10.4-30.9-26.2-30.9c-16.7,0-32.8,13.9-38.8,21.8V109h-2.9c0,0-11.1,9.1-38.1,15.6v4.4h6.9
		c6.6,0,6.1,5.9,6.1,15.3v54.5c0,7.8-4.9,11.2-12,11.1v7.1h52v-7.1c-5.4,0-12-1.8-12-11.1v-61c6.9-5.4,15.4-8.4,24.2-8.5
		c8.9,0,12.8,3.7,12.8,19.7c0,0,0,48,0,49.8c0,8.6-6,11.2-12,11.2v7h52v-7.1C439.8,209.9,434,207.4,434,198.8z"/>
	<path d="M583.4,212.5c-5.4-0.5-14.4-6-23.3-17.2L524.2,149l23.4-20.8c8-7.3,22.9-11.7,22.9-11.7l0.1-4.5H527v5.9
		c5,1.2,7,2.3,7.2,5.1s-2.2,5.3-9.1,11.8c0,0-23.5,19.1-24.5,19.9S497,155,497,153c0-1.8,0.1-110.9,0.1-110.9h-2.8
		c0,0-11.3,9-38.3,15.4V62h6.9c6.6,0,6.1,9.9,6.1,19.3v117.3c0,7.7-4.2,11.2-12,11.2v7.1h52v-7.1c-6.5,0-11.9-1.9-11.9-11
		c0-1.6-0.1-32.8-0.1-33.8s2.8-1.7,3.7-0.5c1.1,1.6,30.4,36,31.3,37c6,6.9,11.1,15.3,15.9,15.3H585v-4.2L583.4,212.5z"/>
	<path d="M306.9,206.1c-3.8,0-4.9-3.9-4.9-9.9v-48.6c1.2-28-8.8-37.9-31.5-37.8c-3.5,0-4.1,0-6.2,0c-8.4,0-32.2,17.8-36.3,20.4
		c-2.5,1.8-4.6,3.2-4.9,5.2c-0.3,1.7,1,4.7,2.8,7.3l4.4,7l3-1.3l0.2-0.1c3.1-1.4,2.5-1.1,4.8-2.2c0.8-0.3,1.4-0.8,1.9-1.5
		c0.6-1.1,1-2.3,1.1-3.5c0.5-3,1.1-12.1,10.6-14.6c3.2-0.8,10.9-1.1,14.9,0.4c8.4,3.1,9.2,12.2,9.2,15.7v12.9c0,0-7.1,2.7-13.6,5
		c-15.5,5.7-45.4,12.9-45.4,32.9c0,17.2,11.9,25.2,25.4,25.4c19.5,0.4,33.6-16.1,34.6-17v3.8c0,8.7,6.6,13.6,17,13.6
		c15.2,0,25.1-10.9,25.1-10.9l-3.2-5.5C315.8,202.6,311.1,206.1,306.9,206.1z M255.5,202.6c-7.8,0-12.3-5.9-12.3-13
		c0-13.1,12.7-19.1,24.2-23.1c4.6-1.6,8.8-3,8.8-3v27.6C270.6,198.8,261.7,202.6,255.5,202.6L255.5,202.6z"/>
</g>
</svg>
