<?xml version="1.0" encoding="utf-8"?>
<!-- Generator: Adobe Illustrator 26.0.3, SVG Export Plug-In . SVG Version: 6.00 Build 0)  -->
<svg version="1.1" id="GUIDE" xmlns="http://www.w3.org/2000/svg" xmlns:xlink="http://www.w3.org/1999/xlink" x="0px" y="0px"
	 viewBox="0 0 3350 1614" style="enable-background:new 0 0 3350 1614;" xml:space="preserve">
<style type="text/css">
	.st0{fill:#1D1D1B;}
	.st1{opacity:0.55;fill:#1D1D1B;enable-background:new    ;}
</style>
<g id="Group_8656" transform="translate(-2027.54 -309.958)">
	<path id="Path_4905" class="st0" d="M4112.9,1019l-110.5,283.5L3891,1019h-86.9l154.8,366.5h79l154.8-366.4L4112.9,1019z
		 M3675.4,1019v193.5c0,69.5-33.9,109.8-93.2,109.8s-93.2-40.3-93.2-109.8V1019h-77.4v196.6c0,109,65.5,177.7,170.6,177.7
		c105.1,0,170.6-68.7,170.6-177.7V1019H3675.4z M3170.7,1010.3c-29-0.1-57.6,6.5-83.6,19.1c-64.4,31.5-105,97.1-104.3,168.8
		c0,94,87.7,203,162.7,203c19-0.1,36.6-10,46.6-26.1c30.8-46.6,62.4-73.4,109-94c43.5-18.9,55.3-37.9,55.3-86.1
		C3356.3,1090.9,3275,1010.3,3170.7,1010.3L3170.7,1010.3z M3252.8,1256c-31.6,19.7-48.1,36.3-60.8,62.4
		c-5.2,10.4-16,16.9-27.6,16.6c-50.6,0-108.2-66.4-108.2-124.8c0-65.5,48.2-114.5,113.7-114.5c62.2,0.2,112.4,50.8,112.2,113
		c0,0,0,0,0,0c0,0.5,0,1,0,1.5C3282.1,1230.6,3275,1242.5,3252.8,1256L3252.8,1256z M2752.1,1010.3c-43.4-0.5-85.3,16-116.9,45.8
		l-0.8-223.5h-75v552.8h77.4v-37.1c31.6,28.5,72.7,44.2,115.3,44.2c104.3,0,183.2-82.9,183.2-191.1
		C2935.4,1093.3,2856.4,1010.3,2752.1,1010.3z M2745.8,1321.5c-63.2,0-110.6-51.3-110.6-120.1c0-68.7,47.4-120.1,110.6-120.1
		c63.2,0,110.6,51.3,110.6,120.1C2856.4,1270.2,2809,1321.5,2745.8,1321.5L2745.8,1321.5z M4845.6,1019h-112.1l-0.8-186.4h-75V1019
		h-51.6v67.1h51.6v299.4h76.6l-0.8-299.4h112.1V1019z"/>
	<path id="Path_5072" class="st1" d="M4427.3,1081.6c-7.8-2.4-15.9-3.9-24-4.6C4411.5,1077.5,4419.6,1079.1,4427.3,1081.6z"/>
	<g id="qDpOXt.tif" transform="translate(4643.737 594.107)">
		<g id="Group_8631">
			<path id="Path_5073" class="st0" d="M-69.4,632.1h-283.1c5.7,35.6,19.9,65.1,52,83.1c17,9.1,35.9,13.8,55.2,13.5
				c33.4,0.5,64.8-6.2,91.8-27.4c8.1-7,15.9-14.5,23.2-22.3l51.8,50.5C-89,742-101,753-114.2,762.2c-42.7,29.9-90.5,40.8-141.8,38
				c-41.6-1.4-81.3-17.4-112.3-45.2c-35.1-31.5-53.6-71.8-58.8-118.4c-5.4-40.2,0.8-81.1,17.8-117.9c27.1-56.6,72.6-88.2,133.5-97.6
				c37.6-6.6,76.4-1.3,110.8,15.3c48.2,23.8,76.2,64.1,89.6,115.5C-68.8,578.1-66.7,605.2-69.4,632.1z M-351,570h202.7
				c-6.5-46.6-45.1-82.1-92.1-84.7C-299.3,482-341,513.8-351,570L-351,570z"/>
		</g>
	</g>
</g>
</svg>
