<?xml version="1.0" encoding="utf-8"?>
<!-- Generator: Adobe Illustrator 26.0.3, SVG Export Plug-In . SVG Version: 6.00 Build 0)  -->
<svg version="1.1" id="_x3C_Layer_x3E_" xmlns="http://www.w3.org/2000/svg" xmlns:xlink="http://www.w3.org/1999/xlink" x="0px"
	 y="0px" viewBox="0 0 612 792" style="enable-background:new 0 0 612 792;" xml:space="preserve">
<g>
	<path d="M127.5,491.7h-6.1c-5.8,0-10.3-0.3-13.3-1c-3-0.6-6.3-1.9-9.7-3.9c-5.7-3.2-10.1-7.6-13.4-13.1c-3.4-5.8-5.1-12.1-5.1-19
		c0-9.6,3.1-17.9,9.4-24.8c5.6-6.1,12.2-9.9,20-11.4c2.6-0.5,6.6-0.8,11.9-0.8h6.3v20.2h-5.4c-5.4,0-9.6,0.8-12.6,2.5
		c-2.6,1.4-4.6,3.4-6.1,6c-1.5,2.6-2.2,5.3-2.2,8.3c0,3,0.8,5.8,2.3,8.4c1.5,2.6,3.6,4.6,6.1,6c2.9,1.6,7.1,2.4,12.4,2.4h5.5V491.7z
		"/>
	<path d="M175.9,415.4c11.4,0,20.9,4.3,28.8,13c6.8,7.4,10.2,16.3,10.2,26.7c0,6.2-1.6,12.3-4.9,18.2c-3.4,6.2-8,11-13.9,14.6
		c-6.2,3.8-12.9,5.7-20.2,5.7c-7.4,0-14.3-1.9-20.7-5.8c-6.1-3.8-10.8-8.8-14.1-15c-3-5.7-4.5-11.8-4.5-18.2
		c0-11.1,4.1-20.7,12.4-28.6C156.3,419.1,165.3,415.5,175.9,415.4z M175.8,435.9c-5.4,0-10,2.2-13.8,6.7c-2.8,3.3-4.2,7.3-4.2,12.1
		c0,5.5,1.9,10.1,5.6,13.7c3.5,3.3,7.6,5,12.3,5c5.4,0,9.8-2,13.3-6.1c3.1-3.7,4.7-7.8,4.7-12.4c0-5.9-2.2-10.7-6.5-14.5
		C184,437.5,180.2,436,175.8,435.9z"/>
	<path d="M292.4,491.7h-21v-39.2c0-5.4-0.6-9.1-1.7-11.1c-0.9-1.7-2.3-3.2-4.3-4.3c-2-1.1-3.9-1.7-5.9-1.7c-2,0-4,0.6-6,1.7
		c-2,1.2-3.5,2.6-4.5,4.3c-0.7,1.3-1.1,2.6-1.3,3.9c-0.2,1.3-0.3,3.8-0.3,7.4v39.1h-21v-38.2c0-5.7,0.5-10.4,1.4-14
		c0.9-3.6,2.6-7.1,5-10.4c3.1-4.2,6.9-7.4,11.4-9.9c4.8-2.5,9.9-3.8,15.2-3.8c7.8,0,14.8,2.5,20.9,7.6c4.2,3.5,7.3,7.7,9.2,12.3
		c1.9,4.7,2.8,10.5,2.8,17.3V491.7z"/>
	<path d="M350.4,419.6v19.2c-5.7-3.1-11.2-4.6-16.6-4.6c-5.9,0-8.8,1.6-8.8,4.7c0,1.2,0.5,2.3,1.6,3.1c1.1,0.8,3.2,1.7,6.3,2.6
		c4.1,1.2,7.2,2.3,9.2,3.2c2,0.9,3.8,2.1,5.4,3.7c4.8,4.5,7.3,10.4,7.3,17.7c0,7.8-3,14-8.9,18.6c-5,3.9-11.5,5.8-19.6,5.8
		c-7.7,0-14.9-1.6-21.7-4.7v-20.9c4.5,2.6,8.1,4.3,10.9,5.3c2.7,0.9,5.6,1.4,8.7,1.4c6.3,0,9.4-1.7,9.4-5.2c0-1.6-0.6-2.8-1.8-3.6
		c-1.2-0.8-3.9-1.7-8.1-2.7c-6-1.6-10.4-3.6-13.2-6.2c-4.5-4.2-6.8-9.6-6.8-16.4c0-8.1,3.2-14.5,9.6-19.1c5.3-3.8,11.6-5.7,19-5.7
		C337.4,415.4,343.4,416.8,350.4,419.6z"/>
	<path d="M410.5,491.7h-6.1c-5.8,0-10.3-0.3-13.3-1c-3-0.6-6.3-1.9-9.7-3.9c-5.7-3.2-10.1-7.6-13.4-13.1c-3.4-5.8-5.1-12.1-5.1-19
		c0-9.6,3.1-17.9,9.4-24.8c5.6-6.1,12.2-9.9,20-11.4c2.6-0.5,6.6-0.8,11.9-0.8h6.3v20.2h-5.4c-5.4,0-9.6,0.8-12.6,2.5
		c-2.6,1.4-4.6,3.4-6.1,6c-1.5,2.6-2.2,5.3-2.2,8.3c0,3,0.8,5.8,2.3,8.4c1.5,2.6,3.6,4.6,6.1,6c2.9,1.6,7.1,2.4,12.4,2.4h5.5V491.7z
		"/>
	<path d="M433.5,386.2c3.4,0,6.1,1.2,8.4,3.4c2.4,2.4,3.4,5,3.4,8.4c0,3.2-1.2,6.1-3.5,8.4c-2.4,2.4-5,3.5-8.2,3.5
		c-3.2,0-6.1-1.2-8.4-3.5c-2.2-2.4-3.4-5.2-3.4-8.4c0-3.4,1.2-6.1,3.4-8.2C427.4,387.4,430.1,386.2,433.5,386.2z"/>
	<rect x="423.5" y="417.6" width="21.2" height="74"/>
	<path d="M533.3,491.7h-21v-6.1c-6.7,4.6-13.3,6.9-19.7,6.9c-5.8,0-11.4-1.6-16.9-4.9c-5.5-3.2-9.9-7.6-13.2-12.9
		c-3.8-6.2-5.6-12.8-5.6-19.8c0-10.7,3.9-19.8,11.6-27.3c7.4-7.2,16.3-10.7,26.6-10.7c8.6,0,16.3,2.6,23.1,7.8
		c5.4,4,9.3,8.8,11.6,14.2c2.4,5.4,3.6,12.2,3.6,20.3V491.7z M494.9,437.3c-5.4,0-9.8,2.2-13.2,6.5c-2.6,3.3-3.9,6.9-3.9,11
		c0,5.2,1.8,9.5,5.6,13c3.3,3.2,7.2,4.8,11.8,4.8c5.4,0,9.7-2.2,13-6.5c2.6-3.4,3.9-7.1,3.9-11c0-5.5-2.1-10.1-6.4-13.8
		C502.6,438.8,499,437.5,494.9,437.3z"/>
	<path d="M380.6,375.7c4.7,7.2,16.1,13.3,29.6,16.3c-0.2-0.3-0.3-0.7-0.3-1c-8.9-2.4-16.2-6.2-19.4-10.8
		c-5.9-8.2,4.4-15.8,22.7-16.8c18.3-1,38.2,5,44.1,13.3c3.7,5.2,0.8,10.1-6.2,13.3c0,0.3,0,0.5,0,0.7c10.4-4,14.8-11.3,9.8-19
		c-7.1-11.3-31-19.5-53-18.5C385.9,354.4,373.6,364.5,380.6,375.7z"/>
	<path d="M309.1,349.3c9.6,15.8,33.5,29.4,62.3,37c-1.7-1.2-3-2.4-4.2-3.7c-17-5.7-30.3-13.6-36.5-22.7
		c-12.5-18.7,10.6-34.8,51.3-36.2c40.9-1.2,84.5,13,97.1,31.6c6.9,10.4,2.9,20.2-9.3,26.9c-0.2,0.7-0.3,1.3-0.5,2
		c19.9-8.9,27.8-23.7,18-40c-15.3-25.2-67.6-44.9-116.8-43.4C321.6,302.2,294,324.1,309.1,349.3z"/>
</g>
</svg>
