<?xml version="1.0" encoding="utf-8"?>
<!-- Generator: Adobe Illustrator 26.0.3, SVG Export Plug-In . SVG Version: 6.00 Build 0)  -->
<svg version="1.1" id="Layer_1" xmlns="http://www.w3.org/2000/svg" xmlns:xlink="http://www.w3.org/1999/xlink" x="0px" y="0px"
	 viewBox="0 0 595.3 453.5" style="enable-background:new 0 0 595.3 453.5;" xml:space="preserve">
<style type="text/css">
	.st0{fill-rule:evenodd;clip-rule:evenodd;stroke:#000000;stroke-width:0.54;}
</style>
<g>
	<g>
		<path d="M76.4,254.7c-0.8,3.6-1.8,6.6-3.2,8.9c-1.4,2.3-3,4-5.1,5.1c-2,1.1-4.5,1.6-7.4,1.6c-3.1,0-5.9-0.8-8.2-2.4
			c-2.3-1.6-4.2-4.1-5.7-7.7c-1.5-3.6-2.6-8.1-3.3-13.8c-0.7-5.6-1.1-12.5-1.1-20.7c0-8.1,0.4-15,1.1-20.7s1.8-10.4,3.3-14
			c1.5-3.6,3.4-6.2,5.7-7.9c2.3-1.7,5.1-2.5,8.4-2.5c3.2,0,5.8,0.7,8,2.1c2.1,1.4,3.8,3.3,5.1,5.8c1.2,2.5,2.2,5.5,2.8,9
			c0.6,3.5,1,7.4,1.2,11.6l-14.2,2.5c-0.1-3.1-0.2-5.7-0.3-7.8c-0.1-2.1-0.2-3.7-0.4-5c-0.2-1.2-0.5-2.1-0.8-2.7
			c-0.3-0.5-0.8-0.8-1.4-0.8c-0.7,0-1.3,0.4-1.7,1.1c-0.5,0.7-0.8,2.1-1,4.2c-0.2,2.1-0.4,5.1-0.5,9c-0.1,3.9-0.2,9.1-0.2,15.5
			c0,6.7,0.1,12,0.2,16c0.1,4,0.3,7,0.6,9.1c0.3,2.1,0.6,3.5,1.1,4.2c0.5,0.7,1.1,1,1.8,1c0.5,0,0.9-0.2,1.2-0.6s0.6-1.1,0.8-2.2
			c0.2-1.1,0.5-2.7,0.6-4.9c0.2-2.1,0.3-5,0.5-8.4l14,2.5C77.7,246.9,77.2,251.1,76.4,254.7z"/>
	</g>
	<g>
		<path d="M117.5,225.4c0,8.1-0.4,15-1.1,20.6c-0.7,5.7-1.8,10.3-3.3,13.9c-1.5,3.6-3.4,6.2-5.8,7.9c-2.4,1.7-5.2,2.5-8.4,2.5
			c-3.3,0-6-0.8-8.3-2.4c-2.3-1.6-4.2-4.2-5.7-7.8c-1.5-3.6-2.6-8.2-3.3-13.8c-0.7-5.6-1-12.5-1-20.6c0-8,0.4-14.9,1.1-20.6
			s1.8-10.4,3.3-14c1.5-3.6,3.4-6.2,5.7-7.9c2.3-1.7,5.1-2.5,8.4-2.5c3.2,0,6,0.8,8.3,2.5c2.3,1.7,4.3,4.3,5.8,7.8
			c1.5,3.6,2.6,8.2,3.3,13.8C117.1,210.6,117.5,217.4,117.5,225.4z M102.5,225.7c0-6.5-0.1-11.8-0.2-15.7c-0.1-4-0.3-7-0.6-9.2
			c-0.3-2.1-0.6-3.6-1.1-4.2c-0.5-0.7-1-1-1.7-1c-0.7,0-1.3,0.3-1.7,1c-0.5,0.7-0.8,2-1,4.1c-0.2,2.1-0.4,5.1-0.5,9.1
			c-0.1,4-0.2,9.2-0.2,15.7c0,6.6,0.1,11.9,0.2,15.8c0.1,3.9,0.3,7,0.5,9.1c0.2,2.2,0.6,3.6,1,4.2c0.5,0.7,1,1,1.7,1
			c0.7,0,1.3-0.3,1.7-1c0.5-0.7,0.8-2,1.1-4.1c0.3-2.1,0.5-5.1,0.6-9C102.4,237.5,102.5,232.3,102.5,225.7z"/>
		<path d="M152.6,268.9v-17.9c0-5,0.1-9.8,0.2-14.3c0.1-4.5,0.2-8.7,0.4-12.7c-0.3,1.7-0.6,3.7-1,6c-0.4,2.3-0.9,4.6-1.4,7.1
			c-0.5,2.4-1,4.9-1.5,7.5c-0.5,2.6-1,5-1.5,7.3l-4.2,19.6l-4.2-19.6c-0.5-2.3-1-4.7-1.5-7.3c-0.5-2.5-1-5-1.5-7.5
			c-0.5-2.5-0.9-4.9-1.3-7.1c-0.4-2.3-0.7-4.3-1-6c0.1,3.8,0.3,8,0.4,12.6c0.1,4.6,0.2,9.4,0.2,14.4v17.9h-12.7v-86.8H135l3.9,19.5
			c1,4.9,1.9,9.7,2.8,14.5c0.9,4.8,1.5,9.1,1.9,12.8c0.4-3.7,1.1-8,2-12.9c0.9-4.9,1.8-9.7,2.8-14.5l3.7-19.3h13.1v86.8H152.6z"/>
		<path d="M205.3,207.4c0,4.8-0.5,8.9-1.4,12.3c-0.9,3.4-2.2,6.2-3.7,8.3c-1.6,2.2-3.5,3.7-5.7,4.7c-2.2,1-4.6,1.5-7.1,1.5H185v34.7
			h-14.3v-86.8h17.8c2.2,0,4.3,0.4,6.4,1.2c2,0.8,3.8,2.2,5.4,4.2c1.6,2,2.8,4.6,3.7,7.8C204.8,198.6,205.3,202.6,205.3,207.4z
			 M190.6,208.1c0-4.8-0.3-8.1-0.9-9.9c-0.6-1.8-1.7-2.7-3.4-2.7h-1.5v25.2h1.2c1.7,0,2.9-1,3.5-2.9
			C190.3,215.9,190.6,212.6,190.6,208.1z"/>
		<path d="M239.6,263.9c-2.8,4.3-7.5,6.4-13.9,6.4c-5.9,0-10.3-2.1-13.3-6.4c-3-4.3-4.4-10.2-4.4-17.8v-64h14.7v65.2
			c0,3.1,0.3,5.2,0.8,6.4c0.5,1.2,1.4,1.8,2.5,1.8c1.1,0,1.9-0.6,2.4-1.8c0.5-1.2,0.7-3.3,0.7-6.4v-65.2h14.7v63.1
			C243.9,253.4,242.5,259.7,239.6,263.9z"/>
		<path d="M270.7,197.5v71.4H256v-71.4h-9.2v-15.4H280v15.4H270.7z"/>
		<path d="M282.9,268.9v-86.8h29.6v15.4h-15v18h11.5v15.4h-11.5v22.7h15.6v15.4H282.9z"/>
		<path d="M337.6,268.9l-5.1-37.1h-1.2v37.1H317v-86.8h17.8c2.3,0,4.5,0.4,6.5,1.3s3.8,2.3,5.4,4.2c1.5,1.9,2.7,4.5,3.6,7.6
			c0.9,3.1,1.4,6.9,1.4,11.4c0,4.8-0.5,8.9-1.6,12.2c-1,3.3-2.6,6.1-4.5,8.1l6.7,41.9H337.6z M337,207.3c0-4.5-0.3-7.5-0.9-9.2
			c-0.6-1.7-1.7-2.5-3.4-2.5h-1.5V219h1.2c1.7,0,2.9-0.9,3.5-2.7C336.7,214.5,337,211.5,337,207.3z"/>
		<path d="M397.2,268.9h-13.5l-1.5-15.4c-0.6-6.4-1.2-12.7-1.7-18.7c-0.5-6-0.9-11.3-1.1-15.7c-0.2,4.5-0.6,9.7-1,15.7
			c-0.5,6-1,12.2-1.7,18.7l-1.6,15.5h-13.5l-7.8-86.8H367l1.1,17.2c0.1,2.4,0.3,5,0.5,7.7c0.2,2.7,0.3,5.6,0.5,8.6
			c0.1,3,0.3,6,0.4,9c0.1,3,0.2,5.9,0.3,8.7c0.1-2.8,0.3-5.7,0.5-8.8c0.2-3.1,0.4-6.1,0.7-9c0.2-2.9,0.5-5.8,0.7-8.6
			c0.2-2.8,0.4-5.3,0.6-7.6l1.4-17.2h11.7l1.5,17.2c0.2,2.3,0.4,4.9,0.7,7.6c0.2,2.8,0.5,5.6,0.7,8.6c0.2,2.9,0.4,5.9,0.6,9
			c0.2,3.1,0.4,6,0.5,8.8c0.1-2.8,0.2-5.7,0.3-8.7c0.1-3,0.3-6,0.4-9c0.1-3,0.3-5.8,0.4-8.6c0.1-2.7,0.3-5.3,0.4-7.7l1-17.2h13.3
			L397.2,268.9z"/>
	</g>
	<g>
		<path d="M442.6,225.4c0,8.1-0.4,15-1.1,20.6c-0.7,5.7-1.8,10.3-3.3,13.9c-1.5,3.6-3.4,6.2-5.8,7.9c-2.4,1.7-5.2,2.5-8.4,2.5
			c-3.3,0-6-0.8-8.3-2.4c-2.3-1.6-4.2-4.2-5.7-7.8c-1.5-3.6-2.6-8.2-3.3-13.8c-0.7-5.6-1-12.5-1-20.6c0-8,0.4-14.9,1.1-20.6
			c0.7-5.7,1.8-10.4,3.3-14c1.5-3.6,3.4-6.2,5.7-7.9c2.3-1.7,5.1-2.5,8.4-2.5c3.2,0,6,0.8,8.3,2.5c2.3,1.7,4.3,4.3,5.8,7.8
			c1.5,3.6,2.6,8.2,3.3,13.8C442.2,210.6,442.6,217.4,442.6,225.4z M427.6,225.7c0-6.5-0.1-11.8-0.2-15.7c-0.1-4-0.3-7-0.6-9.2
			c-0.3-2.1-0.6-3.6-1.1-4.2c-0.5-0.7-1-1-1.7-1c-0.7,0-1.3,0.3-1.7,1c-0.5,0.7-0.8,2-1,4.1c-0.2,2.1-0.4,5.1-0.5,9.1
			c-0.1,4-0.2,9.2-0.2,15.7c0,6.6,0.1,11.9,0.2,15.8c0.1,3.9,0.3,7,0.5,9.1c0.2,2.2,0.6,3.6,1,4.2c0.5,0.7,1,1,1.7,1
			c0.7,0,1.3-0.3,1.7-1c0.5-0.7,0.8-2,1.1-4.1c0.3-2.1,0.5-5.1,0.6-9C427.5,237.5,427.6,232.3,427.6,225.7z"/>
		<path d="M467.6,268.9l-5.1-37.1h-1.2v37.1h-14.3v-86.8h17.8c2.3,0,4.5,0.4,6.5,1.3s3.8,2.3,5.4,4.2c1.5,1.9,2.7,4.5,3.6,7.6
			c0.9,3.1,1.4,6.9,1.4,11.4c0,4.8-0.5,8.9-1.6,12.2c-1,3.3-2.6,6.1-4.5,8.1l6.7,41.9H467.6z M466.9,207.3c0-4.5-0.3-7.5-0.9-9.2
			c-0.6-1.7-1.7-2.5-3.4-2.5h-1.5V219h1.2c1.7,0,2.9-0.9,3.5-2.7C466.6,214.5,466.9,211.5,466.9,207.3z"/>
		<path d="M486,268.9v-86.8h14.7v71.4h13v15.4H486z"/>
		<path d="M552.8,224.9c0,15-1.6,26-4.8,33.2c-3.2,7.2-8.3,10.8-15.2,10.8h-15.5v-86.8H534c3.7,0,6.7,1,9.1,2.9
			c2.4,1.9,4.3,4.7,5.7,8.4c1.4,3.6,2.4,8.1,3,13.5C552.5,212.2,552.8,218.2,552.8,224.9z M537.8,225.1c0-6.5-0.1-11.7-0.3-15.6
			c-0.2-3.9-0.5-6.8-0.9-8.8c-0.4-2-0.9-3.3-1.6-3.8c-0.6-0.6-1.4-0.9-2.3-0.9h-1.2v59h1c0.9,0,1.7-0.3,2.3-0.9
			c0.7-0.6,1.2-2,1.6-4.1s0.7-5.1,0.9-9.1S537.8,231.7,537.8,225.1z"/>
	</g>
	<rect x="40.3" y="273.5" class="st0" width="509.9" height="12.2"/>
</g>
</svg>
