<?xml version="1.0" encoding="utf-8"?>
<!-- Generator: Adobe Illustrator 26.0.3, SVG Export Plug-In . SVG Version: 6.00 Build 0)  -->
<svg version="1.1" id="Layer_1" xmlns="http://www.w3.org/2000/svg" xmlns:xlink="http://www.w3.org/1999/xlink" x="0px" y="0px"
	 viewBox="0 0 841.9 1190.5" style="enable-background:new 0 0 841.9 1190.5;" xml:space="preserve">
<g>
	<path d="M360.4,561.4h-13.7c-9.8,0-22,0-28.4,11.3c-4.5,7.7-4.3,29.6,0.3,37.8c6.3,11.3,19.7,11.2,28.6,11.1l18.2,0
		c12.7,0,23.4-1.3,26-14.5l-12,0c-2.9,4.8-7.5,4.7-14.5,4.7h-21c-3.8,0-9.6,0.1-13.6-4c-3.6-3.5-3.8-8.3-3.8-12.3
		c1.6,0,65.2,0,65.2,0s0-2.4,0-3.3c0-6.9-0.5-15.5-3.5-20.1C383.7,564.7,374.3,561.1,360.4,561.4z M375.1,573.7
		c5.7,3,4.9,11.4,4.9,12.1c-1.4,0-51.7,0-53.4,0c0.1-4.3,0.5-9,5.7-12.1c1.7-0.9,3.4-1.7,7.8-2h26.6
		C366.7,571.7,371.2,571.7,375.1,573.7z"/>
	<path d="M414.3,561.4h-9.9v60.2h11.1V596l0-2.3c-0.1-7.4-0.2-15.1,7.2-19.4c6.5-4,33.2-4,40.1,0c4.7,2.6,4.6,11.1,4.5,16.2l0,1.5
		v29.5h11.1v-31.9c0-9.1,0-16.4-5.4-21.3c-10.9-9.7-41.5-6.3-41.8-6.3c-7,1-12,3.2-16,8.7c0-2.4,0-9.3,0-9.3H414.3"/>
	<path d="M509.5,547.4h-10.3c0,0,0,12.6,0,14c-1.4,0-12.4,0-12.4,0v9.9c0,0,11,0,12.4,0c0,1.4,0,25.7,0,26.3
		c0,7.6,0.6,16.4,9.1,20.9c6.9,3.9,29,4.1,35.2,0.3c8.2-4.7,8-12.9,7.9-20v-1.9h-10v2.3c-0.1,3.8-0.6,9.2-4.4,11.4
		c-6.2,3.7-19.7,1.5-22.2-0.1c-4.2-2.6-4.6-6.8-4.6-13.6c0-0.8,0-5.2,0-5.2s0-19.1,0-20.6c1.5,0,39.7,0,39.7,0v-9.9
		c0,0-38.2,0-39.7,0c0-1.4,0-14,0-14H509.5"/>
	<path d="M576.4,568.2c0-2,0-6.9,0-6.9h-10.8v60.2h11.1v-29.7c-0.1-6.5-0.2-14.6,5.8-18.1c5.5-3.4,25.4-3.3,30.5-0.6
		c5.5,2.9,5.4,8.2,5.3,12.1l0,2.4l10.2,0c0,0,0.8-12.2-2.5-17c-4.9-8.3-15.9-8.7-19.6-8.9c0,0-2.6-0.1-2.6-0.1
		C596.9,561.2,584.3,560.6,576.4,568.2"/>
	<path d="M705.7,568c-6.4-6.7-15.7-6.7-26.4-6.7h-16.3c-9.3,0-15.3,0.3-20.3,5.3c-3.3,3.2-4,7.3-4.1,11h11.6c0,0,0-0.7,0.4-2.6
		c0.8-3.4,6.5-3.9,13.2-3.9l15.9,0c8,0,13.8,0,17,3.3c2.8,2.9,3,6.1,3,12.1c0,0.5,0,2,0,2.3c-3.9-3.5-8.8-3.7-13.6-3.6l-2.9,0.1
		l-23.3,0c-9.1-0.1-17.8-0.1-22.2,7.2c-2.9,4.4-2.2,18,0,21.8c4.3,7.4,13.6,7.3,21.8,7.2l2.7,0h21.5c5.4,0,11.8-0.4,15.8-3.6
		c0,1.2,0,3.6,0,3.6h11.1v-31.9C710.9,580.2,710.9,573.4,705.7,568z M699.7,604.1c0,5.4-3.6,8.3-9.1,8.3h-35.8c-5,0-9.1-3.5-9.1-8.3
		v-1.2c0-4.7,3.9-8.3,9.1-8.3h35.8c5.3,0,9.1,3.6,9.1,8.3V604.1z"/>
</g>
<g>
	<path d="M268.1,504.6H167.4c-11.3,0-20.5,9.2-20.5,20.5l0,42.8c24.9-26.7,64.5-43.2,117.7-44.5l4.1-0.1l0.3,4.1
		c2.9,40.3-7.8,71-29.9,93.7c-14.1,14.4-35.4,24.4-51.5,29.7h80.5c11.3,0,20.5-9.2,20.5-20.5v-105
		C288.6,513.8,279.4,504.6,268.1,504.6"/>
	<path d="M259.1,533.3c-50.3,1.9-85.6,20-108.1,45.8c-1.4,1.6-2.7,3.3-4,4.9l0,63.3c16.3-0.6,57.8-6.2,85.8-35
		c17.9-18.4,26.6-40.7,26.6-72.3C259.3,537.2,259.2,536.3,259.1,533.3z M181.6,567.3h39.3v39.3h-39.3V567.3z"/>
</g>
</svg>
