<?xml version="1.0" encoding="utf-8"?>
<!-- Generator: Adobe Illustrator 26.0.3, SVG Export Plug-In . SVG Version: 6.00 Build 0)  -->
<svg version="1.1" id="AW" xmlns="http://www.w3.org/2000/svg" xmlns:xlink="http://www.w3.org/1999/xlink" x="0px" y="0px"
	 viewBox="0 0 504.5 262" style="enable-background:new 0 0 504.5 262;" xml:space="preserve">
<g>
	<path d="M402.7,163.4l8.4,4.8c0.5,0.3,0.8,0.8,0.8,1.4l0,9.7c0,0.8-0.9,1.3-1.6,0.9l-8.4-4.8c-0.5-0.3-0.8-0.8-0.8-1.4l0-9.7
		C401.1,163.5,402,163,402.7,163.4z M409.4,151.7l8.4,4.8c0.5,0.3,1.1,0.3,1.6,0l8.4-4.8c0.7-0.4,0.7-1.4,0-1.8l-8.4-4.8
		c-0.5-0.3-1.1-0.3-1.6,0l-8.4,4.8C408.7,150.3,408.7,151.3,409.4,151.7z M379.1,149.8l-18.8-10.9c-0.6-0.3-1.2-0.3-1.8,0
		l-18.8,10.9c-0.8,0.5-0.8,1.6,0,2.1l18.8,10.9c0.6,0.3,1.2,0.3,1.8,0l18.8-10.9C379.9,151.4,379.9,150.2,379.1,149.8z M386.4,163.2
		l-12.6,7.2c-0.4,0.2-0.6,0.6-0.6,1l0,14.5c0,0.6,0.7,1,1.2,0.7l12.6-7.2c0.4-0.2,0.6-0.6,0.6-1l0-14.5
		C387.6,163.2,387,162.8,386.4,163.2z M448.5,52.1l-45.2,26.1c-1.3,0.8-2.2,2.2-2.2,3.7l0,52.2c0,2.2,2.4,3.6,4.4,2.5l45.2-26.1
		c1.3-0.8,2.1-2.2,2.1-3.7l0-52.2C452.8,52.4,450.4,51,448.5,52.1z M351.7,80.4l0,36.3c0,1.1,0.5,2.1,1.5,2.6l31.4,18.1
		c1.3,0.8,3-0.2,3-1.7l0-36.3c0-1.1-0.6-2.1-1.5-2.6l-31.4-18.1C353.4,77.9,351.7,78.9,351.7,80.4z"/>
	<g>
		<g>
			<path d="M317.5,153.8c-0.3-0.8-1-1.1-1.8-0.7c-0.8,0.5-15.6,9.3-15.6,9.3v-8.2c0-0.9-0.6-1.2-1.4-0.9l-4.8,1.7
				c-0.7,0.2-0.9,0.7-0.9,1.4v35.8c0,0.7,0.5,1.2,1.2,1.2h4.7c0.7,0,1.2-0.5,1.2-1.2v-22c0,0,17.5-10.8,18.2-11.2
				c0.7-0.4,1.1-0.8,0.7-1.6C318.7,156.8,317.5,153.8,317.5,153.8"/>
			<path d="M90.5,171.1c0-10-6.8-18.4-18.2-18.4c-11.2,0-20.5,8.1-20.5,21.2c0,12,7.8,20.7,21,20.7c6,0,12-2.1,16.5-6.1
				c0.6-0.5,0.6-1.2,0.2-1.7l-2.2-3.5c-0.4-0.7-1.1-0.7-1.7-0.2c-4.1,3-8.2,4.5-12.6,4.5c-8.4,0-13-5.5-13.6-12.4h30.1
				c0.8,0,1.2-0.6,1.2-1.2V171.1z M59.6,169c1.6-5.7,6.1-9.2,12.4-9.2c6.9,0,10.6,4.1,10.9,9.2H59.6z"/>
			<path d="M131,210.3h4.7c0.7,0,1.2-0.5,1.2-1.2v-54.7c0-0.9-0.6-1.2-1.5-0.9l-4.7,1.7c-0.7,0.2-0.9,0.7-0.9,1.4v1.7
				c-2.6-3.5-7.7-5.6-13.1-5.6c-10.9,0-20.4,8.2-20.4,21c0,11.3,7.3,21,20,21c5.7,0,11.2-2.6,13.6-5.5v19.9
				C129.8,209.8,130.3,210.3,131,210.3 M116.7,187.6c-7.1,0-13.1-4.8-13.1-14s6.1-13.9,13.1-13.9c7.4,0,13.1,4.7,13.1,13.9
				C129.9,182.9,124.1,187.6,116.7,187.6"/>
			<path d="M160.6,194.7c4.3,0,9.1-1.4,12.1-5.9v3.7c0,0.7,0.5,1.2,1.2,1.2h4.7c0.7,0,1.2-0.5,1.2-1.2v-38c0-1-0.6-1.3-1.4-1
				l-4.8,1.7c-0.7,0.2-0.9,0.7-0.9,1.4v20c0,7.1-4.6,11.1-10.8,11.1c-6.2,0-10.3-3.9-10.3-11.1v-22.2c0-0.9-0.6-1.2-1.4-0.9
				l-4.8,1.7c-0.7,0.2-0.9,0.7-0.9,1.4v20.2C144.5,188.6,151.7,194.7,160.6,194.7"/>
			<g>
				<path d="M189.7,149.2l5.1-1.7c0.8-0.2,1.2-0.7,1.2-1.5v-6.1c0-0.7-0.6-1.3-1.5-1l-5,1.8c-0.7,0.2-1.2,0.6-1.2,1.4v5.8
					C188.3,148.9,188.8,149.5,189.7,149.2"/>
				<path d="M189.7,193.7h4.7c0.7,0,1.2-0.5,1.2-1.2v-38.1c0-0.9-0.6-1.2-1.4-0.9l-4.8,1.7c-0.7,0.2-0.9,0.7-0.9,1.4v35.9
					C188.5,193.2,189,193.7,189.7,193.7"/>
			</g>
			<path d="M205.5,193.7h4.7c0.7,0,1.2-0.5,1.2-1.2v-21.5c0-7.1,4.6-11.1,10.8-11.1c6.2,0,10.3,3.9,10.3,11.1v21.5
				c0,0.7,0.5,1.2,1.2,1.2h4.7c0.7,0,1.2-0.5,1.2-1.2v-21.8c0-11.8-7.2-17.9-16.1-17.9c-4.3,0-9.1,1.4-12.1,5.9v-4.3
				c0-0.9-0.6-1.2-1.4-0.9l-4.8,1.7c-0.7,0.2-0.9,0.7-0.9,1.4v35.9C204.2,193.2,204.7,193.7,205.5,193.7"/>
			<path d="M266.3,152.7c-12,0-20.5,8.9-20.5,21c0,12.1,8.6,21,20.5,21c12,0,20.5-8.9,20.5-21C286.8,161.6,278.3,152.7,266.3,152.7
				 M266.3,187.7c-8.2,0-13.2-6.2-13.2-14c0-7.8,5-14,13.2-14c8.2,0,13.1,6.2,13.1,14C279.5,181.5,274.5,187.7,266.3,187.7"/>
		</g>
	</g>
</g>
</svg>
