<?xml version="1.0" encoding="utf-8"?>
<!-- Generator: Adobe Illustrator 26.0.3, SVG Export Plug-In . SVG Version: 6.00 Build 0)  -->
<svg version="1.1" id="Layer_1" xmlns="http://www.w3.org/2000/svg" xmlns:xlink="http://www.w3.org/1999/xlink" x="0px" y="0px"
	 viewBox="0 0 683.4 486.6" style="enable-background:new 0 0 683.4 486.6;" xml:space="preserve">
<g>
	<path d="M556.7,145.6H265.1c-8.7,0-15.7,7.1-15.7,15.7v45.3c-17.6-36.1-54.7-61.1-97.5-61.1H109c-8.7,0-15.7,7.1-15.7,15.7v135.5
		c0,8.7,7.1,15.7,15.7,15.7h447.7c8.7,0,15.7-7.1,15.7-15.7V161.3C572.5,152.7,565.4,145.6,556.7,145.6z M561.6,296.9
		c0,2.7-2.2,4.8-4.8,4.8H260.3V161.3c0-2.7,2.2-4.8,4.8-4.8h291.6c2.7,0,4.8,2.2,4.8,4.8V296.9z M104.1,296.9V161.3
		c0-2.7,2.2-4.8,4.8-4.8h42.9c53.8,0,97.5,43.7,97.5,97.5v47.7H109C106.3,301.7,104.1,299.5,104.1,296.9z"/>
	<g>
		<path d="M379.9,200.8h-11c-1.7,0-3.1,1.4-3.1,3.1v50.5c0,1.7,1.4,3.1,3.1,3.1h11c1.7,0,3.1-1.4,3.1-3.1v-50.5
			C383,202.2,381.6,200.8,379.9,200.8z"/>
		<path d="M348.7,200.8h-39.3c-1.7,0-3.1,1.4-3.1,3.1v50.5c0,1.7,1.4,3.1,3.1,3.1h11c1.7,0,3.1-1.4,3.1-3.1v-10.5h20
			c1.7,0,3.1-1.4,3.1-3.1v-8.2c0-1.7-1.4-3.1-3.1-3.1h-20v-12.8h25.2c1.7,0,3.1-1.4,3.1-3.1v-9.7
			C351.8,202.2,350.4,200.8,348.7,200.8z"/>
		<path d="M512.4,200.8h-11c-1.7,0-3.1,1.4-3.1,3.1v24.7l-17.2-26c-0.8-1.2-2.1-1.8-3.4-1.8h-8.4c-1.7,0-3.1,1.4-3.1,3.1v50.5
			c0,1.7,1.4,3.1,3.1,3.1h11c1.7,0,3.1-1.4,3.1-3.1v-24.5l16.8,25.7c0.8,1.2,2.1,1.9,3.4,1.9h8.8c1.7,0,3.1-1.4,3.1-3.1v-50.5
			C515.5,202.2,514.1,200.8,512.4,200.8z"/>
		<path d="M446.1,200.8h-11c-1.7,0-3.1,1.4-3.1,3.1v24.7l-17.2-26c-0.8-1.2-2.1-1.8-3.4-1.8H403c-1.7,0-3.1,1.4-3.1,3.1v50.5
			c0,1.7,1.4,3.1,3.1,3.1h11c1.7,0,3.1-1.4,3.1-3.1v-24.5l16.8,25.7c0.8,1.2,2.1,1.9,3.4,1.9h8.8c1.7,0,3.1-1.4,3.1-3.1v-50.5
			C449.2,202.2,447.8,200.8,446.1,200.8z"/>
	</g>
</g>
</svg>
