<?xml version="1.0" encoding="utf-8"?>
<!-- Generator: Adobe Illustrator 26.0.3, SVG Export Plug-In . SVG Version: 6.00 Build 0)  -->
<svg version="1.1" id="jPro_Standard" xmlns="http://www.w3.org/2000/svg" xmlns:xlink="http://www.w3.org/1999/xlink" x="0px"
	 y="0px" viewBox="0 0 595.3 841.9" style="enable-background:new 0 0 595.3 841.9;" xml:space="preserve">
<style type="text/css">
	.st0{stroke:#FFFFFF;}
</style>
<g>
	<path class="st0" d="M307.8,332.2c-1.7-1.1-4.2-2.1-10.9-0.2c-6.5,1.8-58.2,18.9-62.9,20.6c-5.1,1.9-7.9,4-10.6,7.6
		c-3.8,5-26.8,36.2-28.9,40.6c-1.6,3.1-1.7,6.5-0.5,8.7c1.1,2,3.8,3.5,9.3,2.2s32.2-8.3,32.2-8.3l18.9-29.1l47.1-14.1
		c0,0,7.8-13.8,8.9-16.8C311.9,338.8,311.1,334.4,307.8,332.2z M230.1,396.3c0,0-25,6.6-28.5,7.4c-3.5,0.8-6.2-0.3-3.8-4.3
		c2.8-4.7,13-18.3,13-18.3l35.9-10.8L230.1,396.3z M212.8,377.7c0,0,6.3-8.4,10.4-13.8c5.4-7,6.6-7.7,14.6-10.6
		c4.2-1.5,25.2-8.3,25.2-8.3l-14.1,21.8L212.8,377.7z M304.1,337.5c-1.3,3.5-7.3,14.8-7.3,14.8l-43.2,13.2l13.7-21.8
		c0,0,25-8.4,30.6-9.9C303.4,332.4,305.4,334,304.1,337.5z"/>
	<path d="M283.4,392h-12.1v9.4c0,0,5.9,0,8.4,0s3.8-1.2,3.8-3.5S283.4,392,283.4,392z"/>
	<g>
		<path d="M289.3,391.5c3.9-0.8,9.1-1.3,15.7-1.3c8.1,0,14,1.9,17.8,5.3c3.5,3,5.6,7.6,5.6,13.3c0,5.7-1.7,10.2-5,13.5
			c-4.3,4.6-11.4,7-19.4,7c-2.4,0-4.7-0.1-6.6-0.6V454h-8.2V391.5z M297.5,422c1.8,0.5,4.1,0.7,6.8,0.7c10,0,15.9-4.9,15.9-13.4
			c0-8.5-5.9-12.5-14.9-12.5c-3.6,0-6.3,0.4-7.7,0.7V422z"/>
	</g>
	<g>
		<path d="M335.1,422.4c0-5.5-0.1-10.2-0.4-14.5h7.2l0.4,9.1h0.3c2.1-6.2,7.1-10.2,12.7-10.2c0.8,0,1.5,0.1,2.3,0.3v7.9
			c-0.9-0.1-1.8-0.2-2.9-0.2c-5.8,0-10,4.5-11.1,10.7c-0.2,1.2-0.3,2.6-0.3,4v24.7H335L335.1,422.4z"/>
		<path d="M379.5,455.3c-12.2,0-21.8-9.2-21.8-23.9c0-15.5,10.1-24.6,22.6-24.6c13.1,0,21.9,9.7,21.9,23.8
			C402.2,447.9,390.4,455.3,379.5,455.3L379.5,455.3z M379.8,449c7.9,0,13.8-7.6,13.8-18.1c0-7.9-3.9-17.7-13.6-17.7
			c-9.7,0-13.9,9.2-13.9,18C366.1,441.3,371.7,449,379.8,449L379.8,449z"/>
	</g>
	<path d="M264.9,467c1.1-0.6,2.7-1.3,3.8-2.5c2.3-2.5,3.1-6.4,3.1-17.6v-39h8.3v42.3c0,9-1.2,15.1-5.4,19.2c-3.1,3-5.1,3.7-7.9,4.7
		L264.9,467z"/>
</g>
</svg>
