<?xml version="1.0" encoding="utf-8"?>
<!-- Generator: Adobe Illustrator 26.0.3, SVG Export Plug-In . SVG Version: 6.00 Build 0)  -->
<svg version="1.1" xmlns="http://www.w3.org/2000/svg" xmlns:xlink="http://www.w3.org/1999/xlink" x="0px" y="0px"
	 viewBox="0 0 841.9 595.3" style="enable-background:new 0 0 841.9 595.3;" xml:space="preserve">
<style type="text/css">
	.st0{fill:#1D1D1B;}
</style>
<g id="Layer_1">
	<g>
		<g>
			<g>
				<path class="st0" d="M577.7,274.5c-9.5,0-13.5,3.1-15.9,6.5h-0.5l0,0l-3.2-4.9h-11.2v61.6h18.9v-39l0,0l0,0l0,0c0-4.4,3.6-8,8-8
					s8,3.6,8,8l0,0l0,0l0,0v39h18.9v-40.1C600.8,285,590.1,274.5,577.7,274.5z"/>
				<path class="st0" d="M655.5,324c-3.4,1.1-7.1,1.7-11.1,1.7c-10.6,0-16.3-4.5-16.9-13.4h40.2v-8c0-9.2-2.5-16.5-7.5-21.8
					s-11.9-7.9-20.7-7.9c-5.9,0-11.3,1.4-16,4.3s-8.4,6.8-11,11.9s-3.9,10.8-3.9,17.2c0,10,2.7,17.7,8.2,23.2
					c5.5,5.5,13.2,8.2,23.2,8.2c9.1,0,16.5-1.5,22.2-4.6v-0.2L655.5,324z M631.4,291.2c2.3-2.5,4.9-3.8,7.9-3.8
					c7.1,0,10.7,4.4,10.7,13.2h-22.7C627.7,296.8,629.1,293.8,631.4,291.2z"/>
				<path class="st0" d="M214.5,255.8h-15.6v54.3c0,6.1,0,7.7-1.3,9c-1.1,1.1-3.3,1.1-5.6,1.1h-8.1l-10.3,17.5h18
					c8.6,0,15.1-0.4,19.9-3.8c5.4-3.8,6.3-10,6.3-23.2v-49.9L214.5,255.8z"/>
				<polygon class="st0" points="330.7,276 314.6,315.9 314.1,315.9 298.1,276 284.5,276 284.5,286.2 305.2,337.8 323.5,337.8 
					344.3,286.2 344.3,276 				"/>
				<polygon class="st0" points="462.2,320.2 433.2,320.2 468.5,267 468.5,255.8 411.1,255.8 411.1,266.3 414.4,271.4 444.3,271.4 
					407.7,326.4 407.7,337.8 473.5,337.8 				"/>
				<path class="st0" d="M398.2,337.8V301c0-17.7-8.9-26.5-26.6-26.5c-3.5,0-7.7,0.5-12.6,1.6c-2.1,0.5-3.9,0.9-5.5,1.4v8.7l2.4,3.8
					c4.2-1.6,8.6-2.5,13.2-2.5c7.4,0,11,3.4,11,10.2l-13.7,1.7c-14.3,1.9-21.4,8.9-21.4,20.9c0,5.7,1.8,10.3,5.3,13.7
					c3.5,3.4,8.2,5.1,14.2,5.1c1.4,0,13.7-0.2,17-6.3h0.2l0,0l3.1,4.8h13.4V337.8z M378.4,322.4c-2.3,2.5-5.2,3.7-8.8,3.7
					c-2.7,0-4.7-0.7-6.2-2.1s-2.2-3.2-2.2-5.4c0-4.9,3.1-7.7,9.3-8.4l11.3-1.5v4.2C381.8,316.8,380.7,319.9,378.4,322.4z"/>
				<path class="st0" d="M279.1,337.8V301c0-17.7-8.9-26.5-26.6-26.5c-3.5,0-7.7,0.5-12.6,1.6c-2.1,0.5-3.9,0.9-5.5,1.4v8.7l2.4,3.8
					c4.2-1.6,8.6-2.5,13.2-2.5c7.4,0,11,3.4,11,10.2l-13.7,1.7c-14.3,1.9-21.4,8.9-21.4,20.9c0,5.7,1.7,10.3,5.3,13.7
					c3.5,3.4,8.2,5.1,14.2,5.1c1.4,0,13.7-0.2,17-6.3h0.2l0,0l3.1,4.8h13.4L279.1,337.8L279.1,337.8z M259.3,322.4
					c-2.3,2.5-5.2,3.7-8.8,3.7c-2.7,0-4.7-0.7-6.2-2.1s-2.2-3.2-2.2-5.4c0-4.9,3.1-7.7,9.3-8.4l11.3-1.5v4.2
					C262.7,316.8,261.6,319.9,259.3,322.4z"/>
				<path class="st0" d="M537.4,306c0,10.2-3,18.3-9.1,24.2c-6,6-14.2,8.9-24.6,8.9c-10.2,0-18.2-2.8-24.1-8.5s-8.9-13.5-8.9-23.5
					c0-10.2,3-18.2,9.1-23.9c6.1-5.8,14.3-8.6,24.7-8.6c10.1,0,18.1,2.9,24,8.6C534.4,288.8,537.4,296.5,537.4,306z M518,306.4
					c0-11.5-4.6-17.3-13.8-17.3c-4.5,0-8,1.5-10.5,4.6s-3.7,7.5-3.7,13.1c0,11.8,4.8,17.8,14.3,17.8
					C513.4,324.6,518,318.5,518,306.4z"/>
			</g>
		</g>
	</g>
</g>
<g id="Layer_2">
</g>
</svg>
