<?xml version="1.0" encoding="utf-8"?>
<!-- Generator: Adobe Illustrator 26.0.3, SVG Export Plug-In . SVG Version: 6.00 Build 0)  -->
<svg version="1.1" id="Layer_1" xmlns="http://www.w3.org/2000/svg" xmlns:xlink="http://www.w3.org/1999/xlink" x="0px" y="0px"
	 viewBox="0 0 632.7 263.4" style="enable-background:new 0 0 632.7 263.4;" xml:space="preserve">
<style type="text/css">
	.st0{fill:#1D1D1B;}
</style>
<g>
	<path class="st0" d="M184.1,194.4c-1.6,0-3.6,1.4-12.2,1.4c-56,0-43.1-63-86.5-74.4c40-9,76.6-49.5,76.6-60.8
		c0-9.5-7.2-16.6-14-16.6c-2.4,0-36.1,65.2-80.5,70.2C76.1,92,84.5,73.4,84.5,64.8c0-14-12.1-21.4-19.3-21.4c-0.7,0-1.1,0.2-1.1,0.7
		c0,41.2-34.8,99.4-34.8,123.2c0,16.2,11.2,24.5,18,24.5c1.1,0,1.4-0.4,1.4-1.4c0-21,6.8-44.2,14.5-65.2c43.5,8,29.7,84.6,90.8,84.6
		c20.9,0,31.2-11.3,31.2-14.2C185.4,194.8,184.8,194.4,184.1,194.4"/>
	<path class="st0" d="M606.4,135.4c-11.7,11.4-25.9,19.6-35.3,22.5c9.6-27.2,22.2-57.5,22.2-58.6c0-2.7-12.4-9.4-14.2-9.4
		c-0.4,0-1.8,2.4-3.7,6.2c-4.2-3.5-10.5-7.1-17-7.1c-22,0-47.7,29.5-47.7,56.7c0,20,10.6,27.9,21.4,27.9c7.9,0,15-5.4,20.6-12.1
		c1.5,7,6.8,12.1,11.8,12.1c11,0,43.8-27.2,43.8-36.6C608.2,136.1,607.5,135.4,606.4,135.4 M537.8,160.9c-4,0-8.1-4.5-8.1-13.9
		c0-22,18.9-44.3,33.1-47.9c4.3,0,6.8,3,8.3,6.1c-5.5,12.3-12.4,29.3-16.1,40.8C549.1,155.9,542.4,160.9,537.8,160.9"/>
	<path class="st0" d="M498.5,90c-0.2,0-1.5,2.8-3.6,7.2c-4.2-3.8-11-8.1-18.2-8.1c-19.5,0-42.2,23.1-46.9,47.8
		c-24.2,20-37.2,24-46.6,24c-5.8,0-14.4-2.8-14.7-16.6c3.3,2.1,8,3.4,13.5,3.4c17.6,0,41.1-13,41.1-39.3c0-8.1-18-19.4-26.1-19.4
		c-16.4,0-42.5,23.7-46.9,49.4c-9.9,8.2-21.1,16.3-27.7,19.4c6.5-20.8,21.6-57.1,31.4-81c42.3-2.7,85.8-5.9,90.7-7.2
		c2-0.5,3.8-2.3,3.8-3.6c0-0.9-0.4-1.3-1.8-1.3c-2,0-44.9,0.8-88.2,1c2.7-6.8,4.4-11.4,4.4-12.4c0-2.3-12.1-9.4-14.2-9.4
		c-0.5,0-4.3,8.9-9.7,21.8c-12.1,0-23.7,0-33.9-0.2c-40.5,0-51.3-3.2-54.7-3.2c-0.7,0-1.3,0.5-1.3,1.6c0,9.9,11.2,17.1,22.9,17.1
		c6.3,0.1,32.1-1.3,62-3.1c-8.1,20-17.9,44.9-24.8,63c-8.5,6.5-17.7,12.9-24.4,16c8.8-24.8,18.1-50.3,18.1-52.6
		c0-6.1-10.1-15.5-14.2-15.5c-4.3,0-18.7,8-31.9,17.2c1.5-4.1,2.3-6.8,2.3-7c0-2.3-12.4-9.4-14.2-9.4c-1.6,0-9.1,19.1-20.2,48.4
		c-10,8.7-20.7,16-28.2,19.1c8.6-27,22.3-57.2,22.3-58.2c0-2.3-12.4-9.4-14.2-9.4c-0.4,0-1.7,2.4-3.5,6.3
		c-4.3-3.6-10.6-7.2-17.2-7.2c-21.8,0-47.7,29-47.7,56.7c0,20,10.6,27.9,21.4,27.9c8.5,0,16-6.1,21.8-13.5
		c0.9,7.7,5.3,13.5,10.6,13.5c8,0,19.5-9.9,29.1-20.4c-1.4,3.7-2.8,7.5-4.3,11.4c0,3.8,9.7,9,14.9,9c2,0.1,14.4-32.3,22.4-54.4
		c6.8-5.6,19.3-14.9,26.4-14.9c1.4,0,3.8,1.1,3.8,3.2c0,6.3-14.2,42.1-17.5,49.7c0,10.4,7.9,16.4,12.8,16.4
		c6.1,0,16.5-8.8,26.3-18.3c-0.2,0.7-0.5,1.3-0.7,2c0,10.4,7.9,16.4,12.8,16.4c8.1,0,22.3-14.1,33.6-26.6
		c0.7,15.5,13.5,26.6,26.8,26.6c21.9,0,41.2-16.5,52.8-28.7c0,0.3,0,0.5,0,0.8c0,20,10.8,27.9,21.4,27.9c5.5,0,10.5-2.5,15-6.3
		c-11,31.2-26.7,52.4-47.2,52.4c-13.3,0-18.9-8.3-18.9-14.2c0-9.5,9.7-15.8,20.5-15.8c0.9,0,1.6-0.4,1.6-0.9c0-2.3-18.4-7.9-52-7.9
		c-42.1,0-79.4,6.5-114.3,18.7c-3.6,1.3-11.5,8.6-11.5,18.2c0,4.1,2.5,9,3.6,9c1.1,0,18.7-14.2,51.9-24.7
		c24.1-7.6,57.1-15.4,100.1-13.1c-5.5,2.5-12.4,8.2-12.4,19.6c0,11.2,9.2,24.3,31.3,24.3c37.6,0,52.4-25.6,63.2-54
		c5.2-13.7,31.5-78.7,31.5-79.6C512.7,97,500.7,90,498.5,90 M163.2,160.9c-4,0-8.1-4.5-8.1-13.9c0-22,18.9-44.3,33.1-47.9
		c4.6,0,7.1,3.3,8.5,6.7c-4.3,10.1-9.4,23.3-13,34C177.3,153.8,168.7,160.9,163.2,160.9 M401.3,99.2c17.5,3.1-5,40-22.7,40
		c-2.8,0-6.5-0.9-8.6-4.2C374.4,121.3,387.6,105.7,401.3,99.2 M448.1,147.1c0-22,18.9-44.3,33.1-47.9c5.3,0,7.8,4.4,9.2,8.2
		c-4.7,10.6-10.6,24.4-15.6,36.3c-6.2,11.4-13.6,17.3-18.6,17.3C452.2,160.9,448.1,156.4,448.1,147.1"/>
</g>
</svg>
