<?xml version="1.0" encoding="utf-8"?>
<!-- Generator: Adobe Illustrator 26.0.3, SVG Export Plug-In . SVG Version: 6.00 Build 0)  -->
<svg version="1.1" id="Layer_1" xmlns="http://www.w3.org/2000/svg" xmlns:xlink="http://www.w3.org/1999/xlink" x="0px" y="0px"
	 viewBox="0 0 310 92.5" style="enable-background:new 0 0 310 92.5;" xml:space="preserve">
<polygon points="30,0 0,0 0,30 8,30 8,8 30,8 "/>
<polygon points="280,92.5 310,92.5 310,62.5 302,62.5 302,84.5 280,84.5 "/>
<g>
	<path d="M90.3,30H78.3l-9.9,27.9V30H53.9l-4.6,21.8h-0.1L44.5,30H30v32.5h8.1V38.1h0.1L44,62.5h9.2l6.2-24.5h0.1v24.5h16.6l1.8-5.4
		h11.7l1.7,5.4h10.5L90.3,30z M80.2,50l3.7-11.3L87.4,50H80.2z"/>
	<path d="M151.8,46.8c-3-3.9-13.5-5.3-15-7.3c-0.3-0.4-0.4-1-0.4-1.5c0-1.7,1.1-2.7,3.1-2.7c1.2,0,2.1,0.2,2.8,0.9
		c0.7,0.7,1.1,1.8,1.2,3.6h9.4c-0.1-6.7-3-10.5-12.7-10.5c-7.1,0-11.3,2-12.9,6.2c-0.3-0.7-0.6-1.3-1.1-1.9c-2-2.7-5.9-4.2-11.6-4.2
		c-12.7,0-15.1,9.4-15.1,17.1c0,10.4,3.7,17.1,15.1,17.1c4.9,0,9.3-1.5,11.9-5c0.3-0.4,0.5-0.8,0.7-1.2c1.2,3.5,4.3,6.2,12.2,6.2
		c10.3,0,14.3-4.1,14.3-10.6C153.6,49.6,152.7,47.9,151.8,46.8z M139.5,57.3c-1.3,0-2.1-0.5-2.7-1.3c-0.6-0.9-0.8-3.4-0.9-5.2h-17.2
		c-0.1,4.2-1.5,5.4-4.4,5.4c-3.7,0-5-4.6-5-10c0-5.4,1.3-10,5-10c2.6,0,3.8,1.8,4,5.8h8.4c0.2,1.1,0.6,2.2,1.3,3.1
		c3,3.8,13.9,5.4,15.2,7.4c0.3,0.4,0.4,0.9,0.4,1.5C143.7,56.7,141.5,57.3,139.5,57.3z"/>
	<path d="M154.8,30h9.6v32.5h-9.6V30z"/>
	<path d="M168.4,30h14.5l4.7,21.8h0.1l4.6-21.8h14.5v32.5h-8.9V38.1h-0.1l-6.2,24.5h-9.2l-5.8-24.5h-0.1v24.5h-8.1V30z"/>
	<path d="M210.7,30h9.2v17.8c0,6.2,1.5,8.2,4.4,8.2c2.9,0,4.4-1.9,4.4-8.2V30h9v19c0,5.1-0.7,7.3-2.2,9.5c-2.3,3.4-6.3,4.9-11.4,4.9
		c-5.1,0-9.1-1.4-11.4-4.9c-1.5-2.2-2.2-4.4-2.2-9.5V30z"/>
	<path d="M241.6,30h14.5l4.7,21.8h0.1l4.6-21.8H280v32.5h-8.9V38.1h-0.1l-6.2,24.5h-9.2l-5.8-24.5h-0.1v24.5h-8.1V30z"/>
</g>
</svg>
