<?xml version="1.0" encoding="utf-8"?>
<!-- Generator: Adobe Illustrator 26.0.3, SVG Export Plug-In . SVG Version: 6.00 Build 0)  -->
<svg version="1.1" id="Layer_2" xmlns="http://www.w3.org/2000/svg" xmlns:xlink="http://www.w3.org/1999/xlink" x="0px" y="0px"
	 viewBox="0 0 1190.6 841.9" style="enable-background:new 0 0 1190.6 841.9;" xml:space="preserve">
<g>
	<path d="M241.3,471h-12.2L163,389.3V471h-13.3V364.8h11.3l67,82.2v-82.2h13.3V471z"/>
	<path d="M291.6,412.2c12.9,0,22.2,9.8,22.2,23.3c0,15.1-8.6,24.4-22.2,24.4c-12.5,0-21-9.8-21-24.6
		C270.5,422,279.4,412.2,291.6,412.2z M291.7,399.7c-19.4,0-34.4,15.6-34.4,35.6c0,21.5,14.4,37,34.4,37c20.9,0,35.2-14.9,35.2-37
		C327,414.7,312.2,399.7,291.7,399.7z"/>
	<path d="M355.1,401.1v16h0.3c6.5-12.3,12.8-17.4,18.9-17.4c5.2,0,10.2,2.6,15.5,8.1l-6.8,12c-3.9-4-9-6.8-12-6.8
		c-8.8,0-15.8,9.5-15.8,21.5V471h-12.9v-69.9H355.1z"/>
	<path d="M443,419.3c-7.4-5.3-12.3-6.8-18-6.8c-11.7,0-19.9,9.5-19.9,23.7c0,14.5,8.7,23.2,22,23.2c5.5,0,10.7-1.6,17.3-4.7v13.7
		c-4.3,2.2-12.6,4-19.4,4c-19.4,0-33.1-14.5-33.1-35c0-23,12.5-37.7,32.2-37.7c7.5,0,12.6,1.9,18.9,4.8V419.3z"/>
	<path d="M488.9,412.2c12.9,0,22.2,9.8,22.2,23.3c0,15.1-8.6,24.4-22.2,24.4c-12.5,0-21-9.8-21-24.6
		C467.9,422,476.8,412.2,488.9,412.2z M489.1,399.7c-19.4,0-34.4,15.6-34.4,35.6c0,21.5,14.4,37,34.4,37c20.9,0,35.2-14.9,35.2-37
		C524.3,414.7,509.5,399.7,489.1,399.7z"/>
	<path d="M551.3,410.3h0.3c4.9-6.7,12.2-10.6,19.4-10.6c12.3,0,22.2,9,22.2,28.2V471h-12.9v-43.3c0-10.3-4.9-17-12.8-17
		c-5.7,0-10.1,2.8-16.2,10.1V471h-12.9v-69.9h12.9V410.3z"/>
	<path d="M649,419.2c-7.3-5.1-14.1-7.3-18.9-7.3c-5.2,0-8.6,2.6-8.6,6.4c0,3.1,4.4,6.9,15.8,14c10.7,7.6,14.6,12.5,14.6,19.6
		c0,12.3-9.1,20.5-21.5,20.5c-8,0-14.2-1.7-22.6-6.4v-14.9c8.4,6.2,16.1,9.2,21.3,9.2c5.2-0.3,9.6-3,9.6-7.9
		c0-9.7-30.5-14.8-30.5-33.6c0-11.8,8.4-19,21.5-19c6.1,0,12.3,1.9,19.1,5.8V419.2z"/>
	<path d="M708.4,471v-8.9c-5.4,6.2-12.9,10.3-19.3,10.3c-13.2,0-22.5-10.1-22.5-27.9v-43.4h12.9v44.4c0,9.8,4.5,15.4,13.3,15.4
		c5.8,0,11.3-3.4,15.5-9.8v-50h12.9V471H708.4z"/>
	<path d="M752.7,471h-12.9V364.8h12.9V471z"/>
	<path d="M786.4,401.1H807v12.5h-20.6v35.8c0,8.3,5.5,10.6,9.3,10.6c4.6,0,9.4-1.7,14.6-5.1v12.9c-4.5,2.6-11.5,4.7-15.7,4.7
		c-14.1,0-21.2-9.3-21.2-21.9v-36.9h-11.3V412l24.2-25.4V401.1z"/>
</g>
<path d="M943.8,328.1l-43.7,43.8l43.7,43.7l43.7-43.7L943.8,328.1z M846.2,425.8l43.7,43.7l43.7-43.7L890,382L846.2,425.8z
	 M997.7,382L954,425.7l43.7,43.7l43.7-43.7L997.7,382z"/>
<path d="M943.8,445.6c-18.8,0-34,15.2-34,34c0,18.8,15.2,34,34,34c18.8,0,34-15.2,34-34C977.8,460.8,962.6,445.6,943.8,445.6z"/>
</svg>
