<?xml version="1.0" encoding="utf-8"?>
<!-- Generator: Adobe Illustrator 26.0.3, SVG Export Plug-In . SVG Version: 6.00 Build 0)  -->
<svg version="1.1" id="Layer_1" xmlns="http://www.w3.org/2000/svg" xmlns:xlink="http://www.w3.org/1999/xlink" x="0px" y="0px"
	 viewBox="0 0 1190.6 841.9" style="enable-background:new 0 0 1190.6 841.9;" xml:space="preserve">
<g>
	<polygon points="379.3,424.5 288.4,289.8 257.4,289.8 257.4,474.7 284.5,474.7 284.5,331.2 381.6,474.7 406.4,474.7 406.4,289.8 
		379.3,289.8 	"/>
	<path d="M803.8,384.3v25.4h96.4c-2.9,8-7.8,15.2-15.5,22.9c-12.6,12.6-30,19.5-49.1,19.5c-40.4,0-72.1-30.6-72.1-69.7
		c0-19.1,7.3-36.8,20.7-49.8c13.4-13,31.5-20.2,51.2-20.2c25.5,0,46.5,11.4,57.8,31.3l1.4,2.4h29.4l-2.5-6.5
		c-6.1-15.7-17.7-29-33.5-38.5c-15.7-9.4-34.3-14.4-53.9-14.4c-54.8,0-97.8,41.8-97.8,95.1c0,26.1,10.3,50.3,29.1,68.2
		c18.7,17.8,43.9,27.7,71.1,27.7c29.1,0,54-10.8,71.9-31.3c14.8-17,22.9-36.2,24.2-57.2l0.3-5H803.8z"/>
	<path d="M534.7,404c0,15-2.5,26.3-7.3,33.7c-5.8,8.9-17.3,14.4-29.9,14.4c-12.8,0-24.4-5.5-30.2-14.5c-4.8-7.4-7.3-18.7-7.3-33.7
		V289.8H433V404c0,23.5,3.7,37.6,13.3,50.3l0,0c11.3,14.7,30.4,23.4,51,23.4c20.7,0,39.9-8.8,51.2-23.4l0,0
		c9.6-12.7,13.3-26.8,13.3-50.3V289.8h-27.1V404z"/>
	<path d="M690.1,404c0,15-2.5,26.3-7.3,33.7c-5.8,8.9-17.3,14.4-29.9,14.4c-12.8,0-24.4-5.5-30.2-14.5c-4.8-7.4-7.3-18.7-7.3-33.7
		V289.8h-27.1V404c0,23.5,3.7,37.6,13.3,50.3l0,0c11.3,14.7,30.4,23.4,51,23.4c20.7,0,39.9-8.8,51.2-23.4l0,0
		c9.6-12.7,13.3-26.8,13.3-50.3V289.8h-27.1V404z"/>
</g>
<path id="fullt_navn" d="M257.4,547h3.6v-31.6l21.5,31.6h3.6v-36h-3.6v29.8L262.3,511h-4.9V547z M306,519.7c-7.9,0-14.1,6-14.1,13.8
	c0,8.2,6,14.1,14.3,14.1c7.8,0,13.6-5.9,13.6-13.9C319.9,525.6,314.1,519.7,306,519.7z M306,523c5.9,0,10.2,4.6,10.2,10.8
	c0,6.1-4.2,10.5-10,10.5c-6.2,0-10.6-4.5-10.6-10.7C295.6,527.6,300.1,523,306,523z M325.1,547h3.6v-15.5c0-5,2.5-7.7,7.6-8.2v-3.6
	c-3.9,0.2-6.2,1.5-7.6,4.4v-3.8h-3.6V547z M347.3,547h3.9l5.8-17.7l5.8,17.7h3.9l10.4-26.6h-3.5l-8.7,22.3l-6.3-19h-3l-6.3,19
	l-8.5-22.3h-3.6L347.3,547z M407.3,534.8c0-3.6-0.5-5.9-1.8-8.2c-2.4-4.2-7.1-6.9-12.1-6.9c-7.8,0-13.9,6.1-13.9,13.8
	c0,7.9,6.2,14.1,14.2,14.1c3.4,0,6.7-1.3,9.1-3.6c1.9-1.8,3.2-3.6,3.9-5.8h-3.8c-1.5,3.6-5.3,6.1-9.4,6.1c-5.5,0-10.1-4.2-10.4-9.4
	H407.3z M383.2,531.6c1-5.1,5-8.6,10.1-8.6c5.2,0,9.2,3.3,10.4,8.6H383.2z M439.1,520.4h-3.6v4.7c-2.7-3.6-6-5.4-10.5-5.4
	c-7.8,0-13.7,6-13.7,14.1c0,7.8,6.1,13.8,14,13.8c4.8,0,8.1-1.9,10.2-6v1.8c0,2.6-0.3,4.3-1.1,5.9c-1.4,3.1-4.7,4.8-8.8,4.8
	c-3,0-5.3-0.9-7.2-2.7c-0.9-0.8-1.5-1.6-2.6-3.6h-3.5c2,6.2,6.7,9.6,13.5,9.6c4.7,0,8.6-1.8,10.9-4.8c1.8-2.4,2.5-5.3,2.5-10.5
	V520.4z M425.2,523c5.8,0,10.3,4.5,10.3,10.3c0,6.2-4.4,10.9-10.2,10.9c-5.9,0-10.3-4.6-10.3-10.8C415,527.4,419.3,523,425.2,523z
	 M445.3,547h3.6v-26.6h-3.6V547z M445.3,517.1h3.6V511h-3.6V517.1z M482.3,520.4h-3.6v4.7c-2.6-3.7-5.9-5.4-10.6-5.4
	c-8,0-14.1,6-14.1,14c0,7.9,6.1,13.9,14.3,13.9c4.6,0,7.5-1.5,10.3-5.3v4.7h3.6V520.4z M468.2,523c5.9,0,10.5,4.6,10.5,10.5
	c0,6-4.5,10.8-10.3,10.8c-6.1,0-10.7-4.7-10.7-10.8C457.7,527.7,462.4,523,468.2,523z M488.5,547h3.6v-14.6c0-3,0.4-4.5,1.4-6
	c1.4-2,3.9-3.3,6.8-3.3c2.6,0,5,1.1,6.5,2.9c1.3,1.7,1.8,3.6,1.8,7.1v14h3.6v-14c0-4.5-0.6-6.9-2.4-9.1c-2.1-2.6-5.3-4.1-9.1-4.1
	c-3.5,0-6.4,1.4-8.6,4.1v-3.5h-3.6V547z M532.6,511v22.4c0,4.6,0.7,7.3,2.5,9.7c2.2,2.8,5.8,4.4,9.7,4.4c4,0,7.6-1.7,9.8-4.4
	c1.8-2.4,2.5-5.1,2.5-9.7V511h-3.6v22.4c0,3.3-0.5,5.7-1.7,7.4c-1.4,2.1-4.1,3.4-7,3.4c-3,0-5.7-1.3-7.1-3.4
	c-1.1-1.7-1.7-4.2-1.7-7.4V511H532.6z M564.7,547h3.6v-31.6l21.5,31.6h3.6v-36h-3.6v29.8L569.6,511h-4.9V547z M600.9,547h3.6v-36
	h-3.6V547z M608.6,547h4.3l10.3-15.4l10.2,15.4h4.3l-12.3-18.4l11.6-17.6h-4.2l-9.5,14.4l-9.6-14.4h-4.3l11.6,17.6L608.6,547z
	 M655.3,511v22.4c0,4.6,0.7,7.3,2.5,9.7c2.2,2.8,5.8,4.4,9.7,4.4c4,0,7.6-1.7,9.8-4.4c1.8-2.4,2.5-5.1,2.5-9.7V511h-3.6v22.4
	c0,3.3-0.5,5.7-1.7,7.4c-1.4,2.1-4.1,3.4-7,3.4c-3,0-5.7-1.3-7.1-3.4c-1.1-1.7-1.7-4.2-1.7-7.4V511H655.3z M684.6,539.1
	c0,5.2,3.5,8.5,8.6,8.5c4.8,0,8.2-3.4,8.2-8.3c0-3.3-1.5-5.5-4.7-6.8c-4.1-1.7-4.3-1.8-5-2.1c-1.7-0.8-2.4-1.9-2.4-3.5
	c0-2.1,1.7-3.8,3.9-3.8c2.4,0,3.7,1.4,3.9,3.9h3.7c-0.1-4.3-3.2-7.2-7.5-7.2c-4.4,0-7.6,3.2-7.6,7.5c0,1.9,0.7,3.6,2,4.8
	c1.1,1,1.2,1,4.9,2.6c1.6,0.6,2.8,1.2,3.5,1.7c1.1,0.7,1.7,2,1.7,3.5c0,2.7-1.9,4.6-4.5,4.6c-3,0-4.8-1.9-5-5.2H684.6z M732.6,534.8
	c0-3.6-0.5-5.9-1.8-8.2c-2.4-4.2-7.1-6.9-12.1-6.9c-7.8,0-13.9,6.1-13.9,13.8c0,7.9,6.2,14.1,14.2,14.1c3.4,0,6.7-1.3,9.1-3.6
	c1.9-1.8,3.2-3.6,3.9-5.8h-3.8c-1.5,3.6-5.3,6.1-9.4,6.1c-5.5,0-10.1-4.2-10.4-9.4H732.6z M708.5,531.6c1-5.1,5-8.6,10.1-8.6
	c5.2,0,9.2,3.3,10.4,8.6H708.5z M737.6,547h3.6v-15.5c0-5,2.5-7.7,7.6-8.2v-3.6c-3.9,0.2-6.2,1.5-7.6,4.4v-3.8h-3.6V547z
	 M750.1,539.1c0,5.2,3.5,8.5,8.6,8.5c4.8,0,8.2-3.4,8.2-8.3c0-3.3-1.5-5.5-4.7-6.8c-4.1-1.7-4.3-1.8-5-2.1c-1.7-0.8-2.4-1.9-2.4-3.5
	c0-2.1,1.7-3.8,3.9-3.8c2.4,0,3.7,1.4,3.9,3.9h3.7c-0.1-4.3-3.2-7.2-7.5-7.2c-4.4,0-7.6,3.2-7.6,7.5c0,1.9,0.7,3.6,2,4.8
	c1.1,1,1.2,1,4.9,2.6c1.6,0.6,2.8,1.2,3.5,1.7c1.1,0.7,1.7,2,1.7,3.5c0,2.7-1.9,4.6-4.5,4.6c-3,0-4.8-1.9-5-5.2H750.1z M797.9,530.4
	v3.3h20.2c-0.5,2.3-1.8,4.3-3.8,6.4c-2.8,2.8-6.6,4.3-10.8,4.3c-8.9,0-15.9-6.7-15.9-15.3c0-8.7,6.9-15.3,15.8-15.3
	c5.6,0,10.3,2.5,12.8,6.9h4.1c-2.4-6.1-9.3-10.2-17.1-10.2c-10.8,0-19.2,8.1-19.2,18.5c0,10.5,8.6,18.7,19.7,18.7
	c5.7,0,10.6-2.1,14.1-6.1c2.9-3.4,4.5-7.1,4.7-11.1H797.9z M827.6,547h3.6v-15.5c0-5,2.5-7.7,7.6-8.2v-3.6c-3.9,0.2-6.2,1.5-7.6,4.4
	v-3.8h-3.6V547z M855.4,519.7c-7.9,0-14.1,6-14.1,13.8c0,8.2,6,14.1,14.3,14.1c7.8,0,13.6-5.9,13.6-13.9
	C869.3,525.6,863.4,519.7,855.4,519.7z M855.4,523c5.9,0,10.2,4.6,10.2,10.8c0,6.1-4.2,10.5-10,10.5c-6.2,0-10.6-4.5-10.6-10.7
	C845,527.6,849.4,523,855.4,523z M898,520.4h-3.6V534c0,3.3-0.5,5.3-1.6,7c-1.5,2.1-3.9,3.3-6.7,3.3c-3,0-5.5-1.2-6.8-3.4
	c-0.8-1.4-1.3-3.5-1.3-6.2v-14.4h-3.6v14.4c0,3.9,0.7,6.7,2.1,8.7c2,2.8,5.2,4.2,9.3,4.2c4.2,0,6.8-1.5,8.6-4.8v4.1h3.6V520.4z
	 M904.2,520.4v36h3.6v-13.9c2.4,3.4,6,5.2,10.4,5.2c8,0,14.2-6.1,14.2-13.9c0-7.9-6.1-14-14.1-14c-4.6,0-8.3,1.8-10.5,5.2v-4.6
	H904.2z M918.2,523c6,0,10.6,4.6,10.6,10.7c0,6-4.6,10.6-10.5,10.6c-6.1,0-10.7-4.6-10.7-10.8C907.6,527.6,912.3,523,918.2,523z"/>
</svg>
