<?xml version="1.0" encoding="utf-8"?>
<!-- Generator: Adobe Illustrator 26.0.3, SVG Export Plug-In . SVG Version: 6.00 Build 0)  -->
<svg version="1.1" id="Layer_1" xmlns="http://www.w3.org/2000/svg" xmlns:xlink="http://www.w3.org/1999/xlink" x="0px" y="0px"
	 viewBox="0 0 907.1 203.5" style="enable-background:new 0 0 907.1 203.5;" xml:space="preserve">
<g>
	<g>
		<g>
			<path d="M28.3,99.6V29.6h26.4c4.7,0,8.2,0.2,10.7,0.7c3.4,0.6,6.3,1.7,8.7,3.3c2.3,1.6,4.2,3.9,5.6,6.8c1.4,2.9,2.1,6.1,2.1,9.6
				c0,6-1.9,11-5.7,15.1c-3.8,4.1-10.6,6.2-20.6,6.2h-18v28.5H28.3z M37.6,62.9h18.1c6,0,10.2-1.1,12.8-3.3c2.5-2.2,3.8-5.4,3.8-9.4
				c0-2.9-0.7-5.4-2.2-7.5c-1.5-2.1-3.4-3.5-5.9-4.1c-1.6-0.4-4.4-0.6-8.7-0.6H37.6V62.9z"/>
			<path d="M133.2,99.6l26.9-70.1h10l28.7,70.1h-10.6L180,78.4h-29.3L143,99.6H133.2z M153.4,70.9h23.8l-7.3-19.4
				c-2.2-5.9-3.9-10.7-5-14.5c-0.9,4.5-2.2,9-3.8,13.4L153.4,70.9z"/>
			<path d="M255.3,99.6V29.6h31.1c6.2,0,11,0.6,14.2,1.9c3.2,1.3,5.8,3.5,7.8,6.7c1.9,3.2,2.9,6.7,2.9,10.6c0,5-1.6,9.2-4.8,12.6
				c-3.2,3.4-8.2,5.6-14.9,6.5c2.5,1.2,4.3,2.3,5.6,3.5c2.7,2.5,5.3,5.6,7.7,9.3L317,99.6h-11.7l-9.3-14.6c-2.7-4.2-4.9-7.4-6.7-9.7
				c-1.8-2.2-3.3-3.8-4.7-4.7c-1.4-0.9-2.8-1.5-4.2-1.9c-1.1-0.2-2.8-0.3-5.2-0.3h-10.8v31.1H255.3z M264.5,60.5h19.9
				c4.2,0,7.6-0.4,9.9-1.3c2.4-0.9,4.2-2.3,5.4-4.2c1.2-1.9,1.9-4,1.9-6.3c0-3.3-1.2-6-3.6-8.2c-2.4-2.1-6.2-3.2-11.4-3.2h-22.2
				V60.5z"/>
			<path d="M367.1,99.6L394,29.6h10l28.7,70.1h-10.6l-8.2-21.2h-29.3L377,99.6H367.1z M387.3,70.9h23.8l-7.3-19.4
				c-2.2-5.9-3.9-10.7-5-14.5c-0.9,4.5-2.2,9-3.8,13.4L387.3,70.9z"/>
			<path d="M489,99.6V29.6h9.5l36.8,55v-55h8.9v70.1h-9.5l-36.8-55.1v55.1H489z"/>
			<path d="M611.3,65.5c0-11.6,3.1-20.7,9.4-27.3c6.2-6.6,14.3-9.9,24.2-9.9c6.5,0,12.3,1.5,17.5,4.6c5.2,3.1,9.2,7.4,11.9,12.9
				c2.7,5.5,4.1,11.8,4.1,18.8c0,7.1-1.4,13.5-4.3,19.1c-2.9,5.6-6.9,9.9-12.2,12.7c-5.3,2.9-10.9,4.3-17,4.3
				c-6.6,0-12.5-1.6-17.7-4.8c-5.2-3.2-9.1-7.5-11.8-13C612.7,77.5,611.3,71.7,611.3,65.5z M620.9,65.7c0,8.4,2.3,15.1,6.8,20
				c4.5,4.9,10.2,7.3,17.1,7.3c7,0,12.7-2.5,17.2-7.4c4.5-4.9,6.8-11.9,6.8-20.9c0-5.7-1-10.7-2.9-14.9c-1.9-4.3-4.7-7.6-8.5-9.9
				c-3.7-2.3-7.9-3.5-12.5-3.5c-6.6,0-12.2,2.3-16.9,6.8C623.3,47.6,620.9,55.1,620.9,65.7z"/>
			<path d="M746.3,99.6V29.6h9.3v70.1H746.3z"/>
			<path d="M813.2,99.6l26.9-70.1h10l28.7,70.1h-10.6L860,78.4h-29.3L823,99.6H813.2z M833.4,70.9h23.8l-7.3-19.4
				c-2.2-5.9-3.9-10.7-5-14.5c-0.9,4.5-2.2,9-3.8,13.4L833.4,70.9z"/>
			<path d="M638.1,144.3V121h8.8c1.8,0,3.2,0.2,4.3,0.7c1.1,0.5,1.9,1.2,2.5,2.2c0.6,1,0.9,2,0.9,3.1c0,1-0.3,1.9-0.8,2.8
				c-0.5,0.9-1.4,1.6-2.5,2.1c1.4,0.4,2.5,1.1,3.3,2.1c0.8,1,1.1,2.2,1.1,3.5c0,1.1-0.2,2.1-0.7,3.1c-0.5,0.9-1,1.7-1.7,2.2
				c-0.7,0.5-1.5,0.9-2.6,1.2c-1,0.3-2.3,0.4-3.8,0.4H638.1z M641.2,130.8h5.1c1.4,0,2.4-0.1,2.9-0.3c0.8-0.2,1.4-0.6,1.8-1.2
				c0.4-0.5,0.6-1.2,0.6-2c0-0.8-0.2-1.5-0.6-2c-0.4-0.6-0.9-1-1.6-1.2c-0.7-0.2-1.9-0.3-3.6-0.3h-4.7V130.8z M641.2,141.6h5.8
				c1,0,1.7,0,2.1-0.1c0.7-0.1,1.3-0.3,1.8-0.6c0.5-0.3,0.9-0.7,1.2-1.3c0.3-0.6,0.5-1.2,0.5-2c0-0.9-0.2-1.6-0.7-2.3
				c-0.4-0.6-1.1-1.1-1.9-1.4c-0.8-0.3-1.9-0.4-3.4-0.4h-5.4V141.6z"/>
			<path d="M666.6,144.3v-9.9l-9-13.5h3.8l4.6,7c0.8,1.3,1.6,2.6,2.4,4c0.7-1.2,1.6-2.6,2.5-4.1l4.5-6.9h3.6l-9.3,13.5v9.9H666.6z"
				/>
			<path d="M693.4,144.3l-5.6-23.4h4.8l3.5,16l4.3-16h5.6l4.1,16.3l3.6-16.3h4.7l-5.7,23.4h-5l-4.7-17.5l-4.6,17.5H693.4z"/>
			<path d="M740.2,144.3H735l-2-5.3h-9.3l-1.9,5.3h-5l9.1-23.4h5L740.2,144.3z M731.5,135.1l-3.2-8.7l-3.2,8.7H731.5z"/>
			<path d="M745.5,144.3v-19.4h-6.9v-4h18.6v4h-6.9v19.4H745.5z"/>
			<path d="M775.1,135.8l4.6,1.4c-0.7,2.5-1.9,4.4-3.5,5.7c-1.6,1.2-3.7,1.9-6.2,1.9c-3.1,0-5.7-1.1-7.6-3.2c-2-2.1-3-5-3-8.7
				c0-3.9,1-6.9,3-9.1s4.6-3.2,7.9-3.2c2.9,0,5.2,0.8,7,2.5c1.1,1,1.9,2.4,2.4,4.3l-4.7,1.1c-0.3-1.2-0.9-2.2-1.7-2.9
				c-0.9-0.7-1.9-1.1-3.2-1.1c-1.7,0-3.1,0.6-4.2,1.9c-1.1,1.2-1.6,3.3-1.6,6c0,3,0.5,5.1,1.6,6.3c1.1,1.3,2.4,1.9,4.1,1.9
				c1.3,0,2.3-0.4,3.2-1.2C774.1,138.7,774.7,137.5,775.1,135.8z"/>
			<path d="M783.8,144.3V121h4.7v9.2h9.2V121h4.7v23.4h-4.7v-10.2h-9.2v10.2H783.8z"/>
			<path d="M822.2,135.8l4.6,1.4c-0.7,2.5-1.9,4.4-3.5,5.7c-1.6,1.2-3.7,1.9-6.2,1.9c-3.1,0-5.7-1.1-7.6-3.2c-2-2.1-3-5-3-8.7
				c0-3.9,1-6.9,3-9.1s4.6-3.2,7.9-3.2c2.9,0,5.2,0.8,7,2.5c1.1,1,1.9,2.4,2.4,4.3l-4.7,1.1c-0.3-1.2-0.9-2.2-1.7-2.9
				s-1.9-1.1-3.2-1.1c-1.7,0-3.1,0.6-4.2,1.9c-1.1,1.2-1.6,3.3-1.6,6c0,3,0.5,5.1,1.6,6.3c1.1,1.3,2.4,1.9,4.1,1.9
				c1.3,0,2.3-0.4,3.2-1.2C821.2,138.7,821.9,137.5,822.2,135.8z"/>
			<path d="M829.9,132.8c0-2.4,0.4-4.4,1.1-6c0.5-1.2,1.3-2.3,2.2-3.2c0.9-0.9,1.9-1.6,3-2.1c1.5-0.6,3.1-0.9,5-0.9
				c3.4,0,6.2,1.1,8.3,3.2c2.1,2.1,3.1,5.1,3.1,8.9c0,3.8-1,6.7-3.1,8.8c-2,2.1-4.8,3.2-8.2,3.2c-3.5,0-6.2-1.1-8.3-3.2
				C830.9,139.5,829.9,136.5,829.9,132.8z M834.8,132.7c0,2.6,0.6,4.6,1.8,6c1.2,1.4,2.8,2,4.7,2s3.4-0.7,4.6-2
				c1.2-1.4,1.8-3.4,1.8-6.1c0-2.7-0.6-4.7-1.8-6c-1.2-1.3-2.7-2-4.7-2s-3.5,0.7-4.7,2C835.4,128,834.8,130,834.8,132.7z"/>
			<path d="M856.2,144.3V121h7.1l4.2,15.9l4.2-15.9h7.1v23.4h-4.4V126l-4.6,18.4h-4.5l-4.6-18.4v18.4H856.2z"/>
		</g>
	</g>
</g>
</svg>
