<?xml version="1.0" encoding="utf-8"?>
<!-- Generator: Adobe Illustrator 26.0.3, SVG Export Plug-In . SVG Version: 6.00 Build 0)  -->
<svg version="1.1" id="Layer_1" xmlns="http://www.w3.org/2000/svg" xmlns:xlink="http://www.w3.org/1999/xlink" x="0px" y="0px"
	 viewBox="0 0 841.9 595.3" style="enable-background:new 0 0 841.9 595.3;" xml:space="preserve">
<g>
	<g>
		<g>
			<path d="M316.8,315c3.4,0,5.5,1.7,5.5,4.8c0,2.5-1.5,4-3.6,4.5v0l3.9,4.9v0.3h-1.1l-4-5.1h-4.9v5.1h-1.1V315H316.8z M316.8,316
				h-4.3v7.5h4.6c2.4,0,4.1-1.3,4.1-3.7C321.2,317.4,319.5,316,316.8,316z"/>
			<path d="M334.5,322.7h-7.7v5.9h8.8v1h-9.9V315h9.9v1h-8.8v5.7h7.7V322.7z"/>
			<path d="M340,329.6h-1.1V315h1.1V329.6z"/>
			<path d="M342.7,315h11.1v1h-5v13.6h-1.1V316h-5V315z"/>
			<path d="M366.6,329.6h-1.1l-1.6-3.8h-7.8l-1.6,3.8h-1.1l6.1-14.6h1L366.6,329.6z M356.5,324.8h7l-3.5-8.4L356.5,324.8z"/>
			<path d="M381.1,329.6h-0.9l-9.8-12.8v12.8h-1.1V315h0.9l9.8,12.8V315h1.1V329.6z"/>
			<path d="M402,328c0,0-1.6,1.9-4.8,1.9c-4.2,0-7.2-3.3-7.2-7.6c0-4.3,3-7.6,7.2-7.6c3.2,0,4.8,1.9,4.8,1.9l-0.6,0.8
				c0,0-1.5-1.7-4.2-1.7c-3.6,0-6.1,3-6.1,6.6c0,3.5,2.5,6.6,6.1,6.6c2.7,0,4.2-1.7,4.2-1.7L402,328z"/>
			<path d="M403.7,322.4c0-4.3,2.8-7.6,7.1-7.6c4.3,0,7.1,3.3,7.1,7.6c0,4.3-2.8,7.6-7.1,7.6C406.5,329.9,403.7,326.6,403.7,322.4z
				 M416.8,322.4c0-3.6-2.2-6.6-6-6.6c-3.8,0-6,3-6,6.6c0,3.5,2.2,6.6,6,6.6C414.6,328.9,416.8,325.9,416.8,322.4z"/>
			<path d="M433,329.6H432l-9.8-12.8v12.8h-1.1V315h0.9l9.8,12.8V315h1.1V329.6z"/>
			<path d="M435.6,315h1.1l5.5,13.3l5.5-13.3h1.1l-6.1,14.6h-1L435.6,315z"/>
			<path d="M460.2,322.7h-7.7v5.9h8.8v1h-9.9V315h9.9v1h-8.8v5.7h7.7V322.7z"/>
			<path d="M476.4,329.6h-0.9l-9.8-12.8v12.8h-1.1V315h0.9l9.8,12.8V315h1.1V329.6z"/>
			<path d="M481.8,329.6h-1.1V315h1.1V329.6z"/>
			<path d="M494.8,322.7h-7.7v5.9h8.8v1h-9.9V315h9.9v1h-8.8v5.7h7.7V322.7z"/>
			<path d="M511,329.6h-0.9l-9.8-12.8v12.8h-1.1V315h0.9l9.8,12.8V315h1.1V329.6z"/>
			<path d="M526.2,328c0,0-1.6,1.9-4.8,1.9c-4.2,0-7.2-3.3-7.2-7.6c0-4.3,3-7.6,7.2-7.6c3.2,0,4.8,1.9,4.8,1.9l-0.6,0.8
				c0,0-1.5-1.7-4.2-1.7c-3.6,0-6.1,3-6.1,6.6c0,3.5,2.5,6.6,6.1,6.6c2.7,0,4.2-1.7,4.2-1.7L526.2,328z"/>
			<path d="M537.9,322.7h-7.7v5.9h8.8v1h-9.9V315h9.9v1h-8.8v5.7h7.7V322.7z"/>
		</g>
		<g>
			<g>
				<path d="M441,274l0-5.6c0,0,2.2,1.2,4-0.6c1.3-1.3,1.4-3.5,0.1-4.8l-3.6-3.6l-7.2,7.2l-4-4c0,0,2.4-0.7,2.4-3.3
					c0-1.8-1.5-3.4-3.3-3.4h-5.2l0,10.1l-5.6,0c0,0,1.2-2.2-0.6-4c-1.3-1.3-3.5-1.4-4.8-0.1l-3.6,3.6l7.2,7.2l-4,4
					c0,0-0.7-2.4-3.3-2.4c-1.8,0-3.4,1.5-3.4,3.3v5.2l10.1,0v5.6c0,0-2.2-1.2-4,0.6c-1.3,1.3-1.4,3.5-0.1,4.8l3.6,3.6l7.2-7.2l4,4
					c0,0-2.4,0.7-2.4,3.3c0,1.8,1.5,3.4,3.3,3.4h5.2v-10.1l5.6,0c0,0-1.2,2.2,0.6,4c1.3,1.3,3.5,1.4,4.8,0.1l3.6-3.6l-7.2-7.2l4-4
					c0,0,0.7,2.4,3.3,2.4c1.8,0,3.4-1.5,3.4-3.3V274L441,274z M411.2,279.8h-3.1v-1.5c0-0.9,0.8-1.5,1.5-1.5c0,0,0,0,0,0h0
					c0,0,0,0,0,0c0.8,0,1.5,0.6,1.5,1.5V279.8z M442.1,262.9l1,1c0.7,0.7,0.5,1.6,0,2.1c0,0,0,0,0,0l0,0c0,0,0,0,0,0
					c-0.5,0.5-1.5,0.7-2.1,0l-1-1L442.1,262.9z M432.1,268.7l-4.8,4.8v-9.5L432.1,268.7z M427.2,257.9h1.5c0.9,0,1.5,0.8,1.5,1.5
					c0,0,0,0,0,0v0c0,0,0,0,0,0c0,0.8-0.6,1.5-1.5,1.5h-1.5V257.9z M424.2,269v6.7l-6.7-6.7L424.2,269z M416.3,266l-1,1l-2.2-2.2
					l1-1c0.7-0.7,1.6-0.5,2.1,0c0,0,0,0,0,0l0,0c0,0,0,0,0,0C416.8,264.4,417,265.4,416.3,266z M414.2,279.6l4.8-4.8l4.8,4.8
					L414.2,279.6z M415.1,293.9l-1-1c-0.7-0.7-0.5-1.6,0-2.1c0,0,0,0,0,0l0,0c0,0,0,0,0,0c0.5-0.5,1.5-0.7,2.1,0l1,1L415.1,293.9z
					 M419.3,289.5l0-6.7l6.7,0L419.3,289.5z M425.1,288.1l4.8-4.8v9.5L425.1,288.1z M430.1,298.9h-1.5c-0.9,0-1.5-0.8-1.5-1.5
					c0,0,0,0,0,0v0c0,0,0,0,0,0c0-0.8,0.6-1.5,1.5-1.5h1.5V298.9z M430.9,278.4C430.9,278.4,430.9,278.4,430.9,278.4
					c0,1.2-1,2.3-2.3,2.3c-1.2,0-2.3-1-2.3-2.3c0-1.2,1-2.3,2.3-2.3h0C429.9,276.1,430.9,277.1,430.9,278.4
					C430.9,278.4,430.9,278.4,430.9,278.4L430.9,278.4z M438,267.3l0,6.7l-6.7,0L438,267.3z M433,287.7l0-6.7l6.7,6.7L433,287.7z
					 M440.9,290.7l1-1l2.2,2.2l-1,1c-0.7,0.7-1.6,0.5-2.1,0c0,0,0,0,0,0l0,0c0,0,0,0,0,0C440.4,292.3,440.3,291.4,440.9,290.7z
					 M438.3,281.9l-4.8-4.8l9.5,0L438.3,281.9z M449.1,278.4c0,0.9-0.8,1.5-1.5,1.5c0,0,0,0,0,0h0c0,0,0,0,0,0
					c-0.8,0-1.5-0.6-1.5-1.5v-1.5h3.1L449.1,278.4z"/>
			</g>
		</g>
	</g>
</g>
</svg>
