<?xml version="1.0" encoding="utf-8"?>
<!-- Generator: Adobe Illustrator 26.0.3, SVG Export Plug-In . SVG Version: 6.00 Build 0)  -->
<svg version="1.1" id="Layer_1" xmlns="http://www.w3.org/2000/svg" xmlns:xlink="http://www.w3.org/1999/xlink" x="0px" y="0px"
	 viewBox="0 0 340.2 113.4" style="enable-background:new 0 0 340.2 113.4;" xml:space="preserve">
<g>
	<path d="M17.8,93.8v-6.2h25.1c4.2,0,6.2-2.6,6.2-6.2v-7c0-3.3-2.3-5.4-5.5-5.9l-16.6-2.5c-7.8-1.1-11.3-4.6-11.3-11.7v-4.1
		c0-8.1,4-12.2,12.4-12.2h25.9v6.2H28.2c-3.7,0-5.4,2.6-5.4,6v4.1c0,3.4,2.2,5.2,5.4,5.7l16.6,2.5c7.8,1.1,11.4,4.8,11.4,11.9v7
		c0,8.3-4.3,12.4-13.3,12.4H17.8z"/>
	<path d="M80,93.8c-8.3,0-12.4-4.1-12.4-12.4V50.3c0-8.3,4.1-12.4,12.4-12.4h24.8v6.2H80c-3.6,0-5.4,2.6-5.4,6.2v31.1
		c0,3.6,1.8,6.2,5.4,6.2h24.8v6.2H80z"/>
	<path d="M116.7,23.2v-7h7v7H116.7z M116.7,93.8V37.9h7v55.9H116.7z"/>
	<path d="M150.2,93.8c-8.3,0-12.4-4.1-12.4-12.4V50.3c0-8.3,4.1-12.4,12.4-12.4h18.5c8.4,0,12.5,4.1,12.5,12.4v6.2
		c0,7.3-4.4,8.8-12.5,10l-23.9,3.6v11.2c0,3.6,1.8,6.2,5.4,6.2h28.3v6.2H150.2z M174.2,50.3c0-3.6-1.8-6.2-5.5-6.2h-18.5
		c-3.6,0-5.4,2.6-5.4,6.2v13.9l23.9-3.6c3.7-0.5,5.5-1.7,5.5-4V50.3z"/>
	<path d="M229.6,93.8V50.3c0-3.6-1.8-6.2-5.4-6.2h-18.6c-3.6,0-5.4,2.6-5.4,6.2v43.5h-7V50.3c0-8.3,4.1-12.4,12.4-12.4h18.6
		c8.3,0,12.4,4.1,12.4,12.4v43.5H229.6z"/>
	<path d="M261.5,93.8c-8.3,0-12.4-4.1-12.4-12.4V25.4h7v12.4h13.9v6.2h-13.9v37.3c0,3.6,1.8,6.2,5.4,6.2h8.5v6.2H261.5z"/>
	<path d="M292.8,93.8c-8.4,0-12.5-4.1-12.5-12.4v-9c0-7.1,4.5-10.7,12.5-11.9l23.9-3.7v-6.4c0-3.6-1.8-6.2-5.4-6.2h-29v-6.2h29
		c8.3,0,12.4,4.1,12.4,12.4v31.1c0,8.3-4.1,12.4-12.4,12.4H292.8z M316.7,62.7l-23.9,3.7c-3.2,0.5-5.5,2.6-5.5,5.9v9
		c0,3.6,1.8,6.2,5.5,6.2h18.5c3.6,0,5.4-2.6,5.4-6.2V62.7z"/>
</g>
</svg>
