<?xml version="1.0" encoding="utf-8"?>
<!-- Generator: Adobe Illustrator 26.0.3, SVG Export Plug-In . SVG Version: 6.00 Build 0)  -->
<svg version="1.1" id="Layer_1" xmlns="http://www.w3.org/2000/svg" xmlns:xlink="http://www.w3.org/1999/xlink" x="0px" y="0px"
	 viewBox="0 0 712 706.5" style="enable-background:new 0 0 712 706.5;" xml:space="preserve">
<style type="text/css">
	.st0{fill:#1D1D1B;}
</style>
<path class="st0" d="M356.1,384c-28.1,0-50.8-12.4-50.8-27.7c0-15.3,22.7-27.7,50.7-27.7l0-13.7c8.7,0,17,1.2,24.1,3.3l-24,24.2
	v13.9l24-24.4c16,4.7,26.8,13.9,26.8,24.4C407,371.6,384.2,384,356.1,384 M274.3,434.2h163.4V270.8H274.3V434.2z"/>
<path class="st0" d="M282.9,467.2c-1.3,0-2.5-0.1-3.5-0.4c-1-0.3-1.9-0.7-2.7-1.3c-0.7-0.6-1.3-1.2-1.7-2.1
	c-0.4-0.8-0.6-1.8-0.7-2.8h4.5c0.1,1.1,0.5,1.8,1.2,2.3c0.7,0.5,1.6,0.7,2.9,0.7c0.4,0,0.8,0,1.2-0.1c0.4-0.1,0.8-0.2,1.1-0.4
	c0.3-0.2,0.6-0.4,0.7-0.7c0.2-0.3,0.3-0.6,0.3-1c0-0.4-0.1-0.8-0.3-1c-0.2-0.3-0.5-0.5-0.9-0.7c-0.4-0.2-0.8-0.4-1.4-0.5
	c-0.6-0.1-1.2-0.3-1.9-0.5c-0.9-0.2-1.8-0.4-2.6-0.7c-0.8-0.3-1.6-0.6-2.2-1c-0.6-0.4-1.1-1-1.5-1.6c-0.4-0.7-0.5-1.5-0.5-2.5
	s0.2-1.9,0.6-2.6c0.4-0.7,0.9-1.3,1.6-1.8c0.7-0.5,1.5-0.8,2.4-1.1c0.9-0.2,1.9-0.3,3-0.3c1.1,0,2,0.1,2.9,0.4
	c0.9,0.2,1.7,0.6,2.3,1.1s1.2,1.1,1.6,1.8c0.4,0.7,0.6,1.6,0.7,2.5h-4.3c-0.1-0.8-0.5-1.4-1-1.8c-0.6-0.4-1.3-0.6-2.3-0.6
	c-0.9,0-1.7,0.2-2.2,0.5c-0.6,0.4-0.8,0.8-0.8,1.5c0,0.4,0.1,0.7,0.3,0.9c0.2,0.2,0.5,0.5,0.9,0.6c0.4,0.2,0.9,0.3,1.5,0.5
	c0.6,0.1,1.2,0.3,2,0.5c0.9,0.2,1.7,0.4,2.5,0.7c0.8,0.3,1.5,0.6,2.1,1.1c0.6,0.5,1.1,1,1.5,1.7c0.4,0.7,0.6,1.5,0.6,2.5
	c0,1-0.2,1.9-0.6,2.7c-0.4,0.8-0.9,1.4-1.6,1.9c-0.7,0.5-1.5,0.9-2.5,1.2C285,467,284,467.2,282.9,467.2"/>
<path class="st0" d="M298.4,460.7l-1.4,1.4v4.6h-4v-19.3h4v6c0,1,0,1.9,0,2.6c0,0.7-0.1,1.3-0.1,1.8l4.5-5h4.7l-4.9,5.1l5.5,8.7H302
	L298.4,460.7z"/>
<path class="st0" d="M313.2,464.4c0.9,0,1.6-0.3,2.2-0.8c0.5-0.5,0.8-1.1,0.8-1.9V460c-0.3,0.2-0.7,0.3-1.1,0.5
	c-0.4,0.1-0.9,0.2-1.3,0.3c-0.9,0.2-1.6,0.4-2,0.7s-0.7,0.7-0.7,1.3s0.2,1,0.6,1.3C312.2,464.3,312.6,464.4,313.2,464.4
	 M316.6,466.7c-0.1-0.2-0.2-0.4-0.3-0.7c-0.1-0.3-0.1-0.6-0.2-1h-0.1c-0.5,0.6-1,1.1-1.6,1.5c-0.6,0.4-1.5,0.5-2.6,0.5
	c-0.7,0-1.3-0.1-1.9-0.3c-0.6-0.2-1.1-0.4-1.5-0.8c-0.4-0.3-0.8-0.8-1-1.3c-0.2-0.5-0.3-1.1-0.3-1.8c0-0.8,0.1-1.4,0.4-1.9
	c0.3-0.5,0.7-0.9,1.2-1.2s1.1-0.6,1.7-0.7c0.7-0.2,1.4-0.3,2.1-0.4c1.2-0.2,2.1-0.4,2.7-0.6c0.5-0.2,0.8-0.6,0.8-1.1
	c0-0.5-0.2-0.9-0.5-1.2c-0.3-0.3-0.8-0.5-1.6-0.5c-0.8,0-1.4,0.2-1.8,0.5c-0.4,0.3-0.6,0.8-0.7,1.3h-3.8c0-0.6,0.2-1.2,0.4-1.7
	c0.3-0.6,0.6-1,1.1-1.5c0.5-0.4,1.1-0.8,1.9-1c0.8-0.2,1.7-0.4,2.7-0.4c0.9,0,1.6,0.1,2.3,0.2c0.6,0.1,1.2,0.3,1.7,0.6
	c0.7,0.4,1.3,1,1.6,1.7c0.3,0.7,0.5,1.5,0.5,2.5v7.1c0,1.1,0.2,1.7,0.5,1.9v0.2H316.6z"/>
<path class="st0" d="M321.9,452.9h2.1v-4.4h4v4.4h2.7v2.6H328v6.9c0,0.5,0.1,0.9,0.4,1.1c0.3,0.2,0.6,0.3,1.1,0.3c0.1,0,0.3,0,0.5,0
	c0.2,0,0.3,0,0.5,0h0.2v3c-0.2,0-0.5,0.1-0.9,0.1c-0.4,0.1-0.9,0.1-1.4,0.1c-0.6,0-1.2-0.1-1.7-0.2c-0.5-0.1-1-0.3-1.4-0.6
	c-0.4-0.3-0.7-0.7-0.9-1.1c-0.2-0.5-0.3-1-0.3-1.8v-7.7h-2.1V452.9z"/>
<path class="st0" d="M331.8,452.9h2.1v-4.4h4v4.4h2.7v2.6h-2.7v6.9c0,0.5,0.1,0.9,0.4,1.1c0.3,0.2,0.6,0.3,1.1,0.3
	c0.1,0,0.3,0,0.5,0c0.2,0,0.3,0,0.5,0h0.2v3c-0.2,0-0.5,0.1-0.9,0.1c-0.4,0.1-0.9,0.1-1.4,0.1c-0.6,0-1.2-0.1-1.7-0.2
	c-0.5-0.1-1-0.3-1.4-0.6c-0.4-0.3-0.7-0.7-0.9-1.1c-0.2-0.5-0.3-1-0.3-1.8v-7.7h-2.1V452.9z"/>
<path class="st0" d="M349.2,455.4c-0.9,0-1.6,0.3-2.1,0.8c-0.5,0.6-0.8,1.3-0.9,2.3h5.9c-0.1-1-0.4-1.7-0.9-2.3
	C350.7,455.7,350,455.4,349.2,455.4 M349.4,467.1c-1.1,0-2.1-0.2-3-0.6c-0.9-0.4-1.7-0.9-2.3-1.5c-0.6-0.7-1.1-1.4-1.5-2.3
	c-0.3-0.9-0.5-1.8-0.5-2.9c0-1,0.2-2,0.5-2.9c0.3-0.9,0.8-1.7,1.5-2.3c0.6-0.7,1.4-1.2,2.2-1.5c0.9-0.4,1.8-0.6,2.9-0.6
	c1,0,1.9,0.2,2.7,0.5c0.8,0.3,1.5,0.7,2.1,1.3c0.8,0.8,1.4,1.7,1.7,2.8c0.4,1.1,0.5,2.4,0.5,3.7h-10.1c0.1,1,0.5,1.9,1,2.4
	c0.6,0.6,1.3,0.9,2.3,0.9c0.6,0,1.2-0.1,1.6-0.3c0.4-0.2,0.7-0.6,0.9-1h3.9c-0.2,0.6-0.4,1.2-0.8,1.7c-0.4,0.5-0.8,1-1.4,1.4
	c-0.5,0.4-1.2,0.7-1.9,0.9C351.1,467,350.3,467.1,349.4,467.1"/>
<path class="st0" d="M364.7,455.4c-0.9,0-1.6,0.3-2.1,0.8c-0.5,0.6-0.8,1.3-0.9,2.3h5.9c-0.1-1-0.4-1.7-0.9-2.3
	C366.1,455.7,365.5,455.4,364.7,455.4 M364.9,467.1c-1.1,0-2.1-0.2-3-0.6c-0.9-0.4-1.7-0.9-2.3-1.5c-0.6-0.7-1.1-1.4-1.5-2.3
	c-0.3-0.9-0.5-1.8-0.5-2.9c0-1,0.2-2,0.5-2.9c0.3-0.9,0.8-1.7,1.5-2.3c0.6-0.7,1.4-1.2,2.2-1.5c0.9-0.4,1.8-0.6,2.9-0.6
	c1,0,1.9,0.2,2.7,0.5c0.8,0.3,1.5,0.7,2.1,1.3c0.8,0.8,1.4,1.7,1.7,2.8c0.4,1.1,0.5,2.4,0.5,3.7h-10.1c0.1,1,0.5,1.9,1,2.4
	c0.6,0.6,1.3,0.9,2.3,0.9c0.6,0,1.2-0.1,1.6-0.3c0.4-0.2,0.7-0.6,0.9-1h3.9c-0.2,0.6-0.4,1.2-0.8,1.7c-0.4,0.5-0.8,1-1.4,1.4
	c-0.5,0.4-1.2,0.7-1.9,0.9C366.6,467,365.8,467.1,364.9,467.1"/>
<path class="st0" d="M372.6,452.9h2.1v-4.4h4v4.4h2.7v2.6h-2.7v6.9c0,0.5,0.1,0.9,0.4,1.1c0.3,0.2,0.6,0.3,1.1,0.3
	c0.1,0,0.3,0,0.5,0c0.2,0,0.3,0,0.5,0h0.2v3c-0.2,0-0.5,0.1-0.9,0.1c-0.4,0.1-0.9,0.1-1.4,0.1c-0.6,0-1.2-0.1-1.7-0.2
	c-0.5-0.1-1-0.3-1.4-0.6c-0.4-0.3-0.7-0.7-0.9-1.1c-0.2-0.5-0.3-1-0.3-1.8v-7.7h-2.1V452.9z"/>
<path class="st0" d="M389.2,464.4c0.9,0,1.6-0.3,2.2-0.8c0.5-0.5,0.8-1.1,0.8-1.9V460c-0.3,0.2-0.7,0.3-1.1,0.5
	c-0.4,0.1-0.9,0.2-1.3,0.3c-0.9,0.2-1.6,0.4-2,0.7s-0.7,0.7-0.7,1.3s0.2,1,0.6,1.3C388.2,464.3,388.7,464.4,389.2,464.4
	 M392.7,466.7c-0.1-0.2-0.2-0.4-0.3-0.7c-0.1-0.3-0.1-0.6-0.2-1h-0.1c-0.5,0.6-1,1.1-1.6,1.5c-0.6,0.4-1.5,0.5-2.6,0.5
	c-0.7,0-1.3-0.1-1.9-0.3c-0.6-0.2-1.1-0.4-1.5-0.8c-0.4-0.3-0.8-0.8-1-1.3c-0.2-0.5-0.3-1.1-0.3-1.8c0-0.8,0.1-1.4,0.4-1.9
	c0.3-0.5,0.7-0.9,1.2-1.2s1.1-0.6,1.7-0.7c0.7-0.2,1.4-0.3,2.1-0.4c1.2-0.2,2.1-0.4,2.7-0.6c0.5-0.2,0.8-0.6,0.8-1.1
	c0-0.5-0.2-0.9-0.5-1.2c-0.3-0.3-0.8-0.5-1.6-0.5c-0.8,0-1.4,0.2-1.8,0.5c-0.4,0.3-0.6,0.8-0.7,1.3h-3.8c0-0.6,0.2-1.2,0.4-1.7
	c0.3-0.6,0.6-1,1.1-1.5c0.5-0.4,1.1-0.8,1.9-1c0.8-0.2,1.7-0.4,2.7-0.4c0.9,0,1.6,0.1,2.3,0.2c0.6,0.1,1.2,0.3,1.7,0.6
	c0.7,0.4,1.3,1,1.6,1.7c0.3,0.7,0.5,1.5,0.5,2.5v7.1c0,1.1,0.2,1.7,0.5,1.9v0.2H392.7z"/>
<path class="st0" d="M397.9,452.9h2.1v-4.4h4v4.4h2.7v2.6H404v6.9c0,0.5,0.1,0.9,0.4,1.1c0.3,0.2,0.6,0.3,1.1,0.3c0.1,0,0.3,0,0.5,0
	c0.2,0,0.3,0,0.5,0h0.2v3c-0.2,0-0.5,0.1-0.9,0.1c-0.4,0.1-0.9,0.1-1.4,0.1c-0.6,0-1.2-0.1-1.8-0.2c-0.5-0.1-1-0.3-1.4-0.6
	c-0.4-0.3-0.7-0.7-0.9-1.1c-0.2-0.5-0.3-1-0.3-1.8v-7.7h-2.1V452.9z"/>
<path class="st0" d="M415.3,455.4c-0.9,0-1.6,0.3-2.1,0.8c-0.5,0.6-0.8,1.3-0.9,2.3h5.9c-0.1-1-0.4-1.7-0.9-2.3
	C416.7,455.7,416.1,455.4,415.3,455.4 M415.5,467.1c-1.1,0-2.1-0.2-3-0.6c-0.9-0.4-1.7-0.9-2.3-1.5c-0.6-0.7-1.1-1.4-1.5-2.3
	c-0.3-0.9-0.5-1.8-0.5-2.9c0-1,0.2-2,0.5-2.9c0.3-0.9,0.8-1.7,1.5-2.3c0.6-0.7,1.4-1.2,2.2-1.5c0.9-0.4,1.8-0.6,2.9-0.6
	c1,0,1.9,0.2,2.7,0.5c0.8,0.3,1.5,0.7,2.1,1.3c0.8,0.8,1.4,1.7,1.7,2.8c0.4,1.1,0.5,2.4,0.5,3.7h-10.1c0.1,1,0.5,1.9,1,2.4
	c0.6,0.6,1.3,0.9,2.3,0.9c0.6,0,1.2-0.1,1.6-0.3c0.4-0.2,0.7-0.6,0.9-1h3.9c-0.2,0.6-0.4,1.2-0.8,1.7c-0.4,0.5-0.8,1-1.4,1.4
	c-0.5,0.4-1.2,0.7-1.9,0.9C417.2,467,416.4,467.1,415.5,467.1"/>
<path class="st0" d="M428.2,455L428.2,455c0.5-0.8,1.1-1.5,1.8-1.9c0.7-0.4,1.6-0.6,2.5-0.6c1.5,0,2.7,0.5,3.5,1.4
	c0.8,0.9,1.3,2.2,1.3,3.7v9.1h-4v-8.3c0-0.8-0.2-1.4-0.6-1.8c-0.4-0.5-1-0.7-1.7-0.7c-0.8,0-1.4,0.3-1.9,0.9
	c-0.5,0.6-0.7,1.3-0.7,2.2v7.8h-4.1v-13.8h3.9V455z"/>
</svg>
