<?xml version="1.0" encoding="utf-8"?>
<!-- Generator: Adobe Illustrator 26.0.3, SVG Export Plug-In . SVG Version: 6.00 Build 0)  -->
<svg version="1.1" id="Layer_1" xmlns="http://www.w3.org/2000/svg" xmlns:xlink="http://www.w3.org/1999/xlink" x="0px" y="0px"
	 viewBox="0 0 283.5 110.4" style="enable-background:new 0 0 283.5 110.4;" xml:space="preserve">
<g>
	<path d="M99.2,37.4h-9.4c-17.7,0-20.3,12.3-20.3,18c0,5.6,2.6,18,20.3,18h9.4c17.7,0,20.3-12.3,20.3-18
		C119.5,49.8,116.9,37.4,99.2,37.4z M104,64.9L104,64.9c-3.7,3.7-9.1,4.2-13.7-0.3l-5-5c-4.5-4.5-4-10-0.3-13.7l0,0
		c3.7-3.7,9.1-4.2,13.7,0.3l5,5C108.2,55.7,107.7,61.2,104,64.9z"/>
	<g>
		<path d="M52,73.2H27.8c-2.6,0-3.9-1.4-3.9-3.5s1.3-3.5,3.9-3.5h23.8c2.7-0.1,4-1.7,4-3.8s-1.2-3.5-4-3.5H35.1
			c-5.5,0-11.5-2.7-11.5-10.6s6.2-10.8,11.2-10.8h21.9c2.6,0,3.9,1.4,3.9,3.5s-1.3,3.4-3.9,3.4H35c-2.3,0.1-3.7,1.6-3.7,3.7
			c0,2.1,1.4,3.6,3.7,3.7h17c5.8,0,11.4,2.7,11.4,10.6S58,73.2,52,73.2"/>
		<path d="M184.5,57.6v-3.4c0-1.8,0.7-10.5,11.1-10.5h2.3c10.4,0,11,8.8,11.1,10.5v3.4H184.5z M197.9,37.1h-2.3c-15,0-19,10.5-19,18
			v14.5c0,2.5,1.8,3.7,4,3.7s4-1.4,4-3.9v-5.2H209v5.2c0,2.5,1.8,3.9,4,3.9s4-1.2,4-3.7V55.1C216.9,47.6,213,37.1,197.9,37.1"/>
		<path d="M147.2,37.1c-16.5,0.1-20.1,11.7-20.1,18.1v14.3c0,2.5,1.8,3.7,4,3.7s4-1.4,4-3.8V55.8c0.1-4.1,1.5-11.8,11.9-11.8h0.3
			h0.3c10.4,0,11.8,7.7,11.9,11.8v13.5c0,2.5,1.8,3.8,4,3.8s4-1.2,4-3.7V55.2C167.3,48.7,163.7,37.2,147.2,37.1z"/>
		<path d="M256,37.6h-32.7c-2.6,0-3.9,1.4-3.9,3.5s1.3,3.4,3.9,3.4h12.4v25c0,2.5,1.8,3.7,3.9,3.7s3.9-1.2,3.9-3.7v-25H256
			c2.6,0,3.9-1.4,3.9-3.4C259.9,39,258.6,37.6,256,37.6z"/>
	</g>
</g>
</svg>
