<?xml version="1.0" encoding="utf-8"?>
<!-- Generator: Adobe Illustrator 26.0.3, SVG Export Plug-In . SVG Version: 6.00 Build 0)  -->
<svg version="1.1" id="Layer_1" xmlns="http://www.w3.org/2000/svg" xmlns:xlink="http://www.w3.org/1999/xlink" x="0px" y="0px"
	 viewBox="0 0 1190.6 841.9" style="enable-background:new 0 0 1190.6 841.9;" xml:space="preserve">
<path d="M404.1,385.6c0.5,9.6,6.4,12.6,15.4,12.6c6.4,0,13-2.3,13-8.3c0-7.2-11.6-8.5-23.3-11.8c-11.6-3.3-23.8-8.5-23.8-23.4
	c0-17.8,17.9-24.7,33.1-24.7c16.2,0,32.4,7.9,32.5,26.2h-21.2c0.3-7.4-6.6-9.8-13.1-9.8c-4.6,0-10.2,1.6-10.2,6.9
	c0,6.3,11.7,7.4,23.6,10.7c11.7,3.3,23.6,8.8,23.6,23.4c0,20.6-17.5,27.2-35.4,27.2c-18.7,0-35.2-8.2-35.3-29H404.1z"/>
<path d="M491.8,366.4h-12v26.9c0,4.7,2.7,5.7,6.9,5.7c1.6,0,3.3-0.2,5-0.2V413c-3.5,0.1-7.1,0.6-10.6,0.6
	c-16.5,0-20.7-4.8-20.7-20.8V336h19.3v17.9h12V366.4z"/>
<path d="M499.3,372.1c0.3-7.7,4-12.8,9.2-15.8c5.2-3,12.1-4.1,18.8-4.1c14,0,27.5,3.1,27.5,19.8v25.8c0,5,0,10.5,2.3,15.1h-19.5
	c-0.7-1.8-0.9-3.6-1.1-5.6c-5,5.2-12.4,7.3-19.5,7.3c-11.3,0-20.1-5.7-20.1-17.9c0-19.2,20.9-17.8,34.4-20.5
	c3.3-0.7,5.1-1.8,5.1-5.5c0-4.4-5.3-6.1-9.3-6.1c-5.4,0-8.8,2.4-9.7,7.4H499.3z M524.4,402.7c9.2,0,12.3-5.2,11.8-17.4
	c-2.7,1.7-7.7,2-11.9,3.2c-4.3,1-8,2.8-8,7.5C516.3,400.8,520.1,402.7,524.4,402.7z"/>
<path d="M595.4,366.4h-12v26.9c0,4.7,2.7,5.7,6.9,5.7c1.6,0,3.3-0.2,5-0.2V413c-3.5,0.1-7.1,0.6-10.6,0.6
	c-16.5,0-20.7-4.8-20.7-20.8V336h19.3v17.9h12V366.4z"/>
<path d="M605.3,353.8h18.8v8.1h0.2c3.5-6,11.5-9.8,18.5-9.8c19.7,0,21.3,14.3,21.3,22.9v37.9h-19.3v-28.6c0-8.1,0.9-16.3-9.7-16.3
	c-7.3,0-10.5,6.1-10.5,12.6v32.2h-19.4V353.8z"/>
<path d="M689.7,388.1c0.4,8.1,5,13.4,13.2,13.4c4.7,0,9.2-2.2,11-6.5h18.1c-3.5,13.7-16.2,19.6-29.4,19.6
	c-19.2,0-32.3-11.6-32.3-31.4c0-18.1,14.5-31.1,31.9-31.1c21.2,0,31.8,15.9,30.9,36H689.7z M713.8,377.3c-0.3-6.6-5-12.1-11.5-12.1
	c-6.8,0-11.4,4.9-12.5,12.1H713.8z"/>
<path d="M770.6,366.4h-11.9v26.9c0,4.7,2.7,5.7,6.9,5.7c1.6,0,3.3-0.2,5-0.2v14.2c-3.5,0.1-7.1,0.6-10.6,0.6
	c-16.5,0-20.7-4.8-20.7-20.8V336h19.3v17.9h11.9V366.4z"/>
<path d="M808.1,366.4h-11.9v26.9c0,4.7,2.7,5.7,6.9,5.7c1.6,0,3.3-0.2,5-0.2v14.2c-3.5,0.1-7.1,0.6-10.6,0.6
	c-16.5,0-20.7-4.8-20.7-20.8V336h19.4v17.9h11.9V366.4z"/>
</svg>
