<?xml version="1.0" encoding="utf-8"?>
<!-- Generator: Adobe Illustrator 26.0.3, SVG Export Plug-In . SVG Version: 6.00 Build 0)  -->
<svg version="1.1" xmlns="http://www.w3.org/2000/svg" xmlns:xlink="http://www.w3.org/1999/xlink" x="0px" y="0px"
	 viewBox="0 0 1280 800" style="enable-background:new 0 0 1280 800;" xml:space="preserve">
<style type="text/css">
	.st0{display:none;}
	.st1{display:inline;fill:#B4B4B4;}
	.st2{display:inline;fill:#818181;}
	.st3{display:inline;fill:#55BF96;}
	.st4{display:inline;fill:#085C44;}
	.st5{display:inline;fill:#F3F3F3;stroke:#1A1A1A;stroke-width:4;stroke-miterlimit:10;}
	.st6{display:inline;fill:#1A1A1A;}
	.st7{display:inline;fill:#F3F3F3;}
	.st8{display:inline;fill:#4E4E4E;}
	.st9{display:inline;fill:url(#SVGID_1_);}
	.st10{display:inline;fill:url(#SVGID_00000093871935262787183770000004084381271478943637_);}
	.st11{display:inline;opacity:0.8;fill:url(#SVGID_00000168109367851618603890000000388037754831466896_);}
	.st12{display:inline;opacity:0.9;fill:url(#SVGID_00000156548858873410638010000013057103479794219681_);}
</style>
<g id="Hjelpelinjer" class="st0">
	<polygon class="st1" points="410,524 293.2,524 410,407.2 	"/>
	<polygon class="st2" points="351.6,465.6 351.6,348.9 468.4,348.9 	"/>
</g>
<g id="Logo_grønn" class="st0">
	<polygon class="st3" points="375.8,441.3 293.2,523.9 293.2,358.7 	"/>
	<polygon class="st4" points="293.2,441.3 210.7,358.7 293.2,276.1 	"/>
</g>
<g id="Logo_turkis">
	<polygon points="375.8,441.3 293.2,523.9 293.2,358.7 	"/>
	<polygon points="293.2,441.3 210.7,358.7 293.2,276.1 	"/>
</g>
<g id="Logo_ramme_neg_1_" class="st0">
	<polygon class="st5" points="375.8,441.3 293.2,523.9 293.2,358.7 	"/>
	<polygon class="st5" points="293.2,441.3 210.7,358.7 293.2,276.1 	"/>
</g>
<g id="Logo_flat_pos" class="st0">
	<polygon class="st6" points="375.8,441.3 293.2,523.9 293.2,358.7 	"/>
	<polygon class="st6" points="289.2,441.3 206.7,358.7 289.2,276.1 	"/>
</g>
<g id="Logo_flat_neg_copy" class="st0">
	<polygon class="st7" points="375.8,441.3 293.2,523.9 293.2,358.7 	"/>
	<polygon class="st7" points="289.2,441.3 206.7,358.7 289.2,276.1 	"/>
</g>
<g id="Logo_gråtoner" class="st0">
	<polygon class="st1" points="375.8,441.3 293.2,523.9 293.2,358.7 	"/>
	<polygon class="st8" points="293.2,441.3 210.7,358.7 293.2,276.1 	"/>
</g>
<g id="Logo_turkis_gradient">
	<polygon points="375.8,441.3 293.2,523.9 293.2,358.7 	"/>
	<polygon points="293.2,441.3 210.7,358.7 293.2,276.1 	"/>
</g>
<g id="Logo_gradient_gråtoner" class="st0">
	<linearGradient id="SVGID_1_" gradientUnits="userSpaceOnUse" x1="370.2825" y1="461.932" x2="272.5977" y2="435.7575">
		<stop  offset="0" style="stop-color:#B4B4B4;stop-opacity:0"/>
		<stop  offset="0.1544" style="stop-color:#B0B0B0;stop-opacity:9.263560e-02"/>
		<stop  offset="0.3038" style="stop-color:#A4A4A4;stop-opacity:0.1823"/>
		<stop  offset="0.4512" style="stop-color:#919191;stop-opacity:0.2707"/>
		<stop  offset="0.5974" style="stop-color:#767676;stop-opacity:0.3584"/>
		<stop  offset="0.7428" style="stop-color:#525252;stop-opacity:0.4457"/>
		<stop  offset="0.8855" style="stop-color:#282828;stop-opacity:0.5313"/>
		<stop  offset="1" style="stop-color:#000000;stop-opacity:0.6"/>
	</linearGradient>
	<polygon class="st9" points="375.8,441.3 293.2,523.9 293.2,358.7 	"/>
	
		<linearGradient id="SVGID_00000022547516979953355800000002140825656492452268_" gradientUnits="userSpaceOnUse" x1="213.1598" y1="344.5981" x2="307.3627" y2="361.2086">
		<stop  offset="0" style="stop-color:#4E4E4E;stop-opacity:0"/>
		<stop  offset="0.2318" style="stop-color:#4A4A4A;stop-opacity:0.1391"/>
		<stop  offset="0.4559" style="stop-color:#3F3F3F;stop-opacity:0.2736"/>
		<stop  offset="0.6771" style="stop-color:#2B2B2B;stop-opacity:0.4062"/>
		<stop  offset="0.895" style="stop-color:#101010;stop-opacity:0.537"/>
		<stop  offset="1" style="stop-color:#000000;stop-opacity:0.6"/>
	</linearGradient>
	<polygon style="display:inline;fill:url(#SVGID_00000022547516979953355800000002140825656492452268_);" points="293.2,441.3 
		210.7,358.7 293.2,276.1 	"/>
</g>
<g id="Logo_gradient_rammer" class="st0">
	
		<linearGradient id="SVGID_00000023997932371968473760000009536376594005232574_" gradientUnits="userSpaceOnUse" x1="367.9289" y1="465.5564" x2="268.9735" y2="433.4039">
		<stop  offset="0" style="stop-color:#B4B4B4;stop-opacity:0"/>
		<stop  offset="0.1192" style="stop-color:#A4A4A4;stop-opacity:0.1287"/>
		<stop  offset="0.3512" style="stop-color:#7B7B7B;stop-opacity:0.3793"/>
		<stop  offset="0.6697" style="stop-color:#3A3A3A;stop-opacity:0.7232"/>
		<stop  offset="0.9259" style="stop-color:#000000"/>
	</linearGradient>
	<polygon style="display:inline;opacity:0.8;fill:url(#SVGID_00000023997932371968473760000009536376594005232574_);" points="
		375.8,441.3 293.2,523.9 293.2,358.7 	"/>
	
		<linearGradient id="SVGID_00000111878018992308686220000010449155698856148131_" gradientUnits="userSpaceOnUse" x1="214.2393" y1="341.9261" x2="310.0346" y2="362.2881">
		<stop  offset="0" style="stop-color:#4E4E4E;stop-opacity:0"/>
		<stop  offset="0.2103" style="stop-color:#4A4A4A;stop-opacity:0.2318"/>
		<stop  offset="0.4136" style="stop-color:#3F3F3F;stop-opacity:0.4559"/>
		<stop  offset="0.6142" style="stop-color:#2B2B2B;stop-opacity:0.6771"/>
		<stop  offset="0.8119" style="stop-color:#101010;stop-opacity:0.895"/>
		<stop  offset="0.9072" style="stop-color:#000000"/>
	</linearGradient>
	<polygon style="display:inline;opacity:0.9;fill:url(#SVGID_00000111878018992308686220000010449155698856148131_);" points="
		293.2,441.3 210.7,358.7 293.2,276.1 	"/>
</g>
<g id="Text_mørk" class="st0">
	<path class="st6" d="M1072.8,462.2h-19.8l-42.2-83.4l-21.9,23.4v60h-18V285l18-8.8v104.6l46.6-50.2h20.9l-33,35L1072.8,462.2z"/>
	<path class="st6" d="M583.1,524l22.2-11.6L672.4,331h-19.3l-33.7,93.3l-4.6,13.3c-0.3-1-1-3.1-2.1-6.2c-1-3.1-1.8-5.3-2.3-7
		L577.1,331h-18.3L607,458.3L583.1,524z"/>
	<path class="st6" d="M553.1,376.7c-5.4-4.6-10.8-8.5-16.2-11.5c-5.4-3-11.6-5.9-18.7-8.6c-6.5-2.6-11.8-4.8-15.8-6.7
		c-4-1.9-8.2-4.3-12.6-7.2c-4.4-2.9-7.6-6.2-9.8-9.8c-2.1-3.6-3.2-7.7-3.2-12.4c0-7.7,3-13.9,9-18.5c6-4.6,14.3-6.4,24.7-7
		c11.7-0.6,25.9,1.7,31.8,5.9c5.5,3.9,8.1,8,10.5,13h18.9c-5.7-16-13.4-22.1-17.3-25.4c-9.8-8-29.9-9.9-43-9.9
		c-16.1,0-29,4.1-38.6,12.2c-9.6,8.1-14.4,18.1-14.4,29.9c0,7,1.5,13.5,4.4,19.3c2.9,5.8,7.2,10.9,12.7,15.1
		c5.6,4.2,11.1,7.7,16.5,10.4c5.4,2.7,11.8,5.5,19.2,8.2c12.4,4.6,22.2,10.3,29.6,16.9c7.4,6.6,11.1,15,11.1,25.1
		c0,10.6-3.4,18.8-10.2,24.6c-6.8,5.8-16.1,8.6-27.9,8.6c-10,0-18.7-2.4-26.3-7.2c-7.6-4.8-13.2-11.2-17-19.3l-16,8.6
		c4,9.3,11,17.1,20.9,23.6c10.8,7,23.5,10.6,38.1,10.6c17,0,30.7-4.4,41.2-13.3c10.5-8.8,15.7-21.1,15.7-36.7
		c0-8.1-1.5-15.4-4.5-21.9C562.7,386.9,558.5,381.4,553.1,376.7z"/>
	<path class="st6" d="M941.1,343.6c-9.8-10.7-22.2-16.1-37.3-16.1c-17.2,0-31,6.1-41.5,18.3c-10.5,12.2-15.7,29-15.7,50.5
		c0,19.2,5.2,35.5,15.7,48.9c10.5,13.4,24.3,20.1,41.5,20.1c14.8,0,28.1-5,40.2-14.9l-15.6-8.3c-7.6,4.3-15.5,6.5-23.8,6.5
		c-11,0-19.8-3.9-26.5-12c-6.7-8.1-10.8-18.6-12.4-32.6h89.6c0.3-4,0.5-8.1,0.5-12.7C955.7,370.3,950.8,354.4,941.1,343.6z
		 M865.1,388c0.7-15,4.5-25.5,11.6-32.9c7-7.4,16.1-11.2,27-11.2c8.8,0,16.5,3.5,23.3,10.1c6.8,6.6,10.3,18,10.4,34H865.1z"/>
	<path class="st6" d="M840.1,440.6c-7.6,5.1-14.2,7.7-19.8,7.7c-5.7,0-9.5-1.8-11.4-5.4c-1.9-3.6-2.9-8.8-2.9-15.5V347h34v-16h-34
		v-54.7l-18,9V331h-26.3l8.5,16H788v88.2c0,20.1,8.7,30.1,26,30.1c8.4,0,14.3,0,33.7-10.3L840.1,440.6z"/>
	<path class="st6" d="M763.5,415.2c-1.8-4.2-3.9-7.6-6.2-10.3c-2.3-2.7-5.7-5.3-10-8c-4.4-2.7-8-4.6-10.9-5.9c-2.9-1.3-7-3-12.1-5
		c-4.3-1.7-7.4-3-9.3-3.7c-1.9-0.8-4.5-2.1-7.7-3.9c-3.3-1.8-5.7-3.4-7.2-4.9c-1.5-1.5-2.9-3.3-4.1-5.5c-1.2-2.2-1.8-4.6-1.8-7.2
		c0-5.3,2.3-9.5,6.8-12.6c4.5-3.1,10.4-4.6,17.9-4.6c10.4,0,24.9,2.8,35,3.3l-9.1-17.1c-7-0.9-14.3-2.2-25.4-2.2
		c-12.5,0-22.6,3.1-30.5,9.3c-7.9,6.2-11.8,14.3-11.8,24.2c0,5.3,1,10.1,3,14.3c2,4.2,5,7.9,9.2,10.9c4.1,3.1,8.2,5.7,12.1,7.7
		c3.9,2.1,9,4.4,15.2,7c5.2,2.1,9.2,3.8,12.1,5.2c2.9,1.4,6.2,3.3,9.9,5.8c3.7,2.5,6.4,5.2,8.1,8.2c1.7,3,2.6,6.4,2.6,10.2
		c0,6-2.4,10.7-7.2,14c-4.8,3.3-11,5-18.5,5c-11.6,0-22.2-5-31.6-15.1l-15.3,8.1c12.9,15.3,28,22.9,45.3,22.9
		c13.6,0,24.3-3.3,32.3-9.8c8-6.5,12-15.3,12-26.3C766.2,424.1,765.3,419.4,763.5,415.2z"/>
</g>
<g id="Text_mørk_fix">
	<path d="M1072.8,462.2h-19.8l-42.2-83.4l-21.9,23.4v60h-18V285l18-8.8v104.6l46.6-50.2h20.9l-33,35L1072.8,462.2z"/>
	<path d="M583.1,524l22.2-11.6L672.4,331h-19.3l-33.7,93.3l-4.6,13.3c-0.3-1-1-3.1-2.1-6.2c-1-3.1-1.8-5.3-2.3-7L577.1,331h-18.3
		L607,458.3L583.1,524z"/>
	<path d="M553.1,376.7c-5.4-4.6-10.8-8.5-16.2-11.5c-5.4-3-11.6-5.9-18.7-8.6c-6.5-2.6-11.8-4.8-15.8-6.7c-4-1.9-8.2-4.3-12.6-7.2
		c-4.4-2.9-7.6-6.2-9.8-9.8c-2.1-3.6-3.2-7.7-3.2-12.4c0-7.7,3-13.9,9-18.5c6-4.6,14.3-6.4,24.7-7c11.7-0.6,25.9,1.7,31.8,5.9
		c5.5,3.9,8.2,7.9,10.8,14h18.2c-5.2-16.5-12.4-22.2-18.2-26.6c-10.2-7.6-28.7-9.6-41.7-9.6c-16.1,0-29,4.1-38.6,12.2
		c-9.6,8.1-14.4,18.1-14.4,29.9c0,7,1.5,13.5,4.4,19.3c2.9,5.8,7.2,10.9,12.7,15.1c5.6,4.2,11.1,7.7,16.5,10.4
		c5.4,2.7,11.8,5.5,19.2,8.2c12.4,4.6,22.2,10.3,29.6,16.9c7.4,6.6,11.1,15,11.1,25.1c0,10.6-3.4,18.8-10.2,24.6
		c-6.8,5.8-16.1,8.6-27.9,8.6c-10,0-18.7-2.4-26.3-7.2c-7.6-4.8-13.2-11.2-17-19.3l-16,8.6c4,9.3,11,17.1,20.9,23.6
		c10.8,7,23.5,10.6,38.1,10.6c17,0,30.7-4.4,41.2-13.3c10.5-8.8,15.7-21.1,15.7-36.7c0-8.1-1.5-15.4-4.5-21.9
		C562.7,386.9,558.5,381.4,553.1,376.7z"/>
	<path d="M941.1,343.6c-9.8-10.7-22.2-16.1-37.3-16.1c-17.2,0-31,6.1-41.5,18.3c-10.5,12.2-15.7,29-15.7,50.5
		c0,19.2,5.2,35.5,15.7,48.9c10.5,13.4,24.3,20.1,41.5,20.1c14.8,0,28.1-5,40.2-14.9l-15.6-8.3c-7.6,4.3-15.5,6.5-23.8,6.5
		c-11,0-19.8-3.9-26.5-12c-6.7-8.1-10.8-18.6-12.4-32.6h89.6c0.3-4,0.5-8.1,0.5-12.7C955.7,370.3,950.8,354.4,941.1,343.6z
		 M865.1,388c0.7-15,4.5-25.5,11.6-32.9c7-7.4,16.1-11.2,27-11.2c8.8,0,16.5,3.5,23.3,10.1c6.8,6.6,10.3,18,10.4,34H865.1z"/>
	<path d="M840.1,440.6c-7.6,5.1-14.2,7.7-19.8,7.7c-5.7,0-9.5-1.8-11.4-5.4c-1.9-3.6-2.9-8.8-2.9-15.5V347h34v-16h-34v-54.7l-18,9
		V331h-26.3l8.5,16H788v88.2c0,20.1,8.7,30.1,26,30.1c8.4,0,14.3,0,33.7-10.3L840.1,440.6z"/>
	<path d="M763.5,415.2c-1.8-4.2-3.9-7.6-6.2-10.3c-2.3-2.7-5.7-5.3-10-8c-4.4-2.7-8-4.6-10.9-5.9c-2.9-1.3-7-3-12.1-5
		c-4.3-1.7-7.4-3-9.3-3.7c-1.9-0.8-4.5-2.1-7.7-3.9c-3.3-1.8-5.7-3.4-7.2-4.9c-1.5-1.5-2.9-3.3-4.1-5.5c-1.2-2.2-1.8-4.6-1.8-7.2
		c0-5.3,2.3-9.5,6.8-12.6c4.5-3.1,10.4-4.6,17.9-4.6c10.4,0,24.9,2.8,35,3.3l-9.1-17.1c-7-0.9-14.3-2.2-25.4-2.2
		c-12.5,0-22.6,3.1-30.5,9.3c-7.9,6.2-11.8,14.3-11.8,24.2c0,5.3,1,10.1,3,14.3c2,4.2,5,7.9,9.2,10.9c4.1,3.1,8.2,5.7,12.1,7.7
		c3.9,2.1,9,4.4,15.2,7c5.2,2.1,9.2,3.8,12.1,5.2c2.9,1.4,6.2,3.3,9.9,5.8c3.7,2.5,6.4,5.2,8.1,8.2c1.7,3,2.6,6.4,2.6,10.2
		c0,6-2.4,10.7-7.2,14c-4.8,3.3-11,5-18.5,5c-11.6,0-22.2-5-31.6-15.1l-15.3,8.1c12.9,15.3,28,22.9,45.3,22.9
		c13.6,0,24.3-3.3,32.3-9.8c8-6.5,12-15.3,12-26.3C766.2,424.1,765.3,419.4,763.5,415.2z"/>
</g>
<g id="Text_lys" class="st0">
	<path class="st7" d="M1072.8,462.2h-19.8l-42.2-83.4l-21.9,23.4v60h-18V285l18-8.8v104.6l46.6-50.2h20.9l-33,35L1072.8,462.2z"/>
	<path class="st7" d="M583.1,524l22.2-11.6L672.4,331h-19.3l-33.7,93.3l-4.6,13.3c-0.3-1-1-3.1-2.1-6.2c-1-3.1-1.8-5.3-2.3-7
		L577.1,331h-18.3L607,458.3L583.1,524z"/>
	<path class="st7" d="M553.1,376.7c-5.4-4.6-10.8-8.5-16.2-11.5c-5.4-3-11.6-5.9-18.7-8.6c-6.5-2.6-11.8-4.8-15.8-6.7
		c-4-1.9-8.2-4.3-12.6-7.2c-4.4-2.9-7.6-6.2-9.8-9.8c-2.1-3.6-3.2-7.7-3.2-12.4c0-7.7,3-13.9,9-18.5c6-4.6,14.3-6.4,24.7-7
		c11.7-0.6,25.9,1.7,31.8,5.9c5.5,3.9,8.1,8,10.5,13h18.9c-5.7-16-13.4-22.1-17.3-25.4c-9.8-8-29.9-9.9-43-9.9
		c-16.1,0-29,4.1-38.6,12.2c-9.6,8.1-14.4,18.1-14.4,29.9c0,7,1.5,13.5,4.4,19.3c2.9,5.8,7.2,10.9,12.7,15.1
		c5.6,4.2,11.1,7.7,16.5,10.4c5.4,2.7,11.8,5.5,19.2,8.2c12.4,4.6,22.2,10.3,29.6,16.9c7.4,6.6,11.1,15,11.1,25.1
		c0,10.6-3.4,18.8-10.2,24.6c-6.8,5.8-16.1,8.6-27.9,8.6c-10,0-18.7-2.4-26.3-7.2c-7.6-4.8-13.2-11.2-17-19.3l-16,8.6
		c4,9.3,11,17.1,20.9,23.6c10.8,7,23.5,10.6,38.1,10.6c17,0,30.7-4.4,41.2-13.3c10.5-8.8,15.7-21.1,15.7-36.7
		c0-8.1-1.5-15.4-4.5-21.9C562.7,386.9,558.5,381.4,553.1,376.7z"/>
	<path class="st7" d="M941.1,343.6c-9.8-10.7-22.2-16.1-37.3-16.1c-17.2,0-31,6.1-41.5,18.3c-10.5,12.2-15.7,29-15.7,50.5
		c0,19.2,5.2,35.5,15.7,48.9c10.5,13.4,24.3,20.1,41.5,20.1c14.8,0,28.1-5,40.2-14.9l-15.6-8.3c-7.6,4.3-15.5,6.5-23.8,6.5
		c-11,0-19.8-3.9-26.5-12c-6.7-8.1-10.8-18.6-12.4-32.6h89.6c0.3-4,0.5-8.1,0.5-12.7C955.7,370.3,950.8,354.4,941.1,343.6z
		 M865.1,388c0.7-15,4.5-25.5,11.6-32.9c7-7.4,16.1-11.2,27-11.2c8.8,0,16.5,3.5,23.3,10.1c6.8,6.6,10.3,18,10.4,34H865.1z"/>
	<path class="st7" d="M840.1,440.6c-7.6,5.1-14.2,7.7-19.8,7.7c-5.7,0-9.5-1.8-11.4-5.4c-1.9-3.6-2.9-8.8-2.9-15.5V347h34v-16h-34
		v-54.7l-18,9V331h-26.3l8.5,16H788v88.2c0,20.1,8.7,30.1,26,30.1c8.4,0,14.3,0,33.7-10.3L840.1,440.6z"/>
	<path class="st7" d="M763.5,415.2c-1.8-4.2-3.9-7.6-6.2-10.3c-2.3-2.7-5.7-5.3-10-8c-4.4-2.7-8-4.6-10.9-5.9c-2.9-1.3-7-3-12.1-5
		c-4.3-1.7-7.4-3-9.3-3.7c-1.9-0.8-4.5-2.1-7.7-3.9c-3.3-1.8-5.7-3.4-7.2-4.9c-1.5-1.5-2.9-3.3-4.1-5.5c-1.2-2.2-1.8-4.6-1.8-7.2
		c0-5.3,2.3-9.5,6.8-12.6c4.5-3.1,10.4-4.6,17.9-4.6c10.4,0,24.9,2.8,35,3.3l-9.1-17.1c-7-0.9-14.3-2.2-25.4-2.2
		c-12.5,0-22.6,3.1-30.5,9.3c-7.9,6.2-11.8,14.3-11.8,24.2c0,5.3,1,10.1,3,14.3c2,4.2,5,7.9,9.2,10.9c4.1,3.1,8.2,5.7,12.1,7.7
		c3.9,2.1,9,4.4,15.2,7c5.2,2.1,9.2,3.8,12.1,5.2c2.9,1.4,6.2,3.3,9.9,5.8c3.7,2.5,6.4,5.2,8.1,8.2c1.7,3,2.6,6.4,2.6,10.2
		c0,6-2.4,10.7-7.2,14c-4.8,3.3-11,5-18.5,5c-11.6,0-22.2-5-31.6-15.1l-15.3,8.1c12.9,15.3,28,22.9,45.3,22.9
		c13.6,0,24.3-3.3,32.3-9.8c8-6.5,12-15.3,12-26.3C766.2,424.1,765.3,419.4,763.5,415.2z"/>
</g>
<g id="Text_lys_fix" class="st0">
	<path class="st7" d="M1072.8,462.2h-19.8l-42.2-83.4l-21.9,23.4v60h-18V285l18-8.8v104.6l46.6-50.2h20.9l-33,35L1072.8,462.2z"/>
	<path class="st7" d="M583.1,524l22.2-11.6L672.4,331h-19.3l-33.7,93.3l-4.6,13.3c-0.3-1-1-3.1-2.1-6.2c-1-3.1-1.8-5.3-2.3-7
		L577.1,331h-18.3L607,458.3L583.1,524z"/>
	<path class="st7" d="M553.1,376.7c-5.4-4.6-10.8-8.5-16.2-11.5c-5.4-3-11.6-5.9-18.7-8.6c-6.5-2.6-11.8-4.8-15.8-6.7
		c-4-1.9-8.2-4.3-12.6-7.2c-4.4-2.9-7.6-6.2-9.8-9.8c-2.1-3.6-3.2-7.7-3.2-12.4c0-7.7,3-13.9,9-18.5c6-4.6,14.3-6.4,24.7-7
		c11.7-0.6,25.9,1.7,31.8,5.9c5.5,3.9,8.2,7.9,10.8,14h18.2c-5.2-16.5-12.4-22.2-18.2-26.6c-10.2-7.6-28.7-9.6-41.7-9.6
		c-16.1,0-29,4.1-38.6,12.2c-9.6,8.1-14.4,18.1-14.4,29.9c0,7,1.5,13.5,4.4,19.3c2.9,5.8,7.2,10.9,12.7,15.1
		c5.6,4.2,11.1,7.7,16.5,10.4c5.4,2.7,11.8,5.5,19.2,8.2c12.4,4.6,22.2,10.3,29.6,16.9c7.4,6.6,11.1,15,11.1,25.1
		c0,10.6-3.4,18.8-10.2,24.6c-6.8,5.8-16.1,8.6-27.9,8.6c-10,0-18.7-2.4-26.3-7.2c-7.6-4.8-13.2-11.2-17-19.3l-16,8.6
		c4,9.3,11,17.1,20.9,23.6c10.8,7,23.5,10.6,38.1,10.6c17,0,30.7-4.4,41.2-13.3c10.5-8.8,15.7-21.1,15.7-36.7
		c0-8.1-1.5-15.4-4.5-21.9C562.7,386.9,558.5,381.4,553.1,376.7z"/>
	<path class="st7" d="M941.1,343.6c-9.8-10.7-22.2-16.1-37.3-16.1c-17.2,0-31,6.1-41.5,18.3c-10.5,12.2-15.7,29-15.7,50.5
		c0,19.2,5.2,35.5,15.7,48.9c10.5,13.4,24.3,20.1,41.5,20.1c14.8,0,28.1-5,40.2-14.9l-15.6-8.3c-7.6,4.3-15.5,6.5-23.8,6.5
		c-11,0-19.8-3.9-26.5-12c-6.7-8.1-10.8-18.6-12.4-32.6h89.6c0.3-4,0.5-8.1,0.5-12.7C955.7,370.3,950.8,354.4,941.1,343.6z
		 M865.1,388c0.7-15,4.5-25.5,11.6-32.9c7-7.4,16.1-11.2,27-11.2c8.8,0,16.5,3.5,23.3,10.1c6.8,6.6,10.3,18,10.4,34H865.1z"/>
	<path class="st7" d="M840.1,440.6c-7.6,5.1-14.2,7.7-19.8,7.7c-5.7,0-9.5-1.8-11.4-5.4c-1.9-3.6-2.9-8.8-2.9-15.5V347h34v-16h-34
		v-54.7l-18,9V331h-26.3l8.5,16H788v88.2c0,20.1,8.7,30.1,26,30.1c8.4,0,14.3,0,33.7-10.3L840.1,440.6z"/>
	<path class="st7" d="M763.5,415.2c-1.8-4.2-3.9-7.6-6.2-10.3c-2.3-2.7-5.7-5.3-10-8c-4.4-2.7-8-4.6-10.9-5.9c-2.9-1.3-7-3-12.1-5
		c-4.3-1.7-7.4-3-9.3-3.7c-1.9-0.8-4.5-2.1-7.7-3.9c-3.3-1.8-5.7-3.4-7.2-4.9c-1.5-1.5-2.9-3.3-4.1-5.5c-1.2-2.2-1.8-4.6-1.8-7.2
		c0-5.3,2.3-9.5,6.8-12.6c4.5-3.1,10.4-4.6,17.9-4.6c10.4,0,24.9,2.8,35,3.3l-9.1-17.1c-7-0.9-14.3-2.2-25.4-2.2
		c-12.5,0-22.6,3.1-30.5,9.3c-7.9,6.2-11.8,14.3-11.8,24.2c0,5.3,1,10.1,3,14.3c2,4.2,5,7.9,9.2,10.9c4.1,3.1,8.2,5.7,12.1,7.7
		c3.9,2.1,9,4.4,15.2,7c5.2,2.1,9.2,3.8,12.1,5.2c2.9,1.4,6.2,3.3,9.9,5.8c3.7,2.5,6.4,5.2,8.1,8.2c1.7,3,2.6,6.4,2.6,10.2
		c0,6-2.4,10.7-7.2,14c-4.8,3.3-11,5-18.5,5c-11.6,0-22.2-5-31.6-15.1l-15.3,8.1c12.9,15.3,28,22.9,45.3,22.9
		c13.6,0,24.3-3.3,32.3-9.8c8-6.5,12-15.3,12-26.3C766.2,424.1,765.3,419.4,763.5,415.2z"/>
</g>
</svg>
