<?xml version="1.0" encoding="utf-8"?>
<!-- Generator: Adobe Illustrator 26.0.3, SVG Export Plug-In . SVG Version: 6.00 Build 0)  -->
<svg version="1.1" id="Layer_1" xmlns="http://www.w3.org/2000/svg" xmlns:xlink="http://www.w3.org/1999/xlink" x="0px" y="0px"
	 viewBox="0 0 794.9 190.7" style="enable-background:new 0 0 794.9 190.7;" xml:space="preserve">
<path d="M580.8,23.9c-7.4-5.5-11.7-1.4-14,2.6c-4,6.8-14.5,26.2-24,41.2C530.1,87.4,526,91.3,526,91.3s0-38.1-0.5-41.4
	c-1.6-10.9-7.3-9.8-11.5-9.1c-11,1.9-10.9,6.1-11.4,9.6c-1.3,9.1,0.6,48.2,1,53.2c0.4,4.9-0.4,22.1,9.6,23.6
	c7.5,1.1,14.7-5.8,20.1-11.8c5.4-6,11.5-13.2,24.4-31.4c14.1-20,24.1-36.6,27.9-43.1C589.2,34.5,589,30.1,580.8,23.9"/>
<path d="M771.5,23c-6.6-6.5-11-2.7-14.3,0.7c-0.5,0.7-15.5,15.6-31.2,33.7c-12.3,14.1-22.9,27.3-22.9,27.3s-0.4-8.9,0.9-20
	c0.8-6.3,2.8-18.7,3.4-22.6c3.1-19.8-9-20.6-13.6-20.9c-4.8-0.3-7,2.2-8.4,8.3c-1.3,5.5-8.4,35.9-5.6,67.2
	c0.5,5.6,1.6,11.5,1.7,11.8l-2.9,4c-26.7-7.5-44.9-25.9-44.9-25.9s8.7-2.6,18.4-8.4c7.6-4.7,22.3-16.2,20.8-36.6
	c-1.3-17.3-19.4-25.2-26-23.8c-6.1,1.3-16.6,8.7-26.6,17.7c-0.7-4.7-0.8-9.9-5.6-10.5c-3.5-0.4-7.6,1.3-10.6,2.8
	c-2.6,1.4-5.5,3.4-7.6,7.4l-11.2,25.9c-0.4,0.9-1.1,1.1-1.7,1.2c-6,1.4-7.9,5.8-8.4,7c0,0-2.5,5.4,1.9,10.3
	c-2.2,6-8.1,19.9-8.1,19.9c-7.3,17.1-6.9,23.1-4.2,26.7c1.3,1.9,6,4.5,11.6,5.5c4.2,0.7,7.5-1.8,11-7.5c5.2-8.3,15.7-30.4,15.7-30.4
	s20.9,22.9,62.8,38c0,0-22.2,30.7-25.4,47.6c0,0-1.7,11.1,13.3,11.1c3.8,0,9.4-0.9,13.5-3.4c1.8-1.1,2.9-2.6,3.4-4.4
	c0.2-0.8,0-1.7-0.3-2.4c-0.4-0.7-1.1-1.1-1.5-1.6c-0.8-0.8-0.7-1.8-0.2-2.9c8.2-24,41.7-64.8,48.8-73.7c18.8-23.4,53.6-59.9,56-62.8
	C777.9,33.7,778.8,30.2,771.5,23 M629.4,52.1c7.2-7.2,15.5-12.4,19.5-10.2c4.6,2.5-0.7,13.3-9.5,19.9c-5.7,4.2-15.5,10.6-25.5,10.6
	C618.8,63.6,624.9,56.6,629.4,52.1"/>
<path d="M493.1,99.2c-1.9-1.1-4.6-0.4-8.6,0.7c-6.6,1.8-22.9,8.1-28.6,9.8c-2.3,0.7-6.8,1.8-8.6-0.4c-2.9-3.6,1.2-15.1,3.7-21.4
	c2.5-6.4,6.4-11.5,18.4-14.9c4.4-1.3,11.6-3.6,14.6-4.6c3.2-1.1,7.5-3.2,9.3-10.5c2.1-8.3-4.2-9.6-10-11.2
	c-8.2-2.3-13.4-2.6-9.8-10.6c1.5-3.3,2.9-4.7,6.1-5.6c3.3-0.9,30.9-5.3,42-7.3c6.2-1.1,8.3-4.5,10.8-9.8C538,1.8,531,1.1,525.3,1.6
	c-12.7,1.2-33.2,4.9-42,6.2c-4.7,0.7-1.6-7.3-7-7.7c-10.7-0.8-19.9,3.8-23.5,6.6c-3.4,2.7-5.1,10.9-5.1,10.9l-10.6,36.8
	c-0.9,4.2-2.2,8.4-5.2,10.2c-7.3,4.4-22.2,4.7-20.9,20.8c0,0,0.3,7.9,6.7,24.1c1.6,4,1.7,6.6,1.1,10.8c-0.5,3.1-1,6.3-1.7,9.4
	c-0.5,2.7-1.8,8.6,0.1,10.8c1.8,2.2,5.3,2,9.5,1.5c4.6-0.6,27.6-5.3,51.8-15.5c3.3-1.4,6.6-3.2,9.5-5.4c6.6-5,7.6-15.6,7.6-15.6
	C495.7,103.6,495.7,100.7,493.1,99.2"/>
<path d="M166.8,29.5c-28.7,0-52.5,20.8-52.5,49.7c0,31.7,21.6,50.3,53.3,50.3c21.8,0,42.6-9.5,48.4-31.3h-29.8
	c-3,6.9-10.5,10.4-18.2,10.4c-13.5,0-21.2-8.6-21.8-21.5h71.5C219.1,55,201.7,29.5,166.8,29.5 M146.1,69.7
	c1.9-11.5,9.4-19.3,20.6-19.3c10.7,0,18.4,8.7,18.9,19.3H146.1z"/>
<path d="M335.2,29.5C305,29.5,284,51.2,284,79.6c0,28.4,21,49.9,51.2,49.9c30.2,0,51.4-21.5,51.4-49.9
	C386.6,51.2,365.4,29.5,335.2,29.5 M335.2,105.8c-14.8,0-19.3-14.2-19.3-26.2s4.5-26.4,19.3-26.4c14.8,0,19.5,14.4,19.5,26.4
	S350,105.8,335.2,105.8"/>
<path d="M48,0.2H16.1v31.7H0v20.6h16.1v41.1c0,26.4,7,34.3,34.2,34.3c5.8,0,11.6-0.8,17.4-0.9v-23.4c-2.8,0-5.6,0.4-8.3,0.4
	c-6.9,0-11.4-1.7-11.4-9.4V52.5h19.7V31.9H48V0.2z"/>
<rect x="76.4" y="31.9" width="31.9" height="95.1"/>
<rect x="76.4" y="0.2" width="31.9" height="23"/>
<path d="M264,0.2h-31.9v31.7h-16.1v20.6h16.1v41.1c0,26.4,7,34.3,34.2,34.3c5.8,0,11.6-0.8,17.4-0.9v-23.4c-2.8,0-5.6,0.4-8.3,0.4
	c-6.9,0-11.4-1.7-11.4-9.4V52.5h19.7V31.9H264V0.2z"/>
</svg>
