<?xml version="1.0" encoding="utf-8"?>
<!-- Generator: Adobe Illustrator 26.0.3, SVG Export Plug-In . SVG Version: 6.00 Build 0)  -->
<svg version="1.1" id="Layer_1" xmlns="http://www.w3.org/2000/svg" xmlns:xlink="http://www.w3.org/1999/xlink" x="0px" y="0px"
	 viewBox="0 0 1024 768" style="enable-background:new 0 0 1024 768;" xml:space="preserve">
<path d="M436.9,402.9c-2.4-14.1-9.4-25.4-21.7-32.4c-9.5-5.4-20.9-6.8-32.5-3.5c-23.6,6.8-35.2,31.3-28.8,53.4
	c6.3,21.7,29,36.1,53,29.2c8-2.3,15-6.8,20.2-13.1c5.3-6.3,8.9-14.5,10.2-24.1l-19.2,5.5c-1.8,7.3-6.6,13.3-15.7,15.9
	c-10.6,3.1-23.7-0.6-28.1-12.7L436.9,402.9z M370.4,406.6c-1.5-7.7,3.2-19.9,17-23.9c13.5-4.1,24.3,4,27.1,11.1L370.4,406.6z"/>
<path d="M576.8,402.9c-2.4-14.1-9.4-25.4-21.7-32.4c-9.5-5.4-20.9-6.8-32.5-3.5c-23.6,6.8-35.2,31.3-28.8,53.4
	c6.3,21.7,29,36.1,53,29.2c8-2.3,15-6.8,20.2-13.1c5.3-6.3,8.9-14.5,10.2-24.1l-19.2,5.5c-1.8,7.3-6.6,13.3-15.7,15.9
	c-10.6,3.1-23.7-0.6-28.1-12.7L576.8,402.9z M510.3,406.6c-1.5-7.7,3.2-19.9,17-23.9c13.5-4.1,24.3,4,27.1,11.1L510.3,406.6z"/>
<polygon points="576.3,449.7 599.7,449.7 618.1,421.8 636.2,449.7 659.9,449.7 629.6,407 656.8,368.7 633.8,368.7 618.1,393.6 
	602.3,368.7 578.9,368.7 606.2,407 "/>
<path d="M305.5,408.5c0,20.9-15.2,42.9-43.4,42.9c-9.4,0-17.4-2.5-23.8-6.5V478h-19.4v-65.8c-0.1-1.2-0.2-2.5-0.2-3.7v-0.1
	c0-20.7,15.2-42.8,43.4-42.8C290.4,365.6,305.5,387.6,305.5,408.5z M286.1,408.3c0-14.3-10.7-24.8-24-24.8
	c-12.9,0-23.4,10-23.9,23.8h0.1v4.1c1.4,12.6,11.5,21.7,23.8,21.7C275.4,433.1,286.1,422.6,286.1,408.3z"/>
<polygon points="336.7,339.6 336.1,339.6 318.8,339.6 318.8,356.8 318.8,357 318.8,357 318.8,448.9 320.3,448.9 320.8,448.9 
	338.2,448.9 338.2,431.7 338.2,431.6 338.2,431.5 338.2,339.6 "/>
<path d="M181.5,367.9h19.4v81h-19.4V367.9z M190.8,356.2c5.9,0,10.7-4.8,10.7-10.7c0-5.9-4.8-10.7-10.7-10.7
	c-5.9,0-10.7,4.8-10.7,10.7C180.1,351.4,184.9,356.2,190.8,356.2z"/>
<path d="M137.7,407.8L137.7,407.8c0.5-13.9,11.1-24.1,24.2-24.1c1.6,0,3.1,0.2,4.7,0.5v-18.4c-1.5-0.1-3.1-0.2-4.7-0.2
	c-28.6,0-43.9,22.3-43.9,43.3v0.2c0,1.3,0.1,2.5,0.2,3.8v36.4h19.6L137.7,407.8z"/>
<polygon points="113.5,364.7 93.4,364.7 93.4,339.7 74.1,339.7 74.1,448.8 93.4,448.8 93.4,384.1 113.5,384.1 "/>
<polygon points="489.1,364.7 469,364.7 469,339.7 449.6,339.7 449.6,448.8 469,448.8 469,384.1 489.1,384.1 "/>
<path d="M753.2,319.3v-4.4H779c-0.5-6.3-3.1-12.4-7.9-17.2c-10.7-10.7-28-10.7-38.7,0c-10.7,10.7-10.7,28,0,38.7
	c10.7,10.7,28,10.7,38.7,0c4.8-4.8,7.4-10.9,7.9-17.1H753.2z"/>
<path d="M700.7,367.4h4.4v25.9c6.3-0.5,12.4-3.1,17.2-7.9c10.7-10.7,10.7-28,0-38.7c-10.7-10.7-28-10.7-38.7,0
	c-10.7,10.7-10.7,28,0,38.7c4.8,4.8,10.9,7.4,17.1,7.9V367.4z"/>
<path d="M704.9,268.2l-3.1-3.1l18.3-18.3c-4.8-4.1-11-6.5-17.7-6.5c-15.1,0-27.4,12.3-27.4,27.3c0,15.1,12.2,27.4,27.4,27.4
	c15.1,0,27.3-12.2,27.3-27.4c0-6.8-2.5-12.9-6.5-17.7L704.9,268.2z"/>
</svg>
